<svg width="1444" height="150" viewBox="0 0 1444 150" fill="none" xmlns="http://www.w3.org/2000/svg">
<path d="M165.008 80.768C161.467 80.768 158.181 80.192 155.152 79.04C152.165 77.888 149.563 76.2667 147.344 74.176C145.168 72.0853 143.461 69.632 142.224 66.816C141.029 64 140.432 60.928 140.432 57.6C140.432 54.272 141.029 51.2 142.224 48.384C143.461 45.568 145.189 43.1147 147.408 41.024C149.627 38.9333 152.229 37.312 155.216 36.16C158.203 35.008 161.445 34.432 164.944 34.432C168.485 34.432 171.728 35.008 174.672 36.16C177.659 37.312 180.24 38.9333 182.416 41.024C184.635 43.1147 186.363 45.568 187.6 48.384C188.837 51.1573 189.456 54.2293 189.456 57.6C189.456 60.928 188.837 64.0213 187.6 66.88C186.363 69.696 184.635 72.1493 182.416 74.24C180.24 76.288 177.659 77.888 174.672 79.04C171.728 80.192 168.507 80.768 165.008 80.768ZM164.944 71.936C166.949 71.936 168.784 71.5947 170.448 70.912C172.155 70.2293 173.648 69.248 174.928 67.968C176.208 66.688 177.189 65.1733 177.872 63.424C178.597 61.6747 178.96 59.7333 178.96 57.6C178.96 55.4667 178.597 53.5253 177.872 51.776C177.189 50.0267 176.208 48.512 174.928 47.232C173.691 45.952 172.219 44.9707 170.512 44.288C168.805 43.6053 166.949 43.264 164.944 43.264C162.939 43.264 161.083 43.6053 159.376 44.288C157.712 44.9707 156.24 45.952 154.96 47.232C153.68 48.512 152.677 50.0267 151.952 51.776C151.269 53.5253 150.928 55.4667 150.928 57.6C150.928 59.6907 151.269 61.632 151.952 63.424C152.677 65.1733 153.659 66.688 154.896 67.968C156.176 69.248 157.669 70.2293 159.376 70.912C161.083 71.5947 162.939 71.936 164.944 71.936ZM217.36 80V45.568H227.28V59.008H242.256V45.568H252.24V80H242.256V67.136H227.28V80H217.36ZM283.685 80V73.28L283.045 71.808V59.776C283.045 57.6427 282.384 55.9787 281.061 54.784C279.781 53.5893 277.797 52.992 275.109 52.992C273.275 52.992 271.461 53.2907 269.669 53.888C267.92 54.4427 266.427 55.2107 265.189 56.192L261.605 49.216C263.483 47.8933 265.744 46.8693 268.389 46.144C271.035 45.4187 273.723 45.056 276.453 45.056C281.701 45.056 285.776 46.2933 288.677 48.768C291.579 51.2427 293.029 55.104 293.029 60.352V80H283.685ZM273.189 80.512C270.501 80.512 268.197 80.064 266.277 79.168C264.357 78.2293 262.885 76.9707 261.861 75.392C260.837 73.8133 260.325 72.0427 260.325 70.08C260.325 68.032 260.816 66.24 261.797 64.704C262.821 63.168 264.421 61.9733 266.597 61.12C268.773 60.224 271.611 59.776 275.109 59.776H284.261V65.6H276.197C273.851 65.6 272.229 65.984 271.333 66.752C270.48 67.52 270.053 68.48 270.053 69.632C270.053 70.912 270.544 71.936 271.525 72.704C272.549 73.4293 273.936 73.792 275.685 73.792C277.349 73.792 278.843 73.408 280.165 72.64C281.488 71.8293 282.448 70.656 283.045 69.12L284.581 73.728C283.856 75.9467 282.533 77.632 280.613 78.784C278.693 79.936 276.219 80.512 273.189 80.512ZM319.366 80.512C315.654 80.512 312.348 79.7653 309.446 78.272C306.545 76.736 304.262 74.624 302.598 71.936C300.977 69.248 300.166 66.1973 300.166 62.784C300.166 59.328 300.977 56.2773 302.598 53.632C304.262 50.944 306.545 48.8533 309.446 47.36C312.348 45.824 315.654 45.056 319.366 45.056C322.993 45.056 326.15 45.824 328.838 47.36C331.526 48.8533 333.51 51.008 334.79 53.824L327.046 57.984C326.15 56.3627 325.02 55.168 323.654 54.4C322.332 53.632 320.881 53.248 319.302 53.248C317.596 53.248 316.06 53.632 314.694 54.4C313.329 55.168 312.241 56.256 311.43 57.664C310.662 59.072 310.278 60.7787 310.278 62.784C310.278 64.7893 310.662 66.496 311.43 67.904C312.241 69.312 313.329 70.4 314.694 71.168C316.06 71.936 317.596 72.32 319.302 72.32C320.881 72.32 322.332 71.9573 323.654 71.232C325.02 70.464 326.15 69.248 327.046 67.584L334.79 71.808C333.51 74.5813 331.526 76.736 328.838 78.272C326.15 79.7653 322.993 80.512 319.366 80.512Z" fill="black"/>
<line x1="1" y1="0.5" x2="334" y2="0.5" stroke="black"/>
<line x1="98.5" y1="2.18557e-08" x2="98.5" y2="76" stroke="black"/>
<line x1="147" y1="124.5" x2="384" y2="124.5" stroke="black"/>
<line x1="384" y1="124.5" x2="1101" y2="124.5" stroke="black"/>
<line x1="1150" y1="61.5" x2="1444" y2="61.5" stroke="black"/>
<line x1="383.5" y1="50" x2="383.5" y2="125" stroke="black"/>
<line x1="1125.5" y1="86" x2="1125.5" y2="100" stroke="black"/>
<line x1="58" y1="34.5" y2="34.5" stroke="black"/>
<path d="M384 50C384 43.4339 382.707 36.9321 380.194 30.8658C377.681 24.7995 373.998 19.2876 369.355 14.6447C364.712 10.0017 359.2 6.31876 353.134 3.80602C347.068 1.29329 340.566 -2.87013e-07 334 0V1C340.435 1 346.807 2.26742 352.751 4.7299C358.696 7.19238 364.098 10.8017 368.648 15.3518C373.198 19.9018 376.808 25.3036 379.27 31.2485C381.733 37.1935 383 43.5652 383 50H384Z" fill="black"/>
<path d="M1101 125C1104.28 125 1107.53 124.353 1110.57 123.097C1113.6 121.841 1116.36 119.999 1118.68 117.678C1121 115.356 1122.84 112.6 1124.1 109.567C1125.35 106.534 1126 103.283 1126 100L1125 100C1125 103.152 1124.38 106.273 1123.17 109.184C1121.97 112.096 1120.2 114.742 1117.97 116.971C1115.74 119.199 1113.1 120.967 1110.18 122.173C1107.27 123.379 1104.15 124 1101 124L1101 125Z" fill="black"/>
<path d="M1150 61C1146.72 61 1143.47 61.6466 1140.43 62.903C1137.4 64.1594 1134.64 66.0009 1132.32 68.3223C1130 70.6438 1128.16 73.3998 1126.9 76.4329C1125.65 79.4661 1125 82.717 1125 86L1126 86C1126 82.8483 1126.62 79.7274 1127.83 76.8156C1129.03 73.9038 1130.8 71.258 1133.03 69.0294C1135.26 66.8008 1137.9 65.033 1140.82 63.8269C1143.73 62.6208 1146.85 62 1150 62L1150 61Z" fill="black"/>
<path d="M383 100C386.283 100 389.534 100.647 392.567 101.903C395.6 103.159 398.356 105.001 400.678 107.322C402.999 109.644 404.841 112.4 406.097 115.433C407.353 118.466 408 121.717 408 125L407 125C407 121.848 406.379 118.727 405.173 115.816C403.967 112.904 402.199 110.258 399.971 108.029C397.742 105.801 395.096 104.033 392.184 102.827C389.273 101.621 386.152 101 383 101L383 100Z" fill="black"/>
<path d="M383 100C386.283 100 389.534 100.647 392.567 101.903C395.6 103.159 398.356 105.001 400.678 107.322C402.999 109.644 404.841 112.4 406.097 115.433C407.353 118.466 408 121.717 408 125L407 125C407 121.848 406.379 118.727 405.173 115.816C403.967 112.904 402.199 110.258 399.971 108.029C397.742 105.801 395.096 104.033 392.184 102.827C389.273 101.621 386.152 101 383 101L383 100Z" fill="black"/>
<path d="M57.5 34C59.1415 34 60.767 34.3233 62.2835 34.9515C63.8001 35.5797 65.1781 36.5004 66.3388 37.6612C67.4996 38.8219 68.4203 40.1999 69.0485 41.7165C69.6767 43.233 70 44.8585 70 46.5L69 46.5C69 44.9898 68.7025 43.4944 68.1246 42.0991C67.5467 40.7039 66.6996 39.4361 65.6317 38.3683C64.5639 37.3004 63.2961 36.4533 61.9009 35.8754C60.5056 35.2975 59.0102 35 57.5 35L57.5 34Z" fill="black"/>
<path d="M81.5 59C79.8585 59 78.233 58.6767 76.7165 58.0485C75.1999 57.4203 73.8219 56.4996 72.6612 55.3388C71.5004 54.1781 70.5797 52.8001 69.9515 51.2835C69.3233 49.767 69 48.1415 69 46.5L70 46.5C70 48.0102 70.2975 49.5056 70.8754 50.9009C71.4533 52.2961 72.3004 53.5639 73.3683 54.6317C74.4361 55.6996 75.7039 56.5467 77.0991 57.1246C78.4944 57.7025 79.9898 58 81.5 58L81.5 59Z" fill="black"/>
<path d="M98 75C98 81.5661 99.2933 88.0679 101.806 94.1342C104.319 100.2 108.002 105.712 112.645 110.355C117.288 114.998 122.8 118.681 128.866 121.194C134.932 123.707 141.434 125 148 125L148 124C141.565 124 135.193 122.733 129.249 120.27C123.304 117.808 117.902 114.198 113.352 109.648C108.802 105.098 105.192 99.6965 102.73 93.7515C100.267 87.8065 99 81.4348 99 75L98 75Z" fill="black"/>
<path d="M384 50C384 43.4339 382.707 36.9321 380.194 30.8658C377.681 24.7995 373.998 19.2876 369.355 14.6447C364.712 10.0017 359.2 6.31876 353.134 3.80602C347.068 1.29329 340.566 -2.87013e-07 334 0V1C340.435 1 346.807 2.26742 352.751 4.7299C358.696 7.19238 364.098 10.8017 368.648 15.3518C373.198 19.9018 376.808 25.3036 379.27 31.2485C381.733 37.1935 383 43.5652 383 50H384Z" fill="black"/>
<path d="M98 75C98 81.5661 99.2933 88.0679 101.806 94.1342C104.319 100.2 108.002 105.712 112.645 110.355C117.288 114.998 122.8 118.681 128.866 121.194C134.932 123.707 141.434 125 148 125L148 124C141.565 124 135.193 122.733 129.249 120.27C123.304 117.808 117.902 114.198 113.352 109.648C108.802 105.098 105.192 99.6965 102.73 93.7515C100.267 87.8065 99 81.4348 99 75L98 75Z" fill="black"/>
<line x1="81" y1="58.5" x2="98" y2="58.5" stroke="black"/>
</svg>
