<svg width="223" height="40" viewBox="0 0 223 40" fill="none" xmlns="http://www.w3.org/2000/svg">
<rect width="223" height="40" rx="20" fill="#4DCDAE"/>
<path d="M25.48 24.76L26.48 22.44C27.08 22.8 27.72 23.08 28.4 23.28C29.0933 23.4667 29.7667 23.5733 30.42 23.6C31.0867 23.6133 31.6867 23.5467 32.22 23.4C32.7667 23.2533 33.2 23.0333 33.52 22.74C33.8533 22.4467 34.02 22.0733 34.02 21.62C34.02 21.0867 33.8 20.6933 33.36 20.44C32.92 20.1733 32.3333 20.04 31.6 20.04H28.18V17.6H31.36C32.0133 17.6 32.52 17.4667 32.88 17.2C33.2533 16.9333 33.44 16.5667 33.44 16.1C33.44 15.7 33.3067 15.38 33.04 15.14C32.7733 14.8867 32.4067 14.7 31.94 14.58C31.4867 14.46 30.9733 14.4067 30.4 14.42C29.8267 14.4333 29.2333 14.5267 28.62 14.7C28.0067 14.8733 27.42 15.1133 26.86 15.42L25.88 12.92C26.7867 12.4533 27.74 12.1333 28.74 11.96C29.7533 11.7733 30.7267 11.7267 31.66 11.82C32.6067 11.9 33.46 12.1133 34.22 12.46C34.98 12.7933 35.5867 13.2333 36.04 13.78C36.4933 14.3267 36.72 14.9733 36.72 15.72C36.72 16.3867 36.5467 16.98 36.2 17.5C35.8533 18.02 35.3667 18.42 34.74 18.7C34.1267 18.98 33.42 19.12 32.62 19.12L32.7 18.4C33.6333 18.4 34.44 18.56 35.12 18.88C35.8133 19.1867 36.3467 19.62 36.72 20.18C37.1067 20.7267 37.3 21.36 37.3 22.08C37.3 22.7467 37.12 23.3467 36.76 23.88C36.4133 24.4 35.9333 24.84 35.32 25.2C34.7067 25.56 34.0067 25.8267 33.22 26C32.4333 26.1733 31.5933 26.2467 30.7 26.22C29.82 26.1933 28.9333 26.0667 28.04 25.84C27.1467 25.6 26.2933 25.24 25.48 24.76ZM46.465 26V23.9L46.265 23.44V19.68C46.265 19.0133 46.0583 18.4933 45.645 18.12C45.245 17.7467 44.625 17.56 43.785 17.56C43.2117 17.56 42.645 17.6533 42.085 17.84C41.5383 18.0133 41.0717 18.2533 40.685 18.56L39.565 16.38C40.1517 15.9667 40.8583 15.6467 41.685 15.42C42.5117 15.1933 43.3517 15.08 44.205 15.08C45.845 15.08 47.1183 15.4667 48.025 16.24C48.9317 17.0133 49.385 18.22 49.385 19.86V26H46.465ZM43.185 26.16C42.345 26.16 41.625 26.02 41.025 25.74C40.425 25.4467 39.965 25.0533 39.645 24.56C39.325 24.0667 39.165 23.5133 39.165 22.9C39.165 22.26 39.3183 21.7 39.625 21.22C39.945 20.74 40.445 20.3667 41.125 20.1C41.805 19.82 42.6917 19.68 43.785 19.68H46.645V21.5H44.125C43.3917 21.5 42.885 21.62 42.605 21.86C42.3383 22.1 42.205 22.4 42.205 22.76C42.205 23.16 42.3583 23.48 42.665 23.72C42.985 23.9467 43.4183 24.06 43.965 24.06C44.485 24.06 44.9517 23.94 45.365 23.7C45.7783 23.4467 46.0783 23.08 46.265 22.6L46.745 24.04C46.5183 24.7333 46.105 25.26 45.505 25.62C44.905 25.98 44.1317 26.16 43.185 26.16ZM57.8353 26.24C56.9553 26.24 56.1553 26.1133 55.4353 25.86C54.7153 25.5933 54.0886 25.1867 53.5553 24.64C53.0353 24.08 52.6286 23.3667 52.3353 22.5C52.0553 21.6333 51.9153 20.6 51.9153 19.4C51.9153 18.5467 51.9886 17.7667 52.1353 17.06C52.282 16.3533 52.502 15.7133 52.7953 15.14C53.0886 14.5533 53.462 14.04 53.9153 13.6C54.382 13.1467 54.922 12.7733 55.5353 12.48C56.162 12.1733 56.8686 11.94 57.6553 11.78L62.7753 10.76L63.1953 13.44L58.6753 14.34C58.4086 14.3933 58.102 14.4667 57.7553 14.56C57.422 14.64 57.082 14.7667 56.7353 14.94C56.402 15.1133 56.0886 15.36 55.7953 15.68C55.5153 15.9867 55.2886 16.3933 55.1153 16.9C54.942 17.3933 54.8553 18.0067 54.8553 18.74C54.8553 18.9667 54.862 19.14 54.8753 19.26C54.902 19.38 54.922 19.5067 54.9353 19.64C54.962 19.7733 54.9753 19.98 54.9753 20.26L53.9753 19.28C54.2686 18.6533 54.642 18.12 55.0953 17.68C55.562 17.24 56.0953 16.9067 56.6953 16.68C57.3086 16.44 57.9886 16.32 58.7353 16.32C59.7486 16.32 60.6353 16.5267 61.3953 16.94C62.1686 17.34 62.7686 17.9067 63.1953 18.64C63.622 19.3733 63.8353 20.2067 63.8353 21.14C63.8353 22.1533 63.582 23.0467 63.0753 23.82C62.5686 24.58 61.862 25.1733 60.9553 25.6C60.062 26.0267 59.022 26.24 57.8353 26.24ZM57.9953 23.82C58.5153 23.82 58.9753 23.7067 59.3753 23.48C59.7753 23.24 60.082 22.9267 60.2953 22.54C60.522 22.14 60.6353 21.6933 60.6353 21.2C60.6353 20.72 60.522 20.2933 60.2953 19.92C60.082 19.5467 59.7753 19.2533 59.3753 19.04C58.9753 18.8267 58.5086 18.72 57.9753 18.72C57.4553 18.72 56.9886 18.8267 56.5753 19.04C56.162 19.24 55.842 19.52 55.6153 19.88C55.3886 20.24 55.2753 20.66 55.2753 21.14C55.2753 21.6333 55.3886 22.0867 55.6153 22.5C55.8553 22.9 56.1753 23.22 56.5753 23.46C56.9886 23.7 57.462 23.82 57.9953 23.82ZM72.6923 26.16C71.7857 26.16 70.9923 25.96 70.3123 25.56C69.6323 25.16 69.099 24.5533 68.7123 23.74C68.339 22.9133 68.1523 21.8733 68.1523 20.62C68.1523 19.3533 68.3323 18.3133 68.6923 17.5C69.0523 16.6867 69.5723 16.08 70.2523 15.68C70.9323 15.28 71.7457 15.08 72.6923 15.08C73.7057 15.08 74.6123 15.3133 75.4123 15.78C76.2257 16.2333 76.8657 16.8733 77.3323 17.7C77.8123 18.5267 78.0523 19.5 78.0523 20.62C78.0523 21.7533 77.8123 22.7333 77.3323 23.56C76.8657 24.3867 76.2257 25.0267 75.4123 25.48C74.6123 25.9333 73.7057 26.16 72.6923 26.16ZM66.3323 29.88V15.24H69.3123V17.44L69.2523 20.64L69.4523 23.82V29.88H66.3323ZM72.1523 23.6C72.6723 23.6 73.1323 23.48 73.5323 23.24C73.9457 23 74.2723 22.66 74.5123 22.22C74.7657 21.7667 74.8923 21.2333 74.8923 20.62C74.8923 19.9933 74.7657 19.46 74.5123 19.02C74.2723 18.58 73.9457 18.24 73.5323 18C73.1323 17.76 72.6723 17.64 72.1523 17.64C71.6323 17.64 71.1657 17.76 70.7523 18C70.339 18.24 70.0123 18.58 69.7723 19.02C69.5323 19.46 69.4123 19.9933 69.4123 20.62C69.4123 21.2333 69.5323 21.7667 69.7723 22.22C70.0123 22.66 70.339 23 70.7523 23.24C71.1657 23.48 71.6323 23.6 72.1523 23.6ZM85.6791 26.16C84.5324 26.16 83.5124 25.92 82.6191 25.44C81.7391 24.96 81.0391 24.3067 80.5191 23.48C80.0124 22.64 79.7591 21.6867 79.7591 20.62C79.7591 19.54 80.0124 18.5867 80.5191 17.76C81.0391 16.92 81.7391 16.2667 82.6191 15.8C83.5124 15.32 84.5324 15.08 85.6791 15.08C86.8124 15.08 87.8257 15.32 88.7191 15.8C89.6124 16.2667 90.3124 16.9133 90.8191 17.74C91.3257 18.5667 91.5791 19.5267 91.5791 20.62C91.5791 21.6867 91.3257 22.64 90.8191 23.48C90.3124 24.3067 89.6124 24.96 88.7191 25.44C87.8257 25.92 86.8124 26.16 85.6791 26.16ZM85.6791 23.6C86.1991 23.6 86.6657 23.48 87.0791 23.24C87.4924 23 87.8191 22.66 88.0591 22.22C88.2991 21.7667 88.4191 21.2333 88.4191 20.62C88.4191 19.9933 88.2991 19.46 88.0591 19.02C87.8191 18.58 87.4924 18.24 87.0791 18C86.6657 17.76 86.1991 17.64 85.6791 17.64C85.1591 17.64 84.6924 17.76 84.2791 18C83.8657 18.24 83.5324 18.58 83.2791 19.02C83.0391 19.46 82.9191 19.9933 82.9191 20.62C82.9191 21.2333 83.0391 21.7667 83.2791 22.22C83.5324 22.66 83.8657 23 84.2791 23.24C84.6924 23.48 85.1591 23.6 85.6791 23.6ZM94.125 26V15.24H97.225V19.44H101.905V15.24H105.025V26H101.905V21.98H97.225V26H94.125ZM108.412 26V15.24H111.512V21.64L116.752 15.24H119.612V26H116.512V19.6L111.292 26H108.412ZM129.351 26.16C128.444 26.16 127.651 25.96 126.971 25.56C126.291 25.16 125.758 24.5533 125.371 23.74C124.998 22.9133 124.811 21.8733 124.811 20.62C124.811 19.3533 124.991 18.3133 125.351 17.5C125.711 16.6867 126.231 16.08 126.911 15.68C127.591 15.28 128.404 15.08 129.351 15.08C130.364 15.08 131.271 15.3133 132.071 15.78C132.884 16.2333 133.524 16.8733 133.991 17.7C134.471 18.5267 134.711 19.5 134.711 20.62C134.711 21.7533 134.471 22.7333 133.991 23.56C133.524 24.3867 132.884 25.0267 132.071 25.48C131.271 25.9333 130.364 26.16 129.351 26.16ZM122.991 29.88V15.24H125.971V17.44L125.911 20.64L126.111 23.82V29.88H122.991ZM128.811 23.6C129.331 23.6 129.791 23.48 130.191 23.24C130.604 23 130.931 22.66 131.171 22.22C131.424 21.7667 131.551 21.2333 131.551 20.62C131.551 19.9933 131.424 19.46 131.171 19.02C130.931 18.58 130.604 18.24 130.191 18C129.791 17.76 129.331 17.64 128.811 17.64C128.291 17.64 127.824 17.76 127.411 18C126.998 18.24 126.671 18.58 126.431 19.02C126.191 19.46 126.071 19.9933 126.071 20.62C126.071 21.2333 126.191 21.7667 126.431 22.22C126.671 22.66 126.998 23 127.411 23.24C127.824 23.48 128.291 23.6 128.811 23.6ZM142.338 26.16C141.191 26.16 140.171 25.92 139.278 25.44C138.398 24.96 137.698 24.3067 137.178 23.48C136.671 22.64 136.418 21.6867 136.418 20.62C136.418 19.54 136.671 18.5867 137.178 17.76C137.698 16.92 138.398 16.2667 139.278 15.8C140.171 15.32 141.191 15.08 142.338 15.08C143.471 15.08 144.484 15.32 145.378 15.8C146.271 16.2667 146.971 16.9133 147.478 17.74C147.984 18.5667 148.238 19.5267 148.238 20.62C148.238 21.6867 147.984 22.64 147.478 23.48C146.971 24.3067 146.271 24.96 145.378 25.44C144.484 25.92 143.471 26.16 142.338 26.16ZM142.338 23.6C142.858 23.6 143.324 23.48 143.738 23.24C144.151 23 144.478 22.66 144.718 22.22C144.958 21.7667 145.078 21.2333 145.078 20.62C145.078 19.9933 144.958 19.46 144.718 19.02C144.478 18.58 144.151 18.24 143.738 18C143.324 17.76 142.858 17.64 142.338 17.64C141.818 17.64 141.351 17.76 140.938 18C140.524 18.24 140.191 18.58 139.938 19.02C139.698 19.46 139.578 19.9933 139.578 20.62C139.578 21.2333 139.698 21.7667 139.938 22.22C140.191 22.66 140.524 23 140.938 23.24C141.351 23.48 141.818 23.6 142.338 23.6ZM150.784 26V15.24H156.284C157.63 15.24 158.684 15.4867 159.444 15.98C160.204 16.46 160.584 17.14 160.584 18.02C160.584 18.9 160.224 19.5933 159.504 20.1C158.797 20.5933 157.857 20.84 156.684 20.84L157.004 20.12C158.31 20.12 159.284 20.36 159.924 20.84C160.577 21.32 160.904 22.02 160.904 22.94C160.904 23.8867 160.544 24.6333 159.824 25.18C159.104 25.7267 158.004 26 156.524 26H150.784ZM153.644 23.88H156.264C156.837 23.88 157.264 23.7867 157.544 23.6C157.837 23.4 157.984 23.1 157.984 22.7C157.984 22.2867 157.85 21.9867 157.584 21.8C157.317 21.6 156.897 21.5 156.324 21.5H153.644V23.88ZM153.644 19.66H156.004C156.55 19.66 156.957 19.56 157.224 19.36C157.504 19.16 157.644 18.8733 157.644 18.5C157.644 18.1133 157.504 17.8267 157.224 17.64C156.957 17.4533 156.55 17.36 156.004 17.36H153.644V19.66ZM170.065 26V23.9L169.865 23.44V19.68C169.865 19.0133 169.658 18.4933 169.245 18.12C168.845 17.7467 168.225 17.56 167.385 17.56C166.812 17.56 166.245 17.6533 165.685 17.84C165.138 18.0133 164.672 18.2533 164.285 18.56L163.165 16.38C163.752 15.9667 164.458 15.6467 165.285 15.42C166.112 15.1933 166.952 15.08 167.805 15.08C169.445 15.08 170.718 15.4667 171.625 16.24C172.532 17.0133 172.985 18.22 172.985 19.86V26H170.065ZM166.785 26.16C165.945 26.16 165.225 26.02 164.625 25.74C164.025 25.4467 163.565 25.0533 163.245 24.56C162.925 24.0667 162.765 23.5133 162.765 22.9C162.765 22.26 162.918 21.7 163.225 21.22C163.545 20.74 164.045 20.3667 164.725 20.1C165.405 19.82 166.292 19.68 167.385 19.68H170.245V21.5H167.725C166.992 21.5 166.485 21.62 166.205 21.86C165.938 22.1 165.805 22.4 165.805 22.76C165.805 23.16 165.958 23.48 166.265 23.72C166.585 23.9467 167.018 24.06 167.565 24.06C168.085 24.06 168.552 23.94 168.965 23.7C169.378 23.4467 169.678 23.08 169.865 22.6L170.345 24.04C170.118 24.7333 169.705 25.26 169.105 25.62C168.505 25.98 167.732 26.16 166.785 26.16ZM178.395 26V17.08L179.095 17.8H174.755V15.24H185.135V17.8H180.795L181.495 17.08V26H178.395ZM193.018 18.68C194.432 18.6933 195.505 19.0133 196.238 19.64C196.985 20.2533 197.358 21.1267 197.358 22.26C197.358 23.4467 196.938 24.3733 196.098 25.04C195.258 25.6933 194.092 26.02 192.598 26.02L187.198 26V15.24H190.298V18.68H193.018ZM192.318 23.8C192.918 23.8133 193.378 23.6867 193.698 23.42C194.018 23.1533 194.178 22.7533 194.178 22.22C194.178 21.6867 194.018 21.3067 193.698 21.08C193.378 20.84 192.918 20.7133 192.318 20.7L190.298 20.68V23.8H192.318Z" fill="white"/>
</svg>
