<svg width="350" height="70" viewBox="0 0 350 70" fill="none" xmlns="http://www.w3.org/2000/svg">
<g clip-path="url(#clip0_688_343)">
<rect x="-128.888" y="-4.79883" width="1440" height="104" fill="url(#paint0_radial_688_343)" fill-opacity="0.8"/>
<rect x="-128.888" y="-4.79883" width="1440" height="104" fill="url(#paint1_radial_688_343)" fill-opacity="0.44"/>
<rect x="-128.888" y="-4.79883" width="1440" height="104" fill="url(#paint2_linear_688_343)" fill-opacity="0.2"/>
<rect x="-128.888" y="-4.79883" width="1440" height="104" fill="url(#paint3_linear_688_343)" fill-opacity="0.4"/>
<rect x="-128.888" y="-4.79883" width="1440" height="104" fill="url(#paint4_radial_688_343)" fill-opacity="0.2"/>
<g filter="url(#filter0_f_688_343)">
<ellipse cx="179.316" cy="48.9012" rx="152.571" ry="56.4656" transform="rotate(-7.00215 179.316 48.9012)" fill="url(#paint5_radial_688_343)" fill-opacity="0.6"/>
</g>
<g filter="url(#filter1_f_688_343)">
<ellipse cx="-38.4852" cy="10.801" rx="152.571" ry="74.5" transform="rotate(-7.00215 -38.4852 10.801)" fill="url(#paint6_radial_688_343)" fill-opacity="0.8"/>
</g>
<path d="M27.944 42.192C26.552 42.192 25.312 41.912 24.224 41.352C23.136 40.776 22.28 39.984 21.656 38.976C21.048 37.968 20.744 36.824 20.744 35.544C20.744 34.248 21.048 33.104 21.656 32.112C22.28 31.104 23.136 30.32 24.224 29.76C25.312 29.184 26.552 28.896 27.944 28.896C29.304 28.896 30.488 29.184 31.496 29.76C32.504 30.32 33.248 31.128 33.728 32.184L30.824 33.744C30.488 33.136 30.064 32.688 29.552 32.4C29.056 32.112 28.512 31.968 27.92 31.968C27.28 31.968 26.704 32.112 26.192 32.4C25.68 32.688 25.272 33.096 24.968 33.624C24.68 34.152 24.536 34.792 24.536 35.544C24.536 36.296 24.68 36.936 24.968 37.464C25.272 37.992 25.68 38.4 26.192 38.688C26.704 38.976 27.28 39.12 27.92 39.12C28.512 39.12 29.056 38.984 29.552 38.712C30.064 38.424 30.488 37.968 30.824 37.344L33.728 38.928C33.248 39.968 32.504 40.776 31.496 41.352C30.488 41.912 29.304 42.192 27.944 42.192ZM42.3671 42.192C40.9911 42.192 39.7671 41.904 38.6951 41.328C37.6391 40.752 36.7991 39.968 36.1751 38.976C35.5671 37.968 35.2631 36.824 35.2631 35.544C35.2631 34.248 35.5671 33.104 36.1751 32.112C36.7991 31.104 37.6391 30.32 38.6951 29.76C39.7671 29.184 40.9911 28.896 42.3671 28.896C43.7271 28.896 44.9431 29.184 46.0151 29.76C47.0871 30.32 47.9271 31.096 48.5351 32.088C49.1431 33.08 49.4471 34.232 49.4471 35.544C49.4471 36.824 49.1431 37.968 48.5351 38.976C47.9271 39.968 47.0871 40.752 46.0151 41.328C44.9431 41.904 43.7271 42.192 42.3671 42.192ZM42.3671 39.12C42.9911 39.12 43.5511 38.976 44.0471 38.688C44.5431 38.4 44.9351 37.992 45.2231 37.464C45.5111 36.92 45.6551 36.28 45.6551 35.544C45.6551 34.792 45.5111 34.152 45.2231 33.624C44.9351 33.096 44.5431 32.688 44.0471 32.4C43.5511 32.112 42.9911 31.968 42.3671 31.968C41.7431 31.968 41.1831 32.112 40.6871 32.4C40.1911 32.688 39.7911 33.096 39.4871 33.624C39.1991 34.152 39.0551 34.792 39.0551 35.544C39.0551 36.28 39.1991 36.92 39.4871 37.464C39.7911 37.992 40.1911 38.4 40.6871 38.688C41.1831 38.976 41.7431 39.12 42.3671 39.12ZM56.6358 42.24C55.6438 42.24 54.6518 42.136 53.6598 41.928C52.6838 41.72 51.7798 41.408 50.9478 40.992L51.9558 38.376C52.6118 38.696 53.3238 38.944 54.0918 39.12C54.8758 39.28 55.6678 39.36 56.4678 39.36C57.0438 39.36 57.5398 39.304 57.9558 39.192C58.3878 39.064 58.7158 38.888 58.9398 38.664C59.1638 38.44 59.2758 38.168 59.2758 37.848C59.2758 37.432 59.0998 37.12 58.7478 36.912C58.3958 36.688 57.8838 36.576 57.2118 36.576H54.5718V34.248H56.8998C57.3318 34.248 57.6998 34.2 58.0038 34.104C58.3078 34.008 58.5318 33.872 58.6758 33.696C58.8358 33.504 58.9158 33.28 58.9158 33.024C58.9158 32.752 58.8198 32.52 58.6278 32.328C58.4358 32.136 58.1558 31.992 57.7878 31.896C57.4198 31.784 56.9558 31.728 56.3958 31.728C55.7558 31.728 55.0918 31.808 54.4038 31.968C53.7158 32.112 53.0118 32.328 52.2918 32.616L51.3798 30.024C52.2278 29.672 53.0678 29.392 53.8998 29.184C54.7318 28.976 55.5558 28.864 56.3718 28.848C57.5718 28.816 58.6518 28.944 59.6118 29.232C60.5718 29.52 61.3238 29.936 61.8678 30.48C62.4278 31.024 62.7078 31.688 62.7078 32.472C62.7078 33.096 62.5158 33.656 62.1318 34.152C61.7638 34.648 61.2518 35.04 60.5958 35.328C59.9398 35.6 59.2038 35.736 58.3878 35.736L58.4838 34.992C59.9078 34.992 61.0278 35.28 61.8438 35.856C62.6598 36.416 63.0678 37.184 63.0678 38.16C63.0678 38.992 62.7798 39.72 62.2038 40.344C61.6438 40.952 60.8758 41.424 59.8998 41.76C58.9398 42.08 57.8518 42.24 56.6358 42.24ZM75.1044 40.32V32.16H70.8804L70.8084 33.816C70.7764 34.504 70.7364 35.16 70.6884 35.784C70.6404 36.408 70.5444 36.976 70.4004 37.488C70.2724 37.984 70.0804 38.408 69.8244 38.76C69.5684 39.096 69.2244 39.328 68.7924 39.456L65.0964 38.928C65.5604 38.928 65.9364 38.792 66.2244 38.52C66.5124 38.232 66.7364 37.84 66.8964 37.344C67.0564 36.832 67.1764 36.256 67.2564 35.616C67.3364 34.96 67.3924 34.272 67.4244 33.552L67.5924 29.088H78.8484V40.32H75.1044ZM64.6644 44.784V38.928H80.6964V44.784H77.2164V42H68.1444V44.784H64.6644ZM91.2605 42V39.48L91.0205 38.928V34.416C91.0205 33.616 90.7725 32.992 90.2765 32.544C89.7965 32.096 89.0525 31.872 88.0445 31.872C87.3565 31.872 86.6765 31.984 86.0045 32.208C85.3485 32.416 84.7885 32.704 84.3245 33.072L82.9805 30.456C83.6845 29.96 84.5325 29.576 85.5245 29.304C86.5165 29.032 87.5245 28.896 88.5485 28.896C90.5165 28.896 92.0445 29.36 93.1325 30.288C94.2205 31.216 94.7645 32.664 94.7645 34.632V42H91.2605ZM87.3245 42.192C86.3165 42.192 85.4525 42.024 84.7325 41.688C84.0125 41.336 83.4605 40.864 83.0765 40.272C82.6925 39.68 82.5005 39.016 82.5005 38.28C82.5005 37.512 82.6845 36.84 83.0525 36.264C83.4365 35.688 84.0365 35.24 84.8525 34.92C85.6685 34.584 86.7325 34.416 88.0445 34.416H91.4765V36.6H88.4525C87.5725 36.6 86.9645 36.744 86.6285 37.032C86.3085 37.32 86.1485 37.68 86.1485 38.112C86.1485 38.592 86.3325 38.976 86.7005 39.264C87.0845 39.536 87.6045 39.672 88.2605 39.672C88.8845 39.672 89.4445 39.528 89.9405 39.24C90.4365 38.936 90.7965 38.496 91.0205 37.92L91.5965 39.648C91.3245 40.48 90.8285 41.112 90.1085 41.544C89.3885 41.976 88.4605 42.192 87.3245 42.192ZM101.257 42V31.296L102.097 32.16H96.8889V29.088H109.345V32.16H104.137L104.977 31.296V42H101.257ZM118.805 33.216C120.501 33.232 121.789 33.616 122.669 34.368C123.565 35.104 124.013 36.152 124.013 37.512C124.013 38.936 123.509 40.048 122.501 40.848C121.493 41.632 120.093 42.024 118.301 42.024L111.821 42V29.088H115.541V33.216H118.805ZM117.965 39.36C118.685 39.376 119.237 39.224 119.621 38.904C120.005 38.584 120.197 38.104 120.197 37.464C120.197 36.824 120.005 36.368 119.621 36.096C119.237 35.808 118.685 35.656 117.965 35.64L115.541 35.616V39.36H117.965ZM134.109 42V29.088H146.949V42H143.205V31.32L144.045 32.16H136.989L137.829 31.32V42H134.109ZM157.066 42.192C155.69 42.192 154.466 41.904 153.394 41.328C152.338 40.752 151.498 39.968 150.874 38.976C150.266 37.968 149.962 36.824 149.962 35.544C149.962 34.248 150.266 33.104 150.874 32.112C151.498 31.104 152.338 30.32 153.394 29.76C154.466 29.184 155.69 28.896 157.066 28.896C158.426 28.896 159.642 29.184 160.714 29.76C161.786 30.32 162.626 31.096 163.234 32.088C163.842 33.08 164.146 34.232 164.146 35.544C164.146 36.824 163.842 37.968 163.234 38.976C162.626 39.968 161.786 40.752 160.714 41.328C159.642 41.904 158.426 42.192 157.066 42.192ZM157.066 39.12C157.69 39.12 158.25 38.976 158.746 38.688C159.242 38.4 159.634 37.992 159.922 37.464C160.21 36.92 160.354 36.28 160.354 35.544C160.354 34.792 160.21 34.152 159.922 33.624C159.634 33.096 159.242 32.688 158.746 32.4C158.25 32.112 157.69 31.968 157.066 31.968C156.442 31.968 155.882 32.112 155.386 32.4C154.89 32.688 154.49 33.096 154.186 33.624C153.898 34.152 153.754 34.792 153.754 35.544C153.754 36.28 153.898 36.92 154.186 37.464C154.49 37.992 154.89 38.4 155.386 38.688C155.882 38.976 156.442 39.12 157.066 39.12ZM173.514 42.192C172.042 42.192 170.746 41.904 169.626 41.328C168.522 40.752 167.666 39.968 167.058 38.976C166.45 37.968 166.146 36.824 166.146 35.544C166.146 34.248 166.442 33.104 167.034 32.112C167.642 31.104 168.466 30.32 169.506 29.76C170.546 29.184 171.722 28.896 173.034 28.896C174.298 28.896 175.434 29.168 176.442 29.712C177.466 30.24 178.274 31.008 178.866 32.016C179.458 33.008 179.754 34.2 179.754 35.592C179.754 35.736 179.746 35.904 179.73 36.096C179.714 36.272 179.698 36.44 179.682 36.6H169.194V34.416H177.714L176.274 35.064C176.274 34.392 176.138 33.808 175.866 33.312C175.594 32.816 175.218 32.432 174.738 32.16C174.258 31.872 173.698 31.728 173.058 31.728C172.418 31.728 171.85 31.872 171.354 32.16C170.874 32.432 170.498 32.824 170.226 33.336C169.954 33.832 169.818 34.424 169.818 35.112V35.688C169.818 36.392 169.97 37.016 170.274 37.56C170.594 38.088 171.034 38.496 171.594 38.784C172.17 39.056 172.842 39.192 173.61 39.192C174.298 39.192 174.898 39.088 175.41 38.88C175.938 38.672 176.418 38.36 176.85 37.944L178.842 40.104C178.25 40.776 177.506 41.296 176.61 41.664C175.714 42.016 174.682 42.192 173.514 42.192ZM187.331 42.24C186.339 42.24 185.347 42.136 184.355 41.928C183.379 41.72 182.475 41.408 181.643 40.992L182.651 38.376C183.307 38.696 184.019 38.944 184.787 39.12C185.571 39.28 186.363 39.36 187.163 39.36C187.739 39.36 188.235 39.304 188.651 39.192C189.083 39.064 189.411 38.888 189.635 38.664C189.859 38.44 189.971 38.168 189.971 37.848C189.971 37.432 189.795 37.12 189.443 36.912C189.091 36.688 188.579 36.576 187.907 36.576H185.267V34.248H187.595C188.027 34.248 188.395 34.2 188.699 34.104C189.003 34.008 189.227 33.872 189.371 33.696C189.531 33.504 189.611 33.28 189.611 33.024C189.611 32.752 189.515 32.52 189.323 32.328C189.131 32.136 188.851 31.992 188.483 31.896C188.115 31.784 187.651 31.728 187.091 31.728C186.451 31.728 185.787 31.808 185.099 31.968C184.411 32.112 183.707 32.328 182.987 32.616L182.075 30.024C182.923 29.672 183.763 29.392 184.595 29.184C185.427 28.976 186.251 28.864 187.067 28.848C188.267 28.816 189.347 28.944 190.307 29.232C191.267 29.52 192.019 29.936 192.563 30.48C193.123 31.024 193.403 31.688 193.403 32.472C193.403 33.096 193.211 33.656 192.827 34.152C192.459 34.648 191.947 35.04 191.291 35.328C190.635 35.6 189.899 35.736 189.083 35.736L189.179 34.992C190.603 34.992 191.723 35.28 192.539 35.856C193.355 36.416 193.763 37.184 193.763 38.16C193.763 38.992 193.475 39.72 192.899 40.344C192.339 40.952 191.571 41.424 190.595 41.76C189.635 42.08 188.547 42.24 187.331 42.24ZM205.799 40.32V32.16H201.575L201.503 33.816C201.471 34.504 201.431 35.16 201.383 35.784C201.335 36.408 201.239 36.976 201.095 37.488C200.967 37.984 200.775 38.408 200.519 38.76C200.263 39.096 199.919 39.328 199.487 39.456L195.791 38.928C196.255 38.928 196.631 38.792 196.919 38.52C197.207 38.232 197.431 37.84 197.591 37.344C197.751 36.832 197.871 36.256 197.951 35.616C198.031 34.96 198.087 34.272 198.119 33.552L198.287 29.088H209.543V40.32H205.799ZM195.359 44.784V38.928H211.391V44.784H207.911V42H198.839V44.784H195.359ZM223.372 42L219.052 35.88L222.1 34.08L227.788 42H223.372ZM214.228 42V29.088H217.972V42H214.228ZM216.868 37.104V34.104H221.38V37.104H216.868ZM222.46 35.976L218.956 35.592L223.492 29.088H227.476L222.46 35.976ZM231.131 46.848C230.459 46.848 229.795 46.744 229.139 46.536C228.483 46.328 227.947 46.04 227.531 45.672L228.899 43.008C229.187 43.264 229.515 43.464 229.883 43.608C230.267 43.752 230.643 43.824 231.011 43.824C231.539 43.824 231.955 43.696 232.259 43.44C232.579 43.2 232.867 42.792 233.123 42.216L233.795 40.632L234.083 40.224L238.715 29.088H242.315L236.483 42.792C236.067 43.832 235.587 44.648 235.043 45.24C234.515 45.832 233.923 46.248 233.267 46.488C232.627 46.728 231.915 46.848 231.131 46.848ZM233.339 42.504L227.579 29.088H231.443L235.907 39.888L233.339 42.504Z" fill="black" fill-opacity="0.9"/>
<path fill-rule="evenodd" clip-rule="evenodd" d="M266.397 38H242V36.0445H266.397V38Z" fill="url(#paint7_radial_688_343)" fill-opacity="0.9"/>
<path d="M270.603 33.1112C270.603 33.7532 270.494 34.3889 270.283 34.9821C270.072 35.5752 269.762 36.1141 269.371 36.5681C268.981 37.0221 268.517 37.3822 268.007 37.6279C267.496 37.8735 266.949 38 266.397 38V36.0445C266.728 36.0445 267.056 35.9686 267.363 35.8212C267.669 35.6738 267.947 35.4577 268.181 35.1853C268.416 34.913 268.602 34.5896 268.729 34.2337C268.855 33.8778 268.921 33.4964 268.921 33.1112H270.603Z" fill="url(#paint8_radial_688_343)" fill-opacity="0.9"/>
<path d="M268.921 33.1112C268.921 32.4692 269.029 31.8335 269.241 31.2403C269.452 30.6472 269.762 30.1083 270.153 29.6543C270.543 29.2003 271.007 28.8402 271.517 28.5946C272.028 28.3489 272.575 28.2224 273.127 28.2224V30.1779C272.796 30.1779 272.467 30.2538 272.161 30.4012C271.855 30.5486 271.577 30.7647 271.342 31.0371C271.108 31.3094 270.922 31.6328 270.795 31.9887C270.668 32.3446 270.603 32.726 270.603 33.1112H268.921Z" fill="url(#paint9_radial_688_343)" fill-opacity="0.9"/>
<path fill-rule="evenodd" clip-rule="evenodd" d="M289.4 22.2864L294.754 28.5088C295.082 28.8906 295.082 29.5097 294.754 29.8916L289.4 36.114C289.071 36.4958 288.539 36.4958 288.21 36.114C287.882 35.7321 287.882 35.113 288.21 34.7312L292.128 30.1779L273.127 30.1779V28.2224L292.128 28.2224L288.21 23.6691C287.882 23.2873 287.882 22.6682 288.21 22.2864C288.539 21.9045 289.071 21.9045 289.4 22.2864Z" fill="url(#paint10_radial_688_343)" fill-opacity="0.9"/>
<path d="M314.397 44.3083L313.837 43.191L313.837 43.191L314.397 44.3083ZM313.603 44.3083L313.042 45.4257L313.042 45.4257L313.603 44.3083ZM323.833 30.2498C323.833 33.8963 321.908 36.8602 319.61 39.0984C317.316 41.333 314.772 42.7219 313.837 43.191L314.957 45.4257C316.002 44.902 318.8 43.3775 321.355 40.8891C323.905 38.4042 326.333 34.8352 326.333 30.2498H323.833ZM314 20.4165C319.431 20.4165 323.833 24.819 323.833 30.2498H326.333C326.333 23.4383 320.811 17.9165 314 17.9165V20.4165ZM304.167 30.2498C304.167 24.819 308.569 20.4165 314 20.4165V17.9165C307.188 17.9165 301.667 23.4383 301.667 30.2498H304.167ZM314.163 43.191C313.227 42.7219 310.683 41.333 308.389 39.0984C306.092 36.8602 304.167 33.8963 304.167 30.2498H301.667C301.667 34.8352 304.094 38.4042 306.645 40.8891C309.199 43.3775 311.998 44.902 313.042 45.4257L314.163 43.191ZM313.837 43.191C313.879 43.17 313.935 43.1541 314 43.1541C314.065 43.1541 314.121 43.17 314.163 43.191L313.042 45.4257C313.65 45.7302 314.35 45.7302 314.957 45.4257L313.837 43.191ZM317.5 30.2498C317.5 32.1828 315.933 33.7498 314 33.7498V36.2498C317.314 36.2498 320 33.5635 320 30.2498H317.5ZM314 26.7498C315.933 26.7498 317.5 28.3168 317.5 30.2498H320C320 26.9361 317.314 24.2498 314 24.2498V26.7498ZM310.5 30.2498C310.5 28.3168 312.067 26.7498 314 26.7498V24.2498C310.686 24.2498 308 26.9361 308 30.2498H310.5ZM314 33.7498C312.067 33.7498 310.5 32.1828 310.5 30.2498H308C308 33.5635 310.686 36.2498 314 36.2498V33.7498Z" fill="black" fill-opacity="0.85"/>
<path d="M326.341 43.7085C327.592 44.4306 328.25 45.2497 328.25 46.0835C328.25 46.9173 327.592 47.7364 326.341 48.4585C325.09 49.1806 323.291 49.7802 321.125 50.1971C318.959 50.614 316.501 50.8335 314 50.8335C311.499 50.8335 309.041 50.614 306.875 50.1971C304.709 49.7802 302.91 49.1806 301.659 48.4585C300.408 47.7364 299.75 46.9173 299.75 46.0835C299.75 45.2497 300.408 44.4306 301.659 43.7085" stroke="black" stroke-opacity="0.85" stroke-width="2.5" stroke-linecap="round"/>
</g>
<rect x="0.5" y="0.5" width="349" height="69" rx="34.5" stroke="url(#paint11_linear_688_343)"/>
<defs>
<filter id="filter0_f_688_343" x="-22.2759" y="-60.165" width="403.184" height="218.132" filterUnits="userSpaceOnUse" color-interpolation-filters="sRGB">
<feFlood flood-opacity="0" result="BackgroundImageFix"/>
<feBlend mode="normal" in="SourceGraphic" in2="BackgroundImageFix" result="shape"/>
<feGaussianBlur stdDeviation="25" result="effect1_foregroundBlur_688_343"/>
</filter>
<filter id="filter1_f_688_343" x="-240.195" y="-115.465" width="403.419" height="252.532" filterUnits="userSpaceOnUse" color-interpolation-filters="sRGB">
<feFlood flood-opacity="0" result="BackgroundImageFix"/>
<feBlend mode="normal" in="SourceGraphic" in2="BackgroundImageFix" result="shape"/>
<feGaussianBlur stdDeviation="25" result="effect1_foregroundBlur_688_343"/>
</filter>
<radialGradient id="paint0_radial_688_343" cx="0" cy="0" r="1" gradientUnits="userSpaceOnUse" gradientTransform="translate(463.612 47.2012) rotate(-28.8635) scale(786.163 322.242)">
<stop stop-color="#96F06C"/>
<stop offset="1" stop-color="#00A5C9"/>
</radialGradient>
<radialGradient id="paint1_radial_688_343" cx="0" cy="0" r="1" gradientUnits="userSpaceOnUse" gradientTransform="translate(754.612 64.2013) rotate(135.905) scale(313.287 4337.83)">
<stop stop-color="#51FAB3"/>
<stop offset="0.8629" stop-color="#00FF94" stop-opacity="0"/>
</radialGradient>
<linearGradient id="paint2_linear_688_343" x1="582.112" y1="-4.79882" x2="610.612" y2="326.201" gradientUnits="userSpaceOnUse">
<stop stop-color="#0CD3FF"/>
<stop offset="1" stop-color="#1CD08F" stop-opacity="0"/>
</linearGradient>
<linearGradient id="paint3_linear_688_343" x1="1320.11" y1="-4.79896" x2="967.112" y2="112.701" gradientUnits="userSpaceOnUse">
<stop stop-color="#00FFA3"/>
<stop offset="0.0001" stop-color="#00FFA3"/>
<stop offset="0.95625" stop-color="#00FEA3" stop-opacity="0"/>
</linearGradient>
<radialGradient id="paint4_radial_688_343" cx="0" cy="0" r="1" gradientUnits="userSpaceOnUse" gradientTransform="translate(356.112 684.701) rotate(8.91309) scale(300.124 4155.57)">
<stop offset="0.0207011" stop-color="#6CF0A1"/>
<stop offset="1" stop-opacity="0"/>
</radialGradient>
<radialGradient id="paint5_radial_688_343" cx="0" cy="0" r="1" gradientUnits="userSpaceOnUse" gradientTransform="translate(179.316 48.9012) rotate(90) scale(56.4656 152.571)">
<stop stop-color="#3F93A6" stop-opacity="0.6"/>
<stop offset="1" stop-color="#186586" stop-opacity="0"/>
</radialGradient>
<radialGradient id="paint6_radial_688_343" cx="0" cy="0" r="1" gradientUnits="userSpaceOnUse" gradientTransform="translate(-38.4852 10.801) rotate(90) scale(74.5 152.571)">
<stop stop-color="#96F06C" stop-opacity="0.6"/>
<stop offset="1" stop-color="#96F06C" stop-opacity="0"/>
</radialGradient>
<radialGradient id="paint7_radial_688_343" cx="0" cy="0" r="1" gradientUnits="userSpaceOnUse" gradientTransform="translate(295.841 29.8221) rotate(180) scale(48.373 216.447)">
<stop/>
<stop offset="0.348787" stop-opacity="0.9"/>
<stop offset="1" stop-opacity="0"/>
</radialGradient>
<radialGradient id="paint8_radial_688_343" cx="0" cy="0" r="1" gradientUnits="userSpaceOnUse" gradientTransform="translate(295.841 29.8221) rotate(180) scale(48.373 216.447)">
<stop/>
<stop offset="0.348787" stop-opacity="0.9"/>
<stop offset="1" stop-opacity="0"/>
</radialGradient>
<radialGradient id="paint9_radial_688_343" cx="0" cy="0" r="1" gradientUnits="userSpaceOnUse" gradientTransform="translate(295.841 29.8221) rotate(180) scale(48.373 216.447)">
<stop/>
<stop offset="0.348787" stop-opacity="0.9"/>
<stop offset="1" stop-opacity="0"/>
</radialGradient>
<radialGradient id="paint10_radial_688_343" cx="0" cy="0" r="1" gradientUnits="userSpaceOnUse" gradientTransform="translate(295.841 29.8221) rotate(180) scale(48.373 216.447)">
<stop/>
<stop offset="0.348787" stop-opacity="0.9"/>
<stop offset="1" stop-opacity="0"/>
</radialGradient>
<linearGradient id="paint11_linear_688_343" x1="175" y1="0" x2="175" y2="70" gradientUnits="userSpaceOnUse">
<stop stop-opacity="0.9"/>
<stop offset="1" stop-opacity="0.5"/>
</linearGradient>
<clipPath id="clip0_688_343">
<rect width="350" height="70" rx="35" fill="white"/>
</clipPath>
</defs>
</svg>
