<svg width="238" height="40" viewBox="0 0 238 40" fill="none" xmlns="http://www.w3.org/2000/svg">
<rect width="238" height="40" rx="20" fill="#4ED7C6"/>
<path d="M33.36 26.24C32.28 26.24 31.2733 26.0667 30.34 25.72C29.42 25.36 28.62 24.8533 27.94 24.2C27.26 23.5467 26.7267 22.78 26.34 21.9C25.9667 21.02 25.78 20.0533 25.78 19C25.78 17.9467 25.9667 16.98 26.34 16.1C26.7267 15.22 27.26 14.4533 27.94 13.8C28.6333 13.1467 29.44 12.6467 30.36 12.3C31.28 11.94 32.2867 11.76 33.38 11.76C34.5933 11.76 35.6867 11.9733 36.66 12.4C37.6467 12.8133 38.4733 13.4267 39.14 14.24L37.06 16.16C36.58 15.6133 36.0467 15.2067 35.46 14.94C34.8733 14.66 34.2333 14.52 33.54 14.52C32.8867 14.52 32.2867 14.6267 31.74 14.84C31.1933 15.0533 30.72 15.36 30.32 15.76C29.92 16.16 29.6067 16.6333 29.38 17.18C29.1667 17.7267 29.06 18.3333 29.06 19C29.06 19.6667 29.1667 20.2733 29.38 20.82C29.6067 21.3667 29.92 21.84 30.32 22.24C30.72 22.64 31.1933 22.9467 31.74 23.16C32.2867 23.3733 32.8867 23.48 33.54 23.48C34.2333 23.48 34.8733 23.3467 35.46 23.08C36.0467 22.8 36.58 22.38 37.06 21.82L39.14 23.74C38.4733 24.5533 37.6467 25.1733 36.66 25.6C35.6867 26.0267 34.5867 26.24 33.36 26.24ZM46.0806 26.16C44.934 26.16 43.914 25.92 43.0206 25.44C42.1406 24.96 41.4406 24.3067 40.9206 23.48C40.414 22.64 40.1606 21.6867 40.1606 20.62C40.1606 19.54 40.414 18.5867 40.9206 17.76C41.4406 16.92 42.1406 16.2667 43.0206 15.8C43.914 15.32 44.934 15.08 46.0806 15.08C47.214 15.08 48.2273 15.32 49.1206 15.8C50.014 16.2667 50.714 16.9133 51.2206 17.74C51.7273 18.5667 51.9806 19.5267 51.9806 20.62C51.9806 21.6867 51.7273 22.64 51.2206 23.48C50.714 24.3067 50.014 24.96 49.1206 25.44C48.2273 25.92 47.214 26.16 46.0806 26.16ZM46.0806 23.6C46.6006 23.6 47.0673 23.48 47.4806 23.24C47.894 23 48.2206 22.66 48.4606 22.22C48.7006 21.7667 48.8206 21.2333 48.8206 20.62C48.8206 19.9933 48.7006 19.46 48.4606 19.02C48.2206 18.58 47.894 18.24 47.4806 18C47.0673 17.76 46.6006 17.64 46.0806 17.64C45.5606 17.64 45.094 17.76 44.6806 18C44.2673 18.24 43.934 18.58 43.6806 19.02C43.4406 19.46 43.3206 19.9933 43.3206 20.62C43.3206 21.2333 43.4406 21.7667 43.6806 22.22C43.934 22.66 44.2673 23 44.6806 23.24C45.094 23.48 45.5606 23.6 46.0806 23.6ZM57.9712 26.2C57.1446 26.2 56.3179 26.1133 55.4912 25.94C54.6779 25.7667 53.9246 25.5067 53.2312 25.16L54.0712 22.98C54.6179 23.2467 55.2112 23.4533 55.8512 23.6C56.5046 23.7333 57.1646 23.8 57.8312 23.8C58.3112 23.8 58.7246 23.7533 59.0712 23.66C59.4312 23.5533 59.7046 23.4067 59.8912 23.22C60.0779 23.0333 60.1712 22.8067 60.1712 22.54C60.1712 22.1933 60.0246 21.9333 59.7312 21.76C59.4379 21.5733 59.0112 21.48 58.4512 21.48H56.2512V19.54H58.1912C58.5512 19.54 58.8579 19.5 59.1112 19.42C59.3646 19.34 59.5512 19.2267 59.6712 19.08C59.8046 18.92 59.8712 18.7333 59.8712 18.52C59.8712 18.2933 59.7912 18.1 59.6312 17.94C59.4712 17.78 59.2379 17.66 58.9312 17.58C58.6246 17.4867 58.2379 17.44 57.7712 17.44C57.2379 17.44 56.6846 17.5067 56.1112 17.64C55.5379 17.76 54.9512 17.94 54.3512 18.18L53.5912 16.02C54.2979 15.7267 54.9979 15.4933 55.6912 15.32C56.3846 15.1467 57.0712 15.0533 57.7512 15.04C58.7512 15.0133 59.6512 15.12 60.4512 15.36C61.2512 15.6 61.8779 15.9467 62.3312 16.4C62.7979 16.8533 63.0313 17.4067 63.0313 18.06C63.0313 18.58 62.8713 19.0467 62.5512 19.46C62.2446 19.8733 61.8179 20.2 61.2712 20.44C60.7246 20.6667 60.1112 20.78 59.4312 20.78L59.5112 20.16C60.6979 20.16 61.6312 20.4 62.3112 20.88C62.9912 21.3467 63.3312 21.9867 63.3312 22.8C63.3312 23.4933 63.0912 24.1 62.6112 24.62C62.1446 25.1267 61.5046 25.52 60.6912 25.8C59.8912 26.0667 58.9846 26.2 57.9712 26.2ZM73.3617 24.6V17.8H69.8417L69.7817 19.18C69.7551 19.7533 69.7217 20.3 69.6817 20.82C69.6417 21.34 69.5617 21.8133 69.4417 22.24C69.3351 22.6533 69.1751 23.0067 68.9617 23.3C68.7484 23.58 68.4617 23.7733 68.1017 23.88L65.0217 23.44C65.4084 23.44 65.7217 23.3267 65.9617 23.1C66.2017 22.86 66.3884 22.5333 66.5217 22.12C66.6551 21.6933 66.7551 21.2133 66.8217 20.68C66.8884 20.1333 66.9351 19.56 66.9617 18.96L67.1017 15.24H76.4817V24.6H73.3617ZM64.6617 28.32V23.44H78.0217V28.32H75.1217V26H67.5617V28.32H64.6617ZM86.8252 26V23.9L86.6252 23.44V19.68C86.6252 19.0133 86.4185 18.4933 86.0052 18.12C85.6052 17.7467 84.9852 17.56 84.1452 17.56C83.5718 17.56 83.0052 17.6533 82.4452 17.84C81.8985 18.0133 81.4318 18.2533 81.0452 18.56L79.9252 16.38C80.5118 15.9667 81.2185 15.6467 82.0452 15.42C82.8718 15.1933 83.7118 15.08 84.5652 15.08C86.2052 15.08 87.4785 15.4667 88.3852 16.24C89.2918 17.0133 89.7452 18.22 89.7452 19.86V26H86.8252ZM83.5452 26.16C82.7052 26.16 81.9852 26.02 81.3852 25.74C80.7852 25.4467 80.3252 25.0533 80.0052 24.56C79.6852 24.0667 79.5252 23.5133 79.5252 22.9C79.5252 22.26 79.6785 21.7 79.9852 21.22C80.3052 20.74 80.8052 20.3667 81.4852 20.1C82.1652 19.82 83.0518 19.68 84.1452 19.68H87.0052V21.5H84.4852C83.7518 21.5 83.2452 21.62 82.9652 21.86C82.6985 22.1 82.5652 22.4 82.5652 22.76C82.5652 23.16 82.7185 23.48 83.0252 23.72C83.3452 23.9467 83.7785 24.06 84.3252 24.06C84.8452 24.06 85.3118 23.94 85.7252 23.7C86.1385 23.4467 86.4385 23.08 86.6252 22.6L87.1052 24.04C86.8785 24.7333 86.4652 25.26 85.8652 25.62C85.2652 25.98 84.4918 26.16 83.5452 26.16ZM95.1555 26V17.08L95.8555 17.8H91.5155V15.24H101.895V17.8H97.5555L98.2555 17.08V26H95.1555ZM109.779 18.68C111.192 18.6933 112.265 19.0133 112.999 19.64C113.745 20.2533 114.119 21.1267 114.119 22.26C114.119 23.4467 113.699 24.3733 112.859 25.04C112.019 25.6933 110.852 26.02 109.359 26.02L103.959 26V15.24H107.059V18.68H109.779ZM109.079 23.8C109.679 23.8133 110.139 23.6867 110.459 23.42C110.779 23.1533 110.939 22.7533 110.939 22.22C110.939 21.6867 110.779 21.3067 110.459 21.08C110.139 20.84 109.679 20.7133 109.079 20.7L107.059 20.68V23.8H109.079ZM122.532 26V15.24H133.232V26H130.112V17.1L130.812 17.8H124.932L125.632 17.1V26H122.532ZM141.663 26.16C140.517 26.16 139.497 25.92 138.603 25.44C137.723 24.96 137.023 24.3067 136.503 23.48C135.997 22.64 135.743 21.6867 135.743 20.62C135.743 19.54 135.997 18.5867 136.503 17.76C137.023 16.92 137.723 16.2667 138.603 15.8C139.497 15.32 140.517 15.08 141.663 15.08C142.797 15.08 143.81 15.32 144.703 15.8C145.597 16.2667 146.297 16.9133 146.803 17.74C147.31 18.5667 147.563 19.5267 147.563 20.62C147.563 21.6867 147.31 22.64 146.803 23.48C146.297 24.3067 145.597 24.96 144.703 25.44C143.81 25.92 142.797 26.16 141.663 26.16ZM141.663 23.6C142.183 23.6 142.65 23.48 143.063 23.24C143.477 23 143.803 22.66 144.043 22.22C144.283 21.7667 144.403 21.2333 144.403 20.62C144.403 19.9933 144.283 19.46 144.043 19.02C143.803 18.58 143.477 18.24 143.063 18C142.65 17.76 142.183 17.64 141.663 17.64C141.143 17.64 140.677 17.76 140.263 18C139.85 18.24 139.517 18.58 139.263 19.02C139.023 19.46 138.903 19.9933 138.903 20.62C138.903 21.2333 139.023 21.7667 139.263 22.22C139.517 22.66 139.85 23 140.263 23.24C140.677 23.48 141.143 23.6 141.663 23.6ZM155.369 26.16C154.143 26.16 153.063 25.92 152.129 25.44C151.209 24.96 150.496 24.3067 149.989 23.48C149.483 22.64 149.229 21.6867 149.229 20.62C149.229 19.54 149.476 18.5867 149.969 17.76C150.476 16.92 151.163 16.2667 152.029 15.8C152.896 15.32 153.876 15.08 154.969 15.08C156.023 15.08 156.969 15.3067 157.809 15.76C158.663 16.2 159.336 16.84 159.829 17.68C160.323 18.5067 160.569 19.5 160.569 20.66C160.569 20.78 160.563 20.92 160.549 21.08C160.536 21.2267 160.523 21.3667 160.509 21.5H151.769V19.68H158.869L157.669 20.22C157.669 19.66 157.556 19.1733 157.329 18.76C157.103 18.3467 156.789 18.0267 156.389 17.8C155.989 17.56 155.523 17.44 154.989 17.44C154.456 17.44 153.983 17.56 153.569 17.8C153.169 18.0267 152.856 18.3533 152.629 18.78C152.403 19.1933 152.289 19.6867 152.289 20.26V20.74C152.289 21.3267 152.416 21.8467 152.669 22.3C152.936 22.74 153.303 23.08 153.769 23.32C154.249 23.5467 154.809 23.66 155.449 23.66C156.023 23.66 156.523 23.5733 156.949 23.4C157.389 23.2267 157.789 22.9667 158.149 22.62L159.809 24.42C159.316 24.98 158.696 25.4133 157.949 25.72C157.203 26.0133 156.343 26.16 155.369 26.16ZM166.884 26.2C166.057 26.2 165.23 26.1133 164.404 25.94C163.59 25.7667 162.837 25.5067 162.144 25.16L162.984 22.98C163.53 23.2467 164.124 23.4533 164.764 23.6C165.417 23.7333 166.077 23.8 166.744 23.8C167.224 23.8 167.637 23.7533 167.984 23.66C168.344 23.5533 168.617 23.4067 168.804 23.22C168.99 23.0333 169.084 22.8067 169.084 22.54C169.084 22.1933 168.937 21.9333 168.644 21.76C168.35 21.5733 167.924 21.48 167.364 21.48H165.164V19.54H167.104C167.464 19.54 167.77 19.5 168.024 19.42C168.277 19.34 168.464 19.2267 168.584 19.08C168.717 18.92 168.784 18.7333 168.784 18.52C168.784 18.2933 168.704 18.1 168.544 17.94C168.384 17.78 168.15 17.66 167.844 17.58C167.537 17.4867 167.15 17.44 166.684 17.44C166.15 17.44 165.597 17.5067 165.024 17.64C164.45 17.76 163.864 17.94 163.264 18.18L162.504 16.02C163.21 15.7267 163.91 15.4933 164.604 15.32C165.297 15.1467 165.984 15.0533 166.664 15.04C167.664 15.0133 168.564 15.12 169.364 15.36C170.164 15.6 170.79 15.9467 171.244 16.4C171.71 16.8533 171.944 17.4067 171.944 18.06C171.944 18.58 171.784 19.0467 171.464 19.46C171.157 19.8733 170.73 20.2 170.184 20.44C169.637 20.6667 169.024 20.78 168.344 20.78L168.424 20.16C169.61 20.16 170.544 20.4 171.224 20.88C171.904 21.3467 172.244 21.9867 172.244 22.8C172.244 23.4933 172.004 24.1 171.524 24.62C171.057 25.1267 170.417 25.52 169.604 25.8C168.804 26.0667 167.897 26.2 166.884 26.2ZM182.274 24.6V17.8H178.754L178.694 19.18C178.668 19.7533 178.634 20.3 178.594 20.82C178.554 21.34 178.474 21.8133 178.354 22.24C178.248 22.6533 178.088 23.0067 177.874 23.3C177.661 23.58 177.374 23.7733 177.014 23.88L173.934 23.44C174.321 23.44 174.634 23.3267 174.874 23.1C175.114 22.86 175.301 22.5333 175.434 22.12C175.568 21.6933 175.668 21.2133 175.734 20.68C175.801 20.1333 175.848 19.56 175.874 18.96L176.014 15.24H185.394V24.6H182.274ZM173.574 28.32V23.44H186.934V28.32H184.034V26H176.474V28.32H173.574ZM196.918 26L193.318 20.9L195.858 19.4L200.598 26H196.918ZM189.298 26V15.24H192.418V26H189.298ZM191.498 21.92V19.42H195.258V21.92H191.498ZM196.158 20.98L193.238 20.66L197.018 15.24H200.338L196.158 20.98ZM203.384 30.04C202.824 30.04 202.271 29.9533 201.724 29.78C201.178 29.6067 200.731 29.3667 200.384 29.06L201.524 26.84C201.764 27.0533 202.038 27.22 202.344 27.34C202.664 27.46 202.978 27.52 203.284 27.52C203.724 27.52 204.071 27.4133 204.324 27.2C204.591 27 204.831 26.66 205.044 26.18L205.604 24.86L205.844 24.52L209.704 15.24H212.704L207.844 26.66C207.498 27.5267 207.098 28.2067 206.644 28.7C206.204 29.1933 205.711 29.54 205.164 29.74C204.631 29.94 204.038 30.04 203.384 30.04ZM205.224 26.42L200.424 15.24H203.644L207.364 24.24L205.224 26.42Z" fill="black"/>
</svg>
