<svg width="268" height="48" viewBox="0 0 268 48" fill="none" xmlns="http://www.w3.org/2000/svg">
<g clip-path="url(#clip0_726_1547)">
<rect width="575.033" height="47.0529" transform="matrix(-1 0 0 1 575.002 0.478516)" fill="url(#paint0_radial_726_1547)" fill-opacity="0.8"/>
<rect width="575.033" height="47.0529" transform="matrix(-1 0 0 1 575.002 0.478516)" fill="url(#paint1_radial_726_1547)" fill-opacity="0.44"/>
<rect width="575.033" height="47.0529" transform="matrix(-1 0 0 1 575.002 0.478516)" fill="url(#paint2_linear_726_1547)" fill-opacity="0.2"/>
<rect width="575.033" height="47.0529" transform="matrix(-1 0 0 1 575.002 0.478516)" fill="url(#paint3_linear_726_1547)" fill-opacity="0.4"/>
<rect width="575.033" height="47.0529" transform="matrix(-1 0 0 1 575.002 0.478516)" fill="url(#paint4_radial_726_1547)" fill-opacity="0.2"/>
<g filter="url(#filter0_f_726_1547)">
<ellipse cx="42.8966" cy="49.6954" rx="42.8966" ry="49.6954" transform="matrix(-0.999907 0.0136055 0.0105995 0.999944 125.946 -53)" fill="url(#paint5_radial_726_1547)" fill-opacity="0.7"/>
</g>
<path d="M24.296 29.128C23.368 29.128 22.5413 28.9413 21.816 28.568C21.0907 28.184 20.52 27.656 20.104 26.984C19.6987 26.312 19.496 25.5493 19.496 24.696C19.496 23.832 19.6987 23.0693 20.104 22.408C20.52 21.736 21.0907 21.2133 21.816 20.84C22.5413 20.456 23.368 20.264 24.296 20.264C25.2027 20.264 25.992 20.456 26.664 20.84C27.336 21.2133 27.832 21.752 28.152 22.456L26.216 23.496C25.992 23.0907 25.7093 22.792 25.368 22.6C25.0373 22.408 24.6747 22.312 24.28 22.312C23.8533 22.312 23.4693 22.408 23.128 22.6C22.7867 22.792 22.5147 23.064 22.312 23.416C22.12 23.768 22.024 24.1947 22.024 24.696C22.024 25.1973 22.12 25.624 22.312 25.976C22.5147 26.328 22.7867 26.6 23.128 26.792C23.4693 26.984 23.8533 27.08 24.28 27.08C24.6747 27.08 25.0373 26.9893 25.368 26.808C25.7093 26.616 25.992 26.312 26.216 25.896L28.152 26.952C27.832 27.6453 27.336 28.184 26.664 28.568C25.992 28.9413 25.2027 29.128 24.296 29.128ZM33.9114 29.128C32.994 29.128 32.178 28.936 31.4634 28.552C30.7594 28.168 30.1994 27.6453 29.7834 26.984C29.378 26.312 29.1754 25.5493 29.1754 24.696C29.1754 23.832 29.378 23.0693 29.7834 22.408C30.1994 21.736 30.7594 21.2133 31.4634 20.84C32.178 20.456 32.994 20.264 33.9114 20.264C34.818 20.264 35.6287 20.456 36.3434 20.84C37.058 21.2133 37.618 21.7307 38.0234 22.392C38.4287 23.0533 38.6314 23.8213 38.6314 24.696C38.6314 25.5493 38.4287 26.312 38.0234 26.984C37.618 27.6453 37.058 28.168 36.3434 28.552C35.6287 28.936 34.818 29.128 33.9114 29.128ZM33.9114 27.08C34.3274 27.08 34.7007 26.984 35.0314 26.792C35.362 26.6 35.6234 26.328 35.8154 25.976C36.0074 25.6133 36.1034 25.1867 36.1034 24.696C36.1034 24.1947 36.0074 23.768 35.8154 23.416C35.6234 23.064 35.362 22.792 35.0314 22.6C34.7007 22.408 34.3274 22.312 33.9114 22.312C33.4954 22.312 33.122 22.408 32.7914 22.6C32.4607 22.792 32.194 23.064 31.9914 23.416C31.7994 23.768 31.7034 24.1947 31.7034 24.696C31.7034 25.1867 31.7994 25.6133 31.9914 25.976C32.194 26.328 32.4607 26.6 32.7914 26.792C33.122 26.984 33.4954 27.08 33.9114 27.08ZM43.4239 29.16C42.7625 29.16 42.1012 29.0907 41.4399 28.952C40.7892 28.8133 40.1865 28.6053 39.6319 28.328L40.3039 26.584C40.7412 26.7973 41.2159 26.9627 41.7279 27.08C42.2505 27.1867 42.7785 27.24 43.3119 27.24C43.6959 27.24 44.0265 27.2027 44.3039 27.128C44.5919 27.0427 44.8105 26.9253 44.9599 26.776C45.1092 26.6267 45.1839 26.4453 45.1839 26.232C45.1839 25.9547 45.0665 25.7467 44.8319 25.608C44.5972 25.4587 44.2559 25.384 43.8079 25.384H42.0479V23.832H43.5999C43.8879 23.832 44.1332 23.8 44.3359 23.736C44.5385 23.672 44.6879 23.5813 44.7839 23.464C44.8905 23.336 44.9439 23.1867 44.9439 23.016C44.9439 22.8347 44.8799 22.68 44.7519 22.552C44.6239 22.424 44.4372 22.328 44.1919 22.264C43.9465 22.1893 43.6372 22.152 43.2639 22.152C42.8372 22.152 42.3945 22.2053 41.9359 22.312C41.4772 22.408 41.0079 22.552 40.5279 22.744L39.9199 21.016C40.4852 20.7813 41.0452 20.5947 41.5999 20.456C42.1545 20.3173 42.7039 20.2427 43.2479 20.232C44.0479 20.2107 44.7679 20.296 45.4079 20.488C46.0479 20.68 46.5492 20.9573 46.9119 21.32C47.2852 21.6827 47.4719 22.1253 47.4719 22.648C47.4719 23.064 47.3439 23.4373 47.0879 23.768C46.8425 24.0987 46.5012 24.36 46.0639 24.552C45.6265 24.7333 45.1359 24.824 44.5919 24.824L44.6559 24.328C45.6052 24.328 46.3519 24.52 46.8959 24.904C47.4399 25.2773 47.7119 25.7893 47.7119 26.44C47.7119 26.9947 47.5199 27.48 47.1359 27.896C46.7625 28.3013 46.2505 28.616 45.5999 28.84C44.9599 29.0533 44.2345 29.16 43.4239 29.16ZM55.7362 27.88V22.44H52.9202L52.8722 23.544C52.8509 24.0027 52.8242 24.44 52.7922 24.856C52.7602 25.272 52.6962 25.6507 52.6002 25.992C52.5149 26.3227 52.3869 26.6053 52.2162 26.84C52.0456 27.064 51.8162 27.2187 51.5282 27.304L49.0642 26.952C49.3736 26.952 49.6242 26.8613 49.8162 26.68C50.0082 26.488 50.1576 26.2267 50.2642 25.896C50.3709 25.5547 50.4509 25.1707 50.5042 24.744C50.5576 24.3067 50.5949 23.848 50.6162 23.368L50.7282 20.392H58.2322V27.88H55.7362ZM48.7762 30.856V26.952H59.4642V30.856H57.1442V29H51.0962V30.856H48.7762ZM66.507 29V27.32L66.347 26.952V23.944C66.347 23.4107 66.1817 22.9947 65.851 22.696C65.531 22.3973 65.035 22.248 64.363 22.248C63.9043 22.248 63.451 22.3227 63.003 22.472C62.5657 22.6107 62.1923 22.8027 61.883 23.048L60.987 21.304C61.4563 20.9733 62.0217 20.7173 62.683 20.536C63.3443 20.3547 64.0163 20.264 64.699 20.264C66.011 20.264 67.0297 20.5733 67.755 21.192C68.4803 21.8107 68.843 22.776 68.843 24.088V29H66.507ZM63.883 29.128C63.211 29.128 62.635 29.016 62.155 28.792C61.675 28.5573 61.307 28.2427 61.051 27.848C60.795 27.4533 60.667 27.0107 60.667 26.52C60.667 26.008 60.7897 25.56 61.035 25.176C61.291 24.792 61.691 24.4933 62.235 24.28C62.779 24.056 63.4883 23.944 64.363 23.944H66.651V25.4H64.635C64.0483 25.4 63.643 25.496 63.419 25.688C63.2057 25.88 63.099 26.12 63.099 26.408C63.099 26.728 63.2217 26.984 63.467 27.176C63.723 27.3573 64.0697 27.448 64.507 27.448C64.923 27.448 65.2963 27.352 65.627 27.16C65.9577 26.9573 66.1977 26.664 66.347 26.28L66.731 27.432C66.5497 27.9867 66.219 28.408 65.739 28.696C65.259 28.984 64.6403 29.128 63.883 29.128ZM73.1712 29V21.864L73.7312 22.44H70.2592V20.392H78.5632V22.44H75.0912L75.6512 21.864V29H73.1712ZM84.8697 23.144C86.0004 23.1547 86.8591 23.4107 87.4457 23.912C88.0431 24.4027 88.3417 25.1013 88.3417 26.008C88.3417 26.9573 88.0057 27.6987 87.3337 28.232C86.6617 28.7547 85.7284 29.016 84.5337 29.016L80.2137 29V20.392H82.6937V23.144H84.8697ZM84.3097 27.24C84.7897 27.2507 85.1577 27.1493 85.4137 26.936C85.6697 26.7227 85.7977 26.4027 85.7977 25.976C85.7977 25.5493 85.6697 25.2453 85.4137 25.064C85.1577 24.872 84.7897 24.7707 84.3097 24.76L82.6937 24.744V27.24H84.3097ZM95.0725 29V20.392H103.632V29H101.136V21.88L101.696 22.44H96.9925L97.5525 21.88V29H95.0725ZM110.378 29.128C109.46 29.128 108.644 28.936 107.93 28.552C107.226 28.168 106.666 27.6453 106.25 26.984C105.844 26.312 105.642 25.5493 105.642 24.696C105.642 23.832 105.844 23.0693 106.25 22.408C106.666 21.736 107.226 21.2133 107.93 20.84C108.644 20.456 109.46 20.264 110.378 20.264C111.284 20.264 112.095 20.456 112.81 20.84C113.524 21.2133 114.084 21.7307 114.49 22.392C114.895 23.0533 115.098 23.8213 115.098 24.696C115.098 25.5493 114.895 26.312 114.49 26.984C114.084 27.6453 113.524 28.168 112.81 28.552C112.095 28.936 111.284 29.128 110.378 29.128ZM110.378 27.08C110.794 27.08 111.167 26.984 111.498 26.792C111.828 26.6 112.09 26.328 112.282 25.976C112.474 25.6133 112.57 25.1867 112.57 24.696C112.57 24.1947 112.474 23.768 112.282 23.416C112.09 23.064 111.828 22.792 111.498 22.6C111.167 22.408 110.794 22.312 110.378 22.312C109.962 22.312 109.588 22.408 109.258 22.6C108.927 22.792 108.66 23.064 108.458 23.416C108.266 23.768 108.17 24.1947 108.17 24.696C108.17 25.1867 108.266 25.6133 108.458 25.976C108.66 26.328 108.927 26.6 109.258 26.792C109.588 26.984 109.962 27.08 110.378 27.08ZM121.342 29.128C120.361 29.128 119.497 28.936 118.75 28.552C118.014 28.168 117.444 27.6453 117.038 26.984C116.633 26.312 116.43 25.5493 116.43 24.696C116.43 23.832 116.628 23.0693 117.022 22.408C117.428 21.736 117.977 21.2133 118.67 20.84C119.364 20.456 120.148 20.264 121.022 20.264C121.865 20.264 122.622 20.4453 123.294 20.808C123.977 21.16 124.516 21.672 124.91 22.344C125.305 23.0053 125.502 23.8 125.502 24.728C125.502 24.824 125.497 24.936 125.486 25.064C125.476 25.1813 125.465 25.2933 125.454 25.4H118.462V23.944H124.142L123.182 24.376C123.182 23.928 123.092 23.5387 122.91 23.208C122.729 22.8773 122.478 22.6213 122.158 22.44C121.838 22.248 121.465 22.152 121.038 22.152C120.612 22.152 120.233 22.248 119.902 22.44C119.582 22.6213 119.332 22.8827 119.15 23.224C118.969 23.5547 118.878 23.9493 118.878 24.408V24.792C118.878 25.2613 118.98 25.6773 119.182 26.04C119.396 26.392 119.689 26.664 120.062 26.856C120.446 27.0373 120.894 27.128 121.406 27.128C121.865 27.128 122.265 27.0587 122.606 26.92C122.958 26.7813 123.278 26.5733 123.566 26.296L124.894 27.736C124.5 28.184 124.004 28.5307 123.406 28.776C122.809 29.0107 122.121 29.128 121.342 29.128ZM130.554 29.16C129.893 29.16 129.231 29.0907 128.57 28.952C127.919 28.8133 127.317 28.6053 126.762 28.328L127.434 26.584C127.871 26.7973 128.346 26.9627 128.858 27.08C129.381 27.1867 129.909 27.24 130.442 27.24C130.826 27.24 131.157 27.2027 131.434 27.128C131.722 27.0427 131.941 26.9253 132.09 26.776C132.239 26.6267 132.314 26.4453 132.314 26.232C132.314 25.9547 132.197 25.7467 131.962 25.608C131.727 25.4587 131.386 25.384 130.938 25.384H129.178V23.832H130.73C131.018 23.832 131.263 23.8 131.466 23.736C131.669 23.672 131.818 23.5813 131.914 23.464C132.021 23.336 132.074 23.1867 132.074 23.016C132.074 22.8347 132.01 22.68 131.882 22.552C131.754 22.424 131.567 22.328 131.322 22.264C131.077 22.1893 130.767 22.152 130.394 22.152C129.967 22.152 129.525 22.2053 129.066 22.312C128.607 22.408 128.138 22.552 127.658 22.744L127.05 21.016C127.615 20.7813 128.175 20.5947 128.73 20.456C129.285 20.3173 129.834 20.2427 130.378 20.232C131.178 20.2107 131.898 20.296 132.538 20.488C133.178 20.68 133.679 20.9573 134.042 21.32C134.415 21.6827 134.602 22.1253 134.602 22.648C134.602 23.064 134.474 23.4373 134.218 23.768C133.973 24.0987 133.631 24.36 133.194 24.552C132.757 24.7333 132.266 24.824 131.722 24.824L131.786 24.328C132.735 24.328 133.482 24.52 134.026 24.904C134.57 25.2773 134.842 25.7893 134.842 26.44C134.842 26.9947 134.65 27.48 134.266 27.896C133.893 28.3013 133.381 28.616 132.73 28.84C132.09 29.0533 131.365 29.16 130.554 29.16ZM142.866 27.88V22.44H140.05L140.002 23.544C139.981 24.0027 139.954 24.44 139.922 24.856C139.89 25.272 139.826 25.6507 139.73 25.992C139.645 26.3227 139.517 26.6053 139.346 26.84C139.176 27.064 138.946 27.2187 138.658 27.304L136.194 26.952C136.504 26.952 136.754 26.8613 136.946 26.68C137.138 26.488 137.288 26.2267 137.394 25.896C137.501 25.5547 137.581 25.1707 137.634 24.744C137.688 24.3067 137.725 23.848 137.746 23.368L137.858 20.392H145.362V27.88H142.866ZM135.906 30.856V26.952H146.594V30.856H144.274V29H138.226V30.856H135.906ZM154.581 29L151.701 24.92L153.733 23.72L157.525 29H154.581ZM148.485 29V20.392H150.981V29H148.485ZM150.245 25.736V23.736H153.253V25.736H150.245ZM153.973 24.984L151.637 24.728L154.661 20.392H157.317L153.973 24.984ZM159.754 32.232C159.306 32.232 158.864 32.1627 158.426 32.024C157.989 31.8853 157.632 31.6933 157.354 31.448L158.266 29.672C158.458 29.8427 158.677 29.976 158.922 30.072C159.178 30.168 159.429 30.216 159.674 30.216C160.026 30.216 160.304 30.1307 160.506 29.96C160.72 29.8 160.912 29.528 161.082 29.144L161.53 28.088L161.722 27.816L164.81 20.392H167.21L163.322 29.528C163.045 30.2213 162.725 30.7653 162.362 31.16C162.01 31.5547 161.616 31.832 161.178 31.992C160.752 32.152 160.277 32.232 159.754 32.232ZM161.226 29.336L157.386 20.392H159.962L162.938 27.592L161.226 29.336Z" fill="black" fill-opacity="0.9"/>
</g>
<rect x="-0.5" y="0.5" width="267" height="47" rx="23.5" transform="matrix(-1 0 0 1 267 0)" stroke="url(#paint6_linear_726_1547)"/>
<defs>
<filter id="filter0_f_726_1547" x="-37.3154" y="-130.42" width="241.792" height="255.392" filterUnits="userSpaceOnUse" color-interpolation-filters="sRGB">
<feFlood flood-opacity="0" result="BackgroundImageFix"/>
<feBlend mode="normal" in="SourceGraphic" in2="BackgroundImageFix" result="shape"/>
<feGaussianBlur stdDeviation="39" result="effect1_foregroundBlur_726_1547"/>
</filter>
<radialGradient id="paint0_radial_726_1547" cx="0" cy="0" r="1" gradientUnits="userSpaceOnUse" gradientTransform="translate(236.602 23.5265) rotate(-31.9847) scale(324.146 141.201)">
<stop stop-color="#96F06C"/>
<stop offset="1" stop-color="#00A5C9"/>
</radialGradient>
<radialGradient id="paint1_radial_726_1547" cx="0" cy="0" r="1" gradientUnits="userSpaceOnUse" gradientTransform="translate(352.807 31.2179) rotate(132.333) scale(133.419 1840.26)">
<stop stop-color="#51FAB3"/>
<stop offset="0.8629" stop-color="#00FF94" stop-opacity="0"/>
</radialGradient>
<linearGradient id="paint2_linear_726_1547" x1="283.923" y1="4.61165e-06" x2="298.501" y2="149.443" gradientUnits="userSpaceOnUse">
<stop stop-color="#0CD3FF"/>
<stop offset="1" stop-color="#1CD08F" stop-opacity="0"/>
</linearGradient>
<linearGradient id="paint3_linear_726_1547" x1="578.627" y1="-5.84968e-05" x2="434.487" y2="42.3471" gradientUnits="userSpaceOnUse">
<stop stop-color="#00FFA3"/>
<stop offset="0.0001" stop-color="#00FFA3"/>
<stop offset="0.95625" stop-color="#00FEA3" stop-opacity="0"/>
</linearGradient>
<radialGradient id="paint4_radial_726_1547" cx="0" cy="0" r="1" gradientUnits="userSpaceOnUse" gradientTransform="translate(193.674 311.952) rotate(10.0755) scale(120.255 1873.74)">
<stop offset="0.0207011" stop-color="#6CF0A1"/>
<stop offset="1" stop-opacity="0"/>
</radialGradient>
<radialGradient id="paint5_radial_726_1547" cx="0" cy="0" r="1" gradientUnits="userSpaceOnUse" gradientTransform="translate(42.8966 49.6954) rotate(90) scale(49.6954 42.8966)">
<stop stop-color="#96F06C" stop-opacity="0.6"/>
<stop offset="1" stop-color="#96F06C" stop-opacity="0"/>
</radialGradient>
<linearGradient id="paint6_linear_726_1547" x1="134" y1="0" x2="134" y2="48" gradientUnits="userSpaceOnUse">
<stop stop-opacity="0.9"/>
<stop offset="1" stop-opacity="0.5"/>
</linearGradient>
<clipPath id="clip0_726_1547">
<rect width="268" height="48" rx="24" transform="matrix(-1 0 0 1 268 0)" fill="white"/>
</clipPath>
</defs>
</svg>
