<svg width="266" height="41" viewBox="0 0 266 41" fill="none" xmlns="http://www.w3.org/2000/svg">
<rect x="0.5" y="0.5" width="265" height="40" rx="20" fill="url(#paint0_linear_566_279)"/>
<rect x="0.5" y="0.5" width="265" height="40" rx="20" stroke="black"/>
<path d="M30.032 28.288C28.736 28.288 27.528 28.08 26.408 27.664C25.304 27.232 24.344 26.624 23.528 25.84C22.712 25.056 22.072 24.136 21.608 23.08C21.16 22.024 20.936 20.864 20.936 19.6C20.936 18.336 21.16 17.176 21.608 16.12C22.072 15.064 22.712 14.144 23.528 13.36C24.36 12.576 25.328 11.976 26.432 11.56C27.536 11.128 28.744 10.912 30.056 10.912C31.512 10.912 32.824 11.168 33.992 11.68C35.176 12.176 36.168 12.912 36.968 13.888L34.472 16.192C33.896 15.536 33.256 15.048 32.552 14.728C31.848 14.392 31.08 14.224 30.248 14.224C29.464 14.224 28.744 14.352 28.088 14.608C27.432 14.864 26.864 15.232 26.384 15.712C25.904 16.192 25.528 16.76 25.256 17.416C25 18.072 24.872 18.8 24.872 19.6C24.872 20.4 25 21.128 25.256 21.784C25.528 22.44 25.904 23.008 26.384 23.488C26.864 23.968 27.432 24.336 28.088 24.592C28.744 24.848 29.464 24.976 30.248 24.976C31.08 24.976 31.848 24.816 32.552 24.496C33.256 24.16 33.896 23.656 34.472 22.984L36.968 25.288C36.168 26.264 35.176 27.008 33.992 27.52C32.824 28.032 31.504 28.288 30.032 28.288ZM45.2968 28.192C43.9207 28.192 42.6967 27.904 41.6247 27.328C40.5687 26.752 39.7287 25.968 39.1047 24.976C38.4967 23.968 38.1927 22.824 38.1927 21.544C38.1927 20.248 38.4967 19.104 39.1047 18.112C39.7287 17.104 40.5687 16.32 41.6247 15.76C42.6967 15.184 43.9207 14.896 45.2968 14.896C46.6568 14.896 47.8728 15.184 48.9448 15.76C50.0167 16.32 50.8568 17.096 51.4648 18.088C52.0728 19.08 52.3768 20.232 52.3768 21.544C52.3768 22.824 52.0728 23.968 51.4648 24.976C50.8568 25.968 50.0167 26.752 48.9448 27.328C47.8728 27.904 46.6568 28.192 45.2968 28.192ZM45.2968 25.12C45.9208 25.12 46.4808 24.976 46.9767 24.688C47.4728 24.4 47.8648 23.992 48.1527 23.464C48.4407 22.92 48.5847 22.28 48.5847 21.544C48.5847 20.792 48.4407 20.152 48.1527 19.624C47.8648 19.096 47.4728 18.688 46.9767 18.4C46.4808 18.112 45.9208 17.968 45.2968 17.968C44.6727 17.968 44.1127 18.112 43.6167 18.4C43.1207 18.688 42.7207 19.096 42.4167 19.624C42.1287 20.152 41.9847 20.792 41.9847 21.544C41.9847 22.28 42.1287 22.92 42.4167 23.464C42.7207 23.992 43.1207 24.4 43.6167 24.688C44.1127 24.976 44.6727 25.12 45.2968 25.12ZM59.5655 28.24C58.5735 28.24 57.5815 28.136 56.5895 27.928C55.6135 27.72 54.7095 27.408 53.8775 26.992L54.8855 24.376C55.5415 24.696 56.2535 24.944 57.0215 25.12C57.8055 25.28 58.5975 25.36 59.3975 25.36C59.9735 25.36 60.4695 25.304 60.8855 25.192C61.3175 25.064 61.6455 24.888 61.8695 24.664C62.0935 24.44 62.2055 24.168 62.2055 23.848C62.2055 23.432 62.0295 23.12 61.6775 22.912C61.3255 22.688 60.8135 22.576 60.1415 22.576H57.5015V20.248H59.8295C60.2615 20.248 60.6295 20.2 60.9335 20.104C61.2375 20.008 61.4615 19.872 61.6055 19.696C61.7655 19.504 61.8455 19.28 61.8455 19.024C61.8455 18.752 61.7495 18.52 61.5575 18.328C61.3655 18.136 61.0855 17.992 60.7175 17.896C60.3495 17.784 59.8855 17.728 59.3255 17.728C58.6855 17.728 58.0215 17.808 57.3335 17.968C56.6455 18.112 55.9415 18.328 55.2215 18.616L54.3095 16.024C55.1575 15.672 55.9975 15.392 56.8295 15.184C57.6615 14.976 58.4855 14.864 59.3015 14.848C60.5015 14.816 61.5815 14.944 62.5415 15.232C63.5015 15.52 64.2535 15.936 64.7975 16.48C65.3575 17.024 65.6375 17.688 65.6375 18.472C65.6375 19.096 65.4455 19.656 65.0615 20.152C64.6935 20.648 64.1815 21.04 63.5255 21.328C62.8695 21.6 62.1335 21.736 61.3175 21.736L61.4135 20.992C62.8375 20.992 63.9575 21.28 64.7735 21.856C65.5895 22.416 65.9975 23.184 65.9975 24.16C65.9975 24.992 65.7095 25.72 65.1335 26.344C64.5735 26.952 63.8055 27.424 62.8295 27.76C61.8695 28.08 60.7815 28.24 59.5655 28.24ZM78.0341 26.32V18.16H73.8101L73.7381 19.816C73.7061 20.504 73.6661 21.16 73.6181 21.784C73.5701 22.408 73.4741 22.976 73.3301 23.488C73.2021 23.984 73.0101 24.408 72.7541 24.76C72.4981 25.096 72.1541 25.328 71.7221 25.456L68.0261 24.928C68.4901 24.928 68.8661 24.792 69.1541 24.52C69.4421 24.232 69.6661 23.84 69.8261 23.344C69.9861 22.832 70.1061 22.256 70.1861 21.616C70.2661 20.96 70.3221 20.272 70.3541 19.552L70.5221 15.088H81.7781V26.32H78.0341ZM67.5941 30.784V24.928H83.6261V30.784H80.1461V28H71.0741V30.784H67.5941ZM94.1902 28V25.48L93.9502 24.928V20.416C93.9502 19.616 93.7022 18.992 93.2062 18.544C92.7262 18.096 91.9822 17.872 90.9742 17.872C90.2862 17.872 89.6062 17.984 88.9342 18.208C88.2782 18.416 87.7182 18.704 87.2542 19.072L85.9102 16.456C86.6142 15.96 87.4622 15.576 88.4542 15.304C89.4462 15.032 90.4542 14.896 91.4782 14.896C93.4462 14.896 94.9742 15.36 96.0622 16.288C97.1502 17.216 97.6942 18.664 97.6942 20.632V28H94.1902ZM90.2542 28.192C89.2462 28.192 88.3822 28.024 87.6622 27.688C86.9422 27.336 86.3902 26.864 86.0062 26.272C85.6222 25.68 85.4302 25.016 85.4302 24.28C85.4302 23.512 85.6142 22.84 85.9822 22.264C86.3662 21.688 86.9662 21.24 87.7822 20.92C88.5982 20.584 89.6622 20.416 90.9742 20.416H94.4062V22.6H91.3822C90.5022 22.6 89.8942 22.744 89.5582 23.032C89.2382 23.32 89.0782 23.68 89.0782 24.112C89.0782 24.592 89.2622 24.976 89.6302 25.264C90.0142 25.536 90.5342 25.672 91.1902 25.672C91.8142 25.672 92.3742 25.528 92.8702 25.24C93.3662 24.936 93.7262 24.496 93.9502 23.92L94.5262 25.648C94.2542 26.48 93.7582 27.112 93.0382 27.544C92.3182 27.976 91.3902 28.192 90.2542 28.192ZM104.187 28V17.296L105.027 18.16H99.8186V15.088H112.275V18.16H107.067L107.907 17.296V28H104.187ZM121.734 19.216C123.43 19.232 124.718 19.616 125.598 20.368C126.494 21.104 126.942 22.152 126.942 23.512C126.942 24.936 126.438 26.048 125.43 26.848C124.422 27.632 123.022 28.024 121.23 28.024L114.75 28V15.088H118.47V19.216H121.734ZM120.894 25.36C121.614 25.376 122.166 25.224 122.55 24.904C122.934 24.584 123.126 24.104 123.126 23.464C123.126 22.824 122.934 22.368 122.55 22.096C122.166 21.808 121.614 21.656 120.894 21.64L118.47 21.616V25.36H120.894ZM137.038 28V15.088H149.878V28H146.134V17.32L146.974 18.16H139.918L140.758 17.32V28H137.038ZM159.996 28.192C158.62 28.192 157.396 27.904 156.324 27.328C155.268 26.752 154.428 25.968 153.804 24.976C153.196 23.968 152.892 22.824 152.892 21.544C152.892 20.248 153.196 19.104 153.804 18.112C154.428 17.104 155.268 16.32 156.324 15.76C157.396 15.184 158.62 14.896 159.996 14.896C161.356 14.896 162.572 15.184 163.644 15.76C164.716 16.32 165.556 17.096 166.164 18.088C166.772 19.08 167.076 20.232 167.076 21.544C167.076 22.824 166.772 23.968 166.164 24.976C165.556 25.968 164.716 26.752 163.644 27.328C162.572 27.904 161.356 28.192 159.996 28.192ZM159.996 25.12C160.62 25.12 161.18 24.976 161.676 24.688C162.172 24.4 162.564 23.992 162.852 23.464C163.14 22.92 163.284 22.28 163.284 21.544C163.284 20.792 163.14 20.152 162.852 19.624C162.564 19.096 162.172 18.688 161.676 18.4C161.18 18.112 160.62 17.968 159.996 17.968C159.372 17.968 158.812 18.112 158.316 18.4C157.82 18.688 157.42 19.096 157.116 19.624C156.828 20.152 156.684 20.792 156.684 21.544C156.684 22.28 156.828 22.92 157.116 23.464C157.42 23.992 157.82 24.4 158.316 24.688C158.812 24.976 159.372 25.12 159.996 25.12ZM176.443 28.192C174.971 28.192 173.675 27.904 172.555 27.328C171.451 26.752 170.595 25.968 169.987 24.976C169.379 23.968 169.075 22.824 169.075 21.544C169.075 20.248 169.371 19.104 169.963 18.112C170.571 17.104 171.395 16.32 172.435 15.76C173.475 15.184 174.651 14.896 175.963 14.896C177.227 14.896 178.363 15.168 179.371 15.712C180.395 16.24 181.203 17.008 181.795 18.016C182.387 19.008 182.683 20.2 182.683 21.592C182.683 21.736 182.675 21.904 182.659 22.096C182.643 22.272 182.627 22.44 182.611 22.6H172.123V20.416H180.643L179.203 21.064C179.203 20.392 179.067 19.808 178.795 19.312C178.523 18.816 178.147 18.432 177.667 18.16C177.187 17.872 176.627 17.728 175.987 17.728C175.347 17.728 174.779 17.872 174.283 18.16C173.803 18.432 173.427 18.824 173.155 19.336C172.883 19.832 172.747 20.424 172.747 21.112V21.688C172.747 22.392 172.899 23.016 173.203 23.56C173.523 24.088 173.963 24.496 174.523 24.784C175.099 25.056 175.771 25.192 176.539 25.192C177.227 25.192 177.827 25.088 178.339 24.88C178.867 24.672 179.347 24.36 179.779 23.944L181.771 26.104C181.179 26.776 180.435 27.296 179.539 27.664C178.643 28.016 177.611 28.192 176.443 28.192ZM190.26 28.24C189.268 28.24 188.276 28.136 187.284 27.928C186.308 27.72 185.404 27.408 184.572 26.992L185.58 24.376C186.236 24.696 186.948 24.944 187.716 25.12C188.5 25.28 189.292 25.36 190.092 25.36C190.668 25.36 191.164 25.304 191.58 25.192C192.012 25.064 192.34 24.888 192.564 24.664C192.788 24.44 192.9 24.168 192.9 23.848C192.9 23.432 192.724 23.12 192.372 22.912C192.02 22.688 191.508 22.576 190.836 22.576H188.196V20.248H190.524C190.956 20.248 191.324 20.2 191.628 20.104C191.932 20.008 192.156 19.872 192.3 19.696C192.46 19.504 192.54 19.28 192.54 19.024C192.54 18.752 192.444 18.52 192.252 18.328C192.06 18.136 191.78 17.992 191.412 17.896C191.044 17.784 190.58 17.728 190.02 17.728C189.38 17.728 188.716 17.808 188.028 17.968C187.34 18.112 186.636 18.328 185.916 18.616L185.004 16.024C185.852 15.672 186.692 15.392 187.524 15.184C188.356 14.976 189.18 14.864 189.996 14.848C191.196 14.816 192.276 14.944 193.236 15.232C194.196 15.52 194.948 15.936 195.492 16.48C196.052 17.024 196.332 17.688 196.332 18.472C196.332 19.096 196.14 19.656 195.756 20.152C195.388 20.648 194.876 21.04 194.22 21.328C193.564 21.6 192.828 21.736 192.012 21.736L192.108 20.992C193.532 20.992 194.652 21.28 195.468 21.856C196.284 22.416 196.692 23.184 196.692 24.16C196.692 24.992 196.404 25.72 195.828 26.344C195.268 26.952 194.5 27.424 193.524 27.76C192.564 28.08 191.476 28.24 190.26 28.24ZM208.729 26.32V18.16H204.505L204.433 19.816C204.401 20.504 204.361 21.16 204.313 21.784C204.265 22.408 204.169 22.976 204.025 23.488C203.897 23.984 203.705 24.408 203.449 24.76C203.193 25.096 202.849 25.328 202.417 25.456L198.721 24.928C199.185 24.928 199.561 24.792 199.849 24.52C200.137 24.232 200.361 23.84 200.521 23.344C200.681 22.832 200.801 22.256 200.881 21.616C200.961 20.96 201.017 20.272 201.049 19.552L201.217 15.088H212.473V26.32H208.729ZM198.289 30.784V24.928H214.321V30.784H210.841V28H201.769V30.784H198.289ZM226.301 28L221.981 21.88L225.029 20.08L230.717 28H226.301ZM217.157 28V15.088H220.901V28H217.157ZM219.797 23.104V20.104H224.309V23.104H219.797ZM225.389 21.976L221.885 21.592L226.421 15.088H230.405L225.389 21.976ZM234.061 32.848C233.389 32.848 232.725 32.744 232.069 32.536C231.413 32.328 230.877 32.04 230.461 31.672L231.829 29.008C232.117 29.264 232.445 29.464 232.813 29.608C233.197 29.752 233.573 29.824 233.941 29.824C234.469 29.824 234.885 29.696 235.189 29.44C235.509 29.2 235.797 28.792 236.053 28.216L236.725 26.632L237.013 26.224L241.645 15.088H245.245L239.413 28.792C238.997 29.832 238.517 30.648 237.973 31.24C237.445 31.832 236.853 32.248 236.197 32.488C235.557 32.728 234.845 32.848 234.061 32.848ZM236.269 28.504L230.509 15.088H234.373L238.837 25.888L236.269 28.504Z" fill="black"/>
<defs>
<linearGradient id="paint0_linear_566_279" x1="94.1038" y1="52.0385" x2="116.6" y2="-32.6391" gradientUnits="userSpaceOnUse">
<stop stop-color="#63FFE3"/>
<stop offset="1" stop-color="#63FFBE"/>
</linearGradient>
</defs>
</svg>
