<svg width="1440" height="125" viewBox="0 0 1440 125" fill="none" xmlns="http://www.w3.org/2000/svg">
<path d="M605.984 80V68.544L607.391 70.144H597.855C592.906 70.144 589.023 69.12 586.208 67.072C583.392 65.024 581.984 62.08 581.984 58.24C581.984 54.144 583.456 51.008 586.399 48.832C589.386 46.656 593.397 45.568 598.432 45.568H614.88V80H605.984ZM581.471 80L590.623 66.88H600.799L592.095 80H581.471ZM605.984 65.472V51.136L607.391 53.696H598.623C596.576 53.696 594.975 54.08 593.823 54.848C592.714 55.616 592.159 56.8533 592.159 58.56C592.159 61.8453 594.271 63.488 598.495 63.488H607.391L605.984 65.472Z" fill="black"/>
<path d="M537.57 80V45.568H547.49V66.048L564.258 45.568H573.41V80H563.49V59.52L546.786 80H537.57Z" fill="black"/>
<path d="M491.852 80V45.568H501.772V59.008H516.749V45.568H526.732V80H516.749V67.136H501.772V80H491.852Z" fill="black"/>
<path d="M466.279 80.512C462.354 80.512 458.898 79.744 455.911 78.208C452.967 76.672 450.685 74.5813 449.063 71.936C447.442 69.248 446.632 66.1973 446.632 62.784C446.632 59.328 447.421 56.2773 448.999 53.632C450.621 50.944 452.818 48.8533 455.591 47.36C458.365 45.824 461.501 45.056 464.999 45.056C468.37 45.056 471.4 45.7813 474.087 47.232C476.818 48.64 478.973 50.688 480.551 53.376C482.13 56.0213 482.919 59.2 482.919 62.912C482.919 63.296 482.898 63.744 482.855 64.256C482.813 64.7253 482.77 65.1733 482.727 65.6H454.759V59.776H477.479L473.639 61.504C473.639 59.712 473.277 58.1547 472.551 56.832C471.826 55.5093 470.823 54.4853 469.543 53.76C468.263 52.992 466.77 52.608 465.063 52.608C463.357 52.608 461.842 52.992 460.52 53.76C459.24 54.4853 458.237 55.5307 457.512 56.896C456.786 58.2187 456.423 59.7973 456.423 61.632V63.168C456.423 65.0453 456.829 66.7093 457.639 68.16C458.493 69.568 459.666 70.656 461.159 71.424C462.695 72.1493 464.487 72.512 466.535 72.512C468.37 72.512 469.97 72.2347 471.335 71.68C472.743 71.1253 474.023 70.2933 475.176 69.184L480.487 74.944C478.909 76.736 476.925 78.1227 474.535 79.104C472.146 80.0427 469.394 80.512 466.279 80.512Z" fill="black"/>
<path d="M401.19 79.936L401.702 71.744C401.958 71.7867 402.214 71.8293 402.47 71.872C402.727 71.872 402.961 71.872 403.174 71.872C404.369 71.872 405.308 71.5307 405.99 70.848C406.673 70.1653 407.185 69.248 407.526 68.096C407.868 66.9013 408.103 65.5573 408.23 64.064C408.401 62.5707 408.529 61.0133 408.615 59.392L409.126 45.568H438.566V80H428.582V51.328L430.823 53.76H415.719L417.831 51.2L417.383 59.84C417.255 62.912 416.999 65.728 416.615 68.288C416.273 70.848 415.697 73.0667 414.887 74.944C414.076 76.7787 412.988 78.208 411.622 79.232C410.257 80.2133 408.508 80.704 406.374 80.704C405.606 80.704 404.796 80.64 403.943 80.512C403.089 80.384 402.172 80.192 401.19 79.936Z" fill="black"/>
<path d="M364.45 80V45.568H382.05C386.359 45.568 389.73 46.3573 392.162 47.936C394.594 49.472 395.81 51.648 395.81 54.464C395.81 57.28 394.658 59.4987 392.354 61.12C390.093 62.6987 387.085 63.488 383.33 63.488L384.354 61.184C388.535 61.184 391.65 61.952 393.698 63.488C395.789 65.024 396.834 67.264 396.834 70.208C396.834 73.2373 395.682 75.6267 393.378 77.376C391.074 79.1253 387.554 80 382.818 80H364.45ZM373.602 73.216H381.986C383.821 73.216 385.186 72.9173 386.082 72.32C387.021 71.68 387.49 70.72 387.49 69.44C387.49 68.1173 387.063 67.1573 386.21 66.56C385.357 65.92 384.013 65.6 382.178 65.6H373.602V73.216ZM373.602 59.712H381.154C382.903 59.712 384.205 59.392 385.058 58.752C385.954 58.112 386.402 57.1947 386.402 56C386.402 54.7627 385.954 53.8453 385.058 53.248C384.205 52.6507 382.903 52.352 381.154 52.352H373.602V59.712Z" fill="black"/>
<path d="M345.153 80V73.28L344.513 71.808V59.776C344.513 57.6427 343.852 55.9787 342.529 54.784C341.249 53.5893 339.265 52.992 336.577 52.992C334.742 52.992 332.929 53.2907 331.137 53.888C329.388 54.4427 327.894 55.2107 326.657 56.192L323.073 49.216C324.95 47.8933 327.212 46.8693 329.857 46.144C332.502 45.4187 335.19 45.056 337.921 45.056C343.169 45.056 347.244 46.2933 350.145 48.768C353.046 51.2427 354.497 55.104 354.497 60.352V80H345.153ZM334.657 80.512C331.969 80.512 329.665 80.064 327.745 79.168C325.825 78.2293 324.353 76.9707 323.329 75.392C322.305 73.8133 321.793 72.0427 321.793 70.08C321.793 68.032 322.284 66.24 323.265 64.704C324.289 63.168 325.889 61.9733 328.065 61.12C330.241 60.224 333.078 59.776 336.577 59.776H345.729V65.6H337.665C335.318 65.6 333.697 65.984 332.801 66.752C331.948 67.52 331.521 68.48 331.521 69.632C331.521 70.912 332.012 71.936 332.993 72.704C334.017 73.4293 335.404 73.792 337.153 73.792C338.817 73.792 340.31 73.408 341.633 72.64C342.956 71.8293 343.916 70.656 344.513 69.12L346.049 73.728C345.324 75.9467 344.001 77.632 342.081 78.784C340.161 79.936 337.686 80.512 334.657 80.512Z" fill="black"/>
<path d="M299.678 80.512C296.777 80.512 294.238 79.872 292.062 78.592C289.886 77.312 288.179 75.3707 286.942 72.768C285.747 70.1227 285.15 66.7947 285.15 62.784C285.15 58.7307 285.726 55.4027 286.878 52.8C288.03 50.1973 289.694 48.256 291.87 46.976C294.046 45.696 296.649 45.056 299.678 45.056C302.921 45.056 305.822 45.8027 308.382 47.296C310.985 48.7467 313.033 50.7947 314.526 53.44C316.062 56.0853 316.83 59.2 316.83 62.784C316.83 66.4107 316.062 69.5467 314.526 72.192C313.033 74.8373 310.985 76.8853 308.382 78.336C305.822 79.7867 302.921 80.512 299.678 80.512ZM279.326 92.416V45.568H288.862V52.608L288.67 62.848L289.31 73.024V92.416H279.326ZM297.95 72.32C299.614 72.32 301.086 71.936 302.366 71.168C303.689 70.4 304.734 69.312 305.502 67.904C306.313 66.4533 306.718 64.7467 306.718 62.784C306.718 60.7787 306.313 59.072 305.502 57.664C304.734 56.256 303.689 55.168 302.366 54.4C301.086 53.632 299.614 53.248 297.95 53.248C296.286 53.248 294.793 53.632 293.47 54.4C292.147 55.168 291.102 56.256 290.334 57.664C289.566 59.072 289.182 60.7787 289.182 62.784C289.182 64.7467 289.566 66.4533 290.334 67.904C291.102 69.312 292.147 70.4 293.47 71.168C294.793 71.936 296.286 72.32 297.95 72.32Z" fill="black"/>
<path d="M234.298 80V45.568H268.538V80H258.553V51.52L260.794 53.76H241.978L244.217 51.52V80H234.298Z" fill="black"/>
<path d="M215.001 80V73.28L214.361 71.808V59.776C214.361 57.6427 213.699 55.9787 212.376 54.784C211.096 53.5893 209.113 52.992 206.424 52.992C204.59 52.992 202.777 53.2907 200.984 53.888C199.235 54.4427 197.742 55.2107 196.505 56.192L192.921 49.216C194.798 47.8933 197.059 46.8693 199.704 46.144C202.35 45.4187 205.038 45.056 207.769 45.056C213.017 45.056 217.091 46.2933 219.993 48.768C222.894 51.2427 224.344 55.104 224.344 60.352V80H215.001ZM204.505 80.512C201.816 80.512 199.512 80.064 197.592 79.168C195.673 78.2293 194.201 76.9707 193.176 75.392C192.152 73.8133 191.641 72.0427 191.641 70.08C191.641 68.032 192.131 66.24 193.113 64.704C194.137 63.168 195.737 61.9733 197.913 61.12C200.089 60.224 202.926 59.776 206.424 59.776H215.577V65.6H207.512C205.166 65.6 203.544 65.984 202.648 66.752C201.795 67.52 201.368 68.48 201.368 69.632C201.368 70.912 201.859 71.936 202.84 72.704C203.865 73.4293 205.251 73.792 207.001 73.792C208.665 73.792 210.158 73.408 211.48 72.64C212.803 71.8293 213.763 70.656 214.361 69.12L215.896 73.728C215.171 75.9467 213.848 77.632 211.928 78.784C210.008 79.936 207.534 80.512 204.505 80.512Z" fill="black"/>
<path d="M172.288 35.2H182.656V80H172.288V35.2ZM151.936 80H141.568V35.2H151.936V80ZM173.056 61.632H151.168V52.864H173.056V61.632Z" fill="black"/>
<path d="M1353.5 60C1355.14 60 1356.77 60.3233 1358.28 60.9515C1359.8 61.5797 1361.18 62.5004 1362.34 63.6612C1363.5 64.8219 1364.42 66.1999 1365.05 67.7165C1365.68 69.233 1366 70.8585 1366 72.5H1365C1365 70.9898 1364.7 69.4944 1364.12 68.0991C1363.55 66.7039 1362.7 65.4361 1361.63 64.3683C1360.56 63.3004 1359.3 62.4533 1357.9 61.8754C1356.51 61.2975 1355.01 61 1353.5 61V60Z" fill="black"/>
<path d="M1377.5 85C1375.86 85 1374.23 84.6767 1372.72 84.0485C1371.2 83.4203 1369.82 82.4996 1368.66 81.3388C1367.5 80.1781 1366.58 78.8001 1365.95 77.2835C1365.32 75.767 1365 74.1415 1365 72.5H1366C1366 74.0102 1366.3 75.5056 1366.88 76.9009C1367.45 78.2961 1368.3 79.5639 1369.37 80.6317C1370.44 81.6996 1371.7 82.5467 1373.1 83.1246C1374.49 83.7025 1375.99 84 1377.5 84V85Z" fill="black"/>
<path fill-rule="evenodd" clip-rule="evenodd" d="M610 1H0V4.37112e-08H610V1Z" fill="black"/>
<path fill-rule="evenodd" clip-rule="evenodd" d="M97 76V0L98 4.37112e-08V76H97Z" fill="black"/>
<path fill-rule="evenodd" clip-rule="evenodd" d="M383 125H146V124H383V125Z" fill="black"/>
<path fill-rule="evenodd" clip-rule="evenodd" d="M1100 125H383V124H1100V125Z" fill="black"/>
<path fill-rule="evenodd" clip-rule="evenodd" d="M1354 61L1149 62L1149 61L1354 60L1354 61Z" fill="black"/>
<path fill-rule="evenodd" clip-rule="evenodd" d="M640 125V50H641V125H640Z" fill="black"/>
<path fill-rule="evenodd" clip-rule="evenodd" d="M659 125V50H660V125H659Z" fill="black"/>
<path fill-rule="evenodd" clip-rule="evenodd" d="M650 125V50H651V125H650Z" fill="black"/>
<path fill-rule="evenodd" clip-rule="evenodd" d="M1124 100V86H1125V100H1124Z" fill="black"/>
<path d="M1100 125C1103.28 125 1106.53 124.353 1109.57 123.097C1112.6 121.841 1115.36 119.999 1117.68 117.678C1120 115.356 1121.84 112.6 1123.1 109.567C1124.35 106.534 1125 103.283 1125 100H1124C1124 103.152 1123.38 106.273 1122.17 109.184C1120.97 112.096 1119.2 114.742 1116.97 116.971C1114.74 119.199 1112.1 120.967 1109.18 122.173C1106.27 123.379 1103.15 124 1100 124V125Z" fill="black"/>
<path d="M1149 61C1145.72 61 1142.47 61.6466 1139.43 62.903C1136.4 64.1594 1133.64 66.0009 1131.32 68.3223C1129 70.6438 1127.16 73.3998 1125.9 76.4329C1124.65 79.4661 1124 82.7169 1124 86H1125C1125 82.8483 1125.62 79.7274 1126.83 76.8156C1128.03 73.9038 1129.8 71.258 1132.03 69.0294C1134.26 66.8008 1136.9 65.033 1139.82 63.8269C1142.73 62.6208 1145.85 62 1149 62V61Z" fill="black"/>
<path d="M97 75C97 81.5661 98.2933 88.0679 100.806 94.1342C103.319 100.2 107.002 105.712 111.645 110.355C116.288 114.998 121.8 118.681 127.866 121.194C133.932 123.707 140.434 125 147 125V124C140.565 124 134.193 122.733 128.249 120.27C122.304 117.808 116.902 114.198 112.352 109.648C107.802 105.098 104.192 99.6964 101.73 93.7515C99.2674 87.8065 98 81.4348 98 75H97Z" fill="black"/>
<path d="M641 50C641 43.4339 639.707 36.9321 637.194 30.8658C634.681 24.7995 630.998 19.2876 626.355 14.6447C621.712 10.0017 616.2 6.31876 610.134 3.80602C604.068 1.29329 597.566 -2.43302e-07 591 4.37112e-08V1C597.435 1 603.807 2.26742 609.751 4.7299C615.696 7.19238 621.098 10.8017 625.648 15.3518C630.198 19.9018 633.808 25.3036 636.27 31.2485C638.733 37.1935 640 43.5652 640 50H641Z" fill="black"/>
<path d="M660 50C660 43.4339 658.707 36.9321 656.194 30.8658C653.681 24.7995 649.998 19.2876 645.355 14.6447C640.712 10.0017 635.2 6.31876 629.134 3.80602C623.068 1.29329 616.566 -2.43302e-07 610 4.37112e-08V1C616.435 1 622.807 2.26742 628.751 4.7299C634.696 7.19238 640.098 10.8017 644.648 15.3518C649.198 19.9018 652.808 25.3036 655.27 31.2485C657.733 37.1935 659 43.5652 659 50H660Z" fill="black"/>
<path d="M651 50C651 43.4339 649.707 36.9321 647.194 30.8658C644.681 24.7995 640.998 19.2876 636.355 14.6447C631.712 10.0017 626.2 6.31876 620.134 3.80602C614.068 1.29329 607.566 -2.43302e-07 601 4.37112e-08V1C607.435 1 613.807 2.26742 619.751 4.7299C625.696 7.19238 631.098 10.8017 635.648 15.3518C640.198 19.9018 643.808 25.3036 646.27 31.2485C648.733 37.1935 650 43.5652 650 50H651Z" fill="black"/>
<path d="M97 75C97 81.5661 98.2933 88.0679 100.806 94.1342C103.319 100.2 107.002 105.712 111.645 110.355C116.288 114.998 121.8 118.681 127.866 121.194C133.932 123.707 140.434 125 147 125V124C140.565 124 134.193 122.733 128.249 120.27C122.304 117.808 116.902 114.198 112.352 109.648C107.802 105.098 104.192 99.6964 101.73 93.7515C99.2674 87.8065 98 81.4348 98 75H97Z" fill="black"/>
<path d="M47 1.00001C47 7.56611 48.2933 14.0679 50.806 20.1342C53.3188 26.2005 57.0017 31.7124 61.6447 36.3554C66.2876 40.9983 71.7995 44.6813 77.8658 47.194C83.9321 49.7067 90.4339 51 97 51V50C90.5652 50 84.1935 48.7326 78.2485 46.2701C72.3036 43.8076 66.9018 40.1983 62.3518 35.6482C57.8017 31.0982 54.1924 25.6965 51.7299 19.7515C49.2674 13.8065 48 7.43478 48 1.00001L47 1.00001Z" fill="black"/>
<path fill-rule="evenodd" clip-rule="evenodd" d="M1440 85H1377V84H1440V85Z" fill="black"/>
</svg>
