<svg width="276" height="48" viewBox="0 0 276 48" fill="none" xmlns="http://www.w3.org/2000/svg">
<g clip-path="url(#clip0_726_1562)">
<rect x="-490.888" y="-23.7988" width="1440" height="104" fill="url(#paint0_radial_726_1562)" fill-opacity="0.8"/>
<rect x="-490.888" y="-23.7988" width="1440" height="104" fill="url(#paint1_radial_726_1562)" fill-opacity="0.44"/>
<rect x="-490.888" y="-23.7988" width="1440" height="104" fill="url(#paint2_linear_726_1562)" fill-opacity="0.2"/>
<rect x="-490.888" y="-23.7988" width="1440" height="104" fill="url(#paint3_linear_726_1562)" fill-opacity="0.4"/>
<rect x="-490.888" y="-23.7988" width="1440" height="104" fill="url(#paint4_radial_726_1562)" fill-opacity="0.2"/>
<g filter="url(#filter0_f_726_1562)">
<ellipse cx="-182.684" cy="29.9012" rx="152.571" ry="56.4656" transform="rotate(-7.00215 -182.684 29.9012)" fill="url(#paint5_radial_726_1562)" fill-opacity="0.6"/>
</g>
<path d="M135.2 28V19.392H137.68V22.752H141.424V19.392H143.92V28H141.424V24.784H137.68V28H135.2ZM151.781 28V26.32L151.621 25.952V22.944C151.621 22.4107 151.456 21.9947 151.125 21.696C150.805 21.3973 150.309 21.248 149.637 21.248C149.179 21.248 148.725 21.3227 148.277 21.472C147.84 21.6107 147.467 21.8027 147.157 22.048L146.261 20.304C146.731 19.9733 147.296 19.7173 147.957 19.536C148.619 19.3547 149.291 19.264 149.973 19.264C151.285 19.264 152.304 19.5733 153.029 20.192C153.755 20.8107 154.117 21.776 154.117 23.088V28H151.781ZM149.157 28.128C148.485 28.128 147.909 28.016 147.429 27.792C146.949 27.5573 146.581 27.2427 146.325 26.848C146.069 26.4533 145.941 26.0107 145.941 25.52C145.941 25.008 146.064 24.56 146.309 24.176C146.565 23.792 146.965 23.4933 147.509 23.28C148.053 23.056 148.763 22.944 149.637 22.944H151.925V24.4H149.909C149.323 24.4 148.917 24.496 148.693 24.688C148.48 24.88 148.373 25.12 148.373 25.408C148.373 25.728 148.496 25.984 148.741 26.176C148.997 26.3573 149.344 26.448 149.781 26.448C150.197 26.448 150.571 26.352 150.901 26.16C151.232 25.9573 151.472 25.664 151.621 25.28L152.005 26.432C151.824 26.9867 151.493 27.408 151.013 27.696C150.533 27.984 149.915 28.128 149.157 28.128ZM156.606 28V19.392H165.166V28H162.67V20.88L163.23 21.44H158.526L159.086 20.88V28H156.606ZM172.951 28.128C172.225 28.128 171.591 27.968 171.047 27.648C170.503 27.328 170.076 26.8427 169.767 26.192C169.468 25.5307 169.319 24.6987 169.319 23.696C169.319 22.6827 169.463 21.8507 169.751 21.2C170.039 20.5493 170.455 20.064 170.999 19.744C171.543 19.424 172.193 19.264 172.951 19.264C173.761 19.264 174.487 19.4507 175.127 19.824C175.777 20.1867 176.289 20.6987 176.663 21.36C177.047 22.0213 177.239 22.8 177.239 23.696C177.239 24.6027 177.047 25.3867 176.663 26.048C176.289 26.7093 175.777 27.2213 175.127 27.584C174.487 27.9467 173.761 28.128 172.951 28.128ZM167.863 31.104V19.392H170.247V21.152L170.199 23.712L170.359 26.256V31.104H167.863ZM172.519 26.08C172.935 26.08 173.303 25.984 173.623 25.792C173.953 25.6 174.215 25.328 174.407 24.976C174.609 24.6133 174.711 24.1867 174.711 23.696C174.711 23.1947 174.609 22.768 174.407 22.416C174.215 22.064 173.953 21.792 173.623 21.6C173.303 21.408 172.935 21.312 172.519 21.312C172.103 21.312 171.729 21.408 171.399 21.6C171.068 21.792 170.807 22.064 170.615 22.416C170.423 22.768 170.327 23.1947 170.327 23.696C170.327 24.1867 170.423 24.6133 170.615 24.976C170.807 25.328 171.068 25.6 171.399 25.792C171.729 25.984 172.103 26.08 172.519 26.08ZM184.319 28V26.32L184.159 25.952V22.944C184.159 22.4107 183.994 21.9947 183.663 21.696C183.343 21.3973 182.847 21.248 182.175 21.248C181.717 21.248 181.263 21.3227 180.815 21.472C180.378 21.6107 180.005 21.8027 179.695 22.048L178.799 20.304C179.269 19.9733 179.834 19.7173 180.495 19.536C181.157 19.3547 181.829 19.264 182.511 19.264C183.823 19.264 184.842 19.5733 185.567 20.192C186.293 20.8107 186.655 21.776 186.655 23.088V28H184.319ZM181.695 28.128C181.023 28.128 180.447 28.016 179.967 27.792C179.487 27.5573 179.119 27.2427 178.863 26.848C178.607 26.4533 178.479 26.0107 178.479 25.52C178.479 25.008 178.602 24.56 178.847 24.176C179.103 23.792 179.503 23.4933 180.047 23.28C180.591 23.056 181.301 22.944 182.175 22.944H184.463V24.4H182.447C181.861 24.4 181.455 24.496 181.231 24.688C181.018 24.88 180.911 25.12 180.911 25.408C180.911 25.728 181.034 25.984 181.279 26.176C181.535 26.3573 181.882 26.448 182.319 26.448C182.735 26.448 183.109 26.352 183.439 26.16C183.77 25.9573 184.01 25.664 184.159 25.28L184.543 26.432C184.362 26.9867 184.031 27.408 183.551 27.696C183.071 27.984 182.453 28.128 181.695 28.128ZM189.144 28V19.392H193.544C194.621 19.392 195.464 19.5893 196.072 19.984C196.68 20.368 196.984 20.912 196.984 21.616C196.984 22.32 196.696 22.8747 196.12 23.28C195.554 23.6747 194.802 23.872 193.864 23.872L194.12 23.296C195.165 23.296 195.944 23.488 196.456 23.872C196.978 24.256 197.24 24.816 197.24 25.552C197.24 26.3093 196.952 26.9067 196.376 27.344C195.8 27.7813 194.92 28 193.736 28H189.144ZM191.432 26.304H193.528C193.986 26.304 194.328 26.2293 194.552 26.08C194.786 25.92 194.904 25.68 194.904 25.36C194.904 25.0293 194.797 24.7893 194.584 24.64C194.37 24.48 194.034 24.4 193.576 24.4H191.432V26.304ZM191.432 22.928H193.32C193.757 22.928 194.082 22.848 194.296 22.688C194.52 22.528 194.632 22.2987 194.632 22C194.632 21.6907 194.52 21.4613 194.296 21.312C194.082 21.1627 193.757 21.088 193.32 21.088H191.432V22.928ZM198.329 27.984L198.457 25.936C198.521 25.9467 198.585 25.9573 198.649 25.968C198.713 25.968 198.772 25.968 198.825 25.968C199.124 25.968 199.358 25.8827 199.529 25.712C199.7 25.5413 199.828 25.312 199.913 25.024C199.998 24.7253 200.057 24.3893 200.089 24.016C200.132 23.6427 200.164 23.2533 200.185 22.848L200.313 19.392H207.673V28H205.177V20.832L205.737 21.44H201.961L202.489 20.8L202.377 22.96C202.345 23.728 202.281 24.432 202.185 25.072C202.1 25.712 201.956 26.2667 201.753 26.736C201.55 27.1947 201.278 27.552 200.937 27.808C200.596 28.0533 200.158 28.176 199.625 28.176C199.433 28.176 199.23 28.16 199.017 28.128C198.804 28.096 198.574 28.048 198.329 27.984ZM214.601 28.128C213.62 28.128 212.756 27.936 212.009 27.552C211.273 27.168 210.702 26.6453 210.297 25.984C209.892 25.312 209.689 24.5493 209.689 23.696C209.689 22.832 209.886 22.0693 210.281 21.408C210.686 20.736 211.236 20.2133 211.929 19.84C212.622 19.456 213.406 19.264 214.281 19.264C215.124 19.264 215.881 19.4453 216.553 19.808C217.236 20.16 217.774 20.672 218.169 21.344C218.564 22.0053 218.761 22.8 218.761 23.728C218.761 23.824 218.756 23.936 218.745 24.064C218.734 24.1813 218.724 24.2933 218.713 24.4H211.721V22.944H217.401L216.441 23.376C216.441 22.928 216.35 22.5387 216.169 22.208C215.988 21.8773 215.737 21.6213 215.417 21.44C215.097 21.248 214.724 21.152 214.297 21.152C213.87 21.152 213.492 21.248 213.161 21.44C212.841 21.6213 212.59 21.8827 212.409 22.224C212.228 22.5547 212.137 22.9493 212.137 23.408V23.792C212.137 24.2613 212.238 24.6773 212.441 25.04C212.654 25.392 212.948 25.664 213.321 25.856C213.705 26.0373 214.153 26.128 214.665 26.128C215.124 26.128 215.524 26.0587 215.865 25.92C216.217 25.7813 216.537 25.5733 216.825 25.296L218.153 26.736C217.758 27.184 217.262 27.5307 216.665 27.776C216.068 28.0107 215.38 28.128 214.601 28.128ZM220.994 28V19.392H223.474V22.752H227.218V19.392H229.714V28H227.218V24.784H223.474V28H220.994ZM232.424 28V19.392H234.904V24.512L239.096 19.392H241.384V28H238.904V22.88L234.728 28H232.424ZM249.527 28V25.136L249.879 25.536H247.495C246.258 25.536 245.287 25.28 244.583 24.768C243.879 24.256 243.527 23.52 243.527 22.56C243.527 21.536 243.895 20.752 244.631 20.208C245.378 19.664 246.38 19.392 247.639 19.392H251.751V28H249.527ZM243.399 28L245.687 24.72H248.231L246.055 28H243.399ZM249.527 24.368V20.784L249.879 21.424H247.687C247.175 21.424 246.775 21.52 246.487 21.712C246.21 21.904 246.071 22.2133 246.071 22.64C246.071 23.4613 246.599 23.872 247.655 23.872H249.879L249.527 24.368Z" fill="black" fill-opacity="0.9"/>
</g>
<rect x="0.5" y="0.5" width="275" height="47" rx="23.5" stroke="url(#paint6_linear_726_1562)"/>
<defs>
<filter id="filter0_f_726_1562" x="-384.276" y="-79.165" width="403.184" height="218.132" filterUnits="userSpaceOnUse" color-interpolation-filters="sRGB">
<feFlood flood-opacity="0" result="BackgroundImageFix"/>
<feBlend mode="normal" in="SourceGraphic" in2="BackgroundImageFix" result="shape"/>
<feGaussianBlur stdDeviation="25" result="effect1_foregroundBlur_726_1562"/>
</filter>
<radialGradient id="paint0_radial_726_1562" cx="0" cy="0" r="1" gradientUnits="userSpaceOnUse" gradientTransform="translate(101.612 28.2012) rotate(-28.8635) scale(786.163 322.242)">
<stop stop-color="#96F06C"/>
<stop offset="1" stop-color="#00A5C9"/>
</radialGradient>
<radialGradient id="paint1_radial_726_1562" cx="0" cy="0" r="1" gradientUnits="userSpaceOnUse" gradientTransform="translate(392.612 45.2013) rotate(135.905) scale(313.287 4337.83)">
<stop stop-color="#51FAB3"/>
<stop offset="0.8629" stop-color="#00FF94" stop-opacity="0"/>
</radialGradient>
<linearGradient id="paint2_linear_726_1562" x1="220.112" y1="-23.7988" x2="248.612" y2="307.201" gradientUnits="userSpaceOnUse">
<stop stop-color="#0CD3FF"/>
<stop offset="1" stop-color="#1CD08F" stop-opacity="0"/>
</linearGradient>
<linearGradient id="paint3_linear_726_1562" x1="958.112" y1="-23.799" x2="605.112" y2="93.7011" gradientUnits="userSpaceOnUse">
<stop stop-color="#00FFA3"/>
<stop offset="0.0001" stop-color="#00FFA3"/>
<stop offset="0.95625" stop-color="#00FEA3" stop-opacity="0"/>
</linearGradient>
<radialGradient id="paint4_radial_726_1562" cx="0" cy="0" r="1" gradientUnits="userSpaceOnUse" gradientTransform="translate(-5.88815 665.701) rotate(8.91309) scale(300.124 4155.57)">
<stop offset="0.0207011" stop-color="#6CF0A1"/>
<stop offset="1" stop-opacity="0"/>
</radialGradient>
<radialGradient id="paint5_radial_726_1562" cx="0" cy="0" r="1" gradientUnits="userSpaceOnUse" gradientTransform="translate(-182.684 29.9012) rotate(90) scale(56.4656 152.571)">
<stop stop-color="#3F93A6" stop-opacity="0.6"/>
<stop offset="1" stop-color="#186586" stop-opacity="0"/>
</radialGradient>
<linearGradient id="paint6_linear_726_1562" x1="138" y1="0" x2="138" y2="48" gradientUnits="userSpaceOnUse">
<stop stop-opacity="0.75"/>
<stop offset="0.9875" stop-opacity="0.6"/>
</linearGradient>
<clipPath id="clip0_726_1562">
<rect width="276" height="48" rx="24" fill="white"/>
</clipPath>
</defs>
</svg>
