<svg width="350" height="70" viewBox="0 0 350 70" fill="none" xmlns="http://www.w3.org/2000/svg">
<g clip-path="url(#clip0_688_352)">
<rect x="-490.888" y="-23.7988" width="1440" height="104" fill="url(#paint0_radial_688_352)" fill-opacity="0.8"/>
<rect x="-490.888" y="-23.7988" width="1440" height="104" fill="url(#paint1_radial_688_352)" fill-opacity="0.44"/>
<rect x="-490.888" y="-23.7988" width="1440" height="104" fill="url(#paint2_linear_688_352)" fill-opacity="0.2"/>
<rect x="-490.888" y="-23.7988" width="1440" height="104" fill="url(#paint3_linear_688_352)" fill-opacity="0.4"/>
<rect x="-490.888" y="-23.7988" width="1440" height="104" fill="url(#paint4_radial_688_352)" fill-opacity="0.2"/>
<g filter="url(#filter0_f_688_352)">
<ellipse cx="-182.684" cy="29.9012" rx="152.571" ry="56.4656" transform="rotate(-7.00215 -182.684 29.9012)" fill="url(#paint5_radial_688_352)" fill-opacity="0.6"/>
</g>
<path d="M110.8 42V29.088H114.52V34.128H120.136V29.088H123.88V42H120.136V37.176H114.52V42H110.8ZM135.672 42V39.48L135.432 38.928V34.416C135.432 33.616 135.184 32.992 134.688 32.544C134.208 32.096 133.464 31.872 132.456 31.872C131.768 31.872 131.088 31.984 130.416 32.208C129.76 32.416 129.2 32.704 128.736 33.072L127.392 30.456C128.096 29.96 128.944 29.576 129.936 29.304C130.928 29.032 131.936 28.896 132.96 28.896C134.928 28.896 136.456 29.36 137.544 30.288C138.632 31.216 139.176 32.664 139.176 34.632V42H135.672ZM131.736 42.192C130.728 42.192 129.864 42.024 129.144 41.688C128.424 41.336 127.872 40.864 127.488 40.272C127.104 39.68 126.912 39.016 126.912 38.28C126.912 37.512 127.096 36.84 127.464 36.264C127.848 35.688 128.448 35.24 129.264 34.92C130.08 34.584 131.144 34.416 132.456 34.416H135.888V36.6H132.864C131.984 36.6 131.376 36.744 131.04 37.032C130.72 37.32 130.56 37.68 130.56 38.112C130.56 38.592 130.744 38.976 131.112 39.264C131.496 39.536 132.016 39.672 132.672 39.672C133.296 39.672 133.856 39.528 134.352 39.24C134.848 38.936 135.208 38.496 135.432 37.92L136.008 39.648C135.736 40.48 135.24 41.112 134.52 41.544C133.8 41.976 132.872 42.192 131.736 42.192ZM142.908 42V29.088H146.628V36.768L152.916 29.088H156.348V42H152.628V34.32L146.364 42H142.908ZM149.388 27.696C147.98 27.696 146.924 27.392 146.22 26.784C145.516 26.16 145.156 25.224 145.14 23.976H147.588C147.604 24.52 147.756 24.952 148.044 25.272C148.332 25.592 148.772 25.752 149.364 25.752C149.94 25.752 150.38 25.592 150.684 25.272C151.004 24.952 151.164 24.52 151.164 23.976H153.66C153.66 25.224 153.3 26.16 152.58 26.784C151.86 27.392 150.796 27.696 149.388 27.696ZM163.187 42V31.296L164.027 32.16H158.819V29.088H171.275V32.16H166.067L166.907 31.296V42H163.187ZM173.751 42V29.088H177.471V36.768L183.759 29.088H187.191V42H183.471V34.32L177.207 42H173.751ZM198.547 42V29.088H211.387V42H207.643V31.32L208.483 32.16H201.427L202.267 31.32V42H198.547ZM221.505 42.192C220.129 42.192 218.905 41.904 217.833 41.328C216.777 40.752 215.937 39.968 215.313 38.976C214.705 37.968 214.401 36.824 214.401 35.544C214.401 34.248 214.705 33.104 215.313 32.112C215.937 31.104 216.777 30.32 217.833 29.76C218.905 29.184 220.129 28.896 221.505 28.896C222.865 28.896 224.081 29.184 225.153 29.76C226.225 30.32 227.065 31.096 227.673 32.088C228.281 33.08 228.585 34.232 228.585 35.544C228.585 36.824 228.281 37.968 227.673 38.976C227.065 39.968 226.225 40.752 225.153 41.328C224.081 41.904 222.865 42.192 221.505 42.192ZM221.505 39.12C222.129 39.12 222.689 38.976 223.185 38.688C223.681 38.4 224.073 37.992 224.361 37.464C224.649 36.92 224.793 36.28 224.793 35.544C224.793 34.792 224.649 34.152 224.361 33.624C224.073 33.096 223.681 32.688 223.185 32.4C222.689 32.112 222.129 31.968 221.505 31.968C220.881 31.968 220.321 32.112 219.825 32.4C219.329 32.688 218.929 33.096 218.625 33.624C218.337 34.152 218.193 34.792 218.193 35.544C218.193 36.28 218.337 36.92 218.625 37.464C218.929 37.992 219.329 38.4 219.825 38.688C220.321 38.976 220.881 39.12 221.505 39.12ZM231.64 42V29.088H244.48V42H240.736V31.32L241.576 32.16H234.52L235.36 31.32V42H231.64ZM250.302 46.848C249.63 46.848 248.966 46.744 248.31 46.536C247.654 46.328 247.118 46.04 246.702 45.672L248.07 43.008C248.358 43.264 248.686 43.464 249.054 43.608C249.438 43.752 249.814 43.824 250.182 43.824C250.71 43.824 251.126 43.696 251.43 43.44C251.75 43.2 252.038 42.792 252.294 42.216L252.966 40.632L253.254 40.224L257.886 29.088H261.486L255.654 42.792C255.238 43.832 254.758 44.648 254.214 45.24C253.686 45.832 253.094 46.248 252.438 46.488C251.798 46.728 251.086 46.848 250.302 46.848ZM252.51 42.504L246.75 29.088H250.614L255.078 39.888L252.51 42.504ZM266.602 42V31.296L267.442 32.16H262.234V29.088H274.69V32.16H269.482L270.322 31.296V42H266.602ZM286.31 42L281.99 35.88L285.038 34.08L290.726 42H286.31ZM277.166 42V29.088H280.91V42H277.166ZM279.806 37.104V34.104H284.318V37.104H279.806ZM285.398 35.976L281.894 35.592L286.43 29.088H290.414L285.398 35.976ZM294.07 46.848C293.398 46.848 292.734 46.744 292.078 46.536C291.422 46.328 290.886 46.04 290.47 45.672L291.838 43.008C292.126 43.264 292.454 43.464 292.822 43.608C293.206 43.752 293.582 43.824 293.95 43.824C294.478 43.824 294.894 43.696 295.198 43.44C295.518 43.2 295.806 42.792 296.062 42.216L296.734 40.632L297.022 40.224L301.654 29.088H305.254L299.422 42.792C299.006 43.832 298.526 44.648 297.982 45.24C297.454 45.832 296.862 46.248 296.206 46.488C295.566 46.728 294.854 46.848 294.07 46.848ZM296.278 42.504L290.518 29.088H294.382L298.846 39.888L296.278 42.504Z" fill="black" fill-opacity="0.9"/>
<circle cx="41.75" cy="32.75" r="15.75" stroke="black" stroke-opacity="0.9" stroke-width="3"/>
<path d="M41.75 26C40.8636 26 39.9858 26.1746 39.1669 26.5138C38.3479 26.853 37.6038 27.3502 36.977 27.977C36.3502 28.6038 35.853 29.3479 35.5138 30.1669C35.1746 30.9858 35 31.8636 35 32.75" stroke="black" stroke-opacity="0.9" stroke-width="3" stroke-linecap="round"/>
<circle cx="70.0832" cy="27.0832" r="6.41667" stroke="black" stroke-opacity="0.9" stroke-width="2"/>
<path d="M70.0835 24.3335C69.7224 24.3335 69.3648 24.4046 69.0311 24.5428C68.6975 24.681 68.3943 24.8836 68.139 25.139C67.8836 25.3943 67.681 25.6975 67.5428 26.0311C67.4046 26.3648 67.3335 26.7224 67.3335 27.0835" stroke="black" stroke-opacity="0.9" stroke-width="2" stroke-linecap="round"/>
<path d="M78.3335 35.3335L75.5835 32.5835" stroke="black" stroke-opacity="0.9" stroke-width="2" stroke-linecap="round"/>
<path d="M59.9393 53.0607C60.5251 53.6464 61.4749 53.6464 62.0607 53.0607C62.6464 52.4749 62.6464 51.5251 62.0607 50.9393L59.9393 53.0607ZM51.9393 45.0607L59.9393 53.0607L62.0607 50.9393L54.0607 42.9393L51.9393 45.0607Z" fill="black" fill-opacity="0.9"/>
</g>
<rect x="0.5" y="0.5" width="349" height="69" rx="34.5" stroke="url(#paint6_linear_688_352)"/>
<defs>
<filter id="filter0_f_688_352" x="-384.276" y="-79.165" width="403.184" height="218.132" filterUnits="userSpaceOnUse" color-interpolation-filters="sRGB">
<feFlood flood-opacity="0" result="BackgroundImageFix"/>
<feBlend mode="normal" in="SourceGraphic" in2="BackgroundImageFix" result="shape"/>
<feGaussianBlur stdDeviation="25" result="effect1_foregroundBlur_688_352"/>
</filter>
<radialGradient id="paint0_radial_688_352" cx="0" cy="0" r="1" gradientUnits="userSpaceOnUse" gradientTransform="translate(101.612 28.2012) rotate(-28.8635) scale(786.163 322.242)">
<stop stop-color="#96F06C"/>
<stop offset="1" stop-color="#00A5C9"/>
</radialGradient>
<radialGradient id="paint1_radial_688_352" cx="0" cy="0" r="1" gradientUnits="userSpaceOnUse" gradientTransform="translate(392.612 45.2013) rotate(135.905) scale(313.287 4337.83)">
<stop stop-color="#51FAB3"/>
<stop offset="0.8629" stop-color="#00FF94" stop-opacity="0"/>
</radialGradient>
<linearGradient id="paint2_linear_688_352" x1="220.112" y1="-23.7988" x2="248.612" y2="307.201" gradientUnits="userSpaceOnUse">
<stop stop-color="#0CD3FF"/>
<stop offset="1" stop-color="#1CD08F" stop-opacity="0"/>
</linearGradient>
<linearGradient id="paint3_linear_688_352" x1="958.112" y1="-23.799" x2="605.112" y2="93.7011" gradientUnits="userSpaceOnUse">
<stop stop-color="#00FFA3"/>
<stop offset="0.0001" stop-color="#00FFA3"/>
<stop offset="0.95625" stop-color="#00FEA3" stop-opacity="0"/>
</linearGradient>
<radialGradient id="paint4_radial_688_352" cx="0" cy="0" r="1" gradientUnits="userSpaceOnUse" gradientTransform="translate(-5.88815 665.701) rotate(8.91309) scale(300.124 4155.57)">
<stop offset="0.0207011" stop-color="#6CF0A1"/>
<stop offset="1" stop-opacity="0"/>
</radialGradient>
<radialGradient id="paint5_radial_688_352" cx="0" cy="0" r="1" gradientUnits="userSpaceOnUse" gradientTransform="translate(-182.684 29.9012) rotate(90) scale(56.4656 152.571)">
<stop stop-color="#3F93A6" stop-opacity="0.6"/>
<stop offset="1" stop-color="#186586" stop-opacity="0"/>
</radialGradient>
<linearGradient id="paint6_linear_688_352" x1="175" y1="0" x2="175" y2="70" gradientUnits="userSpaceOnUse">
<stop stop-opacity="0.75"/>
<stop offset="0.9875" stop-opacity="0.6"/>
</linearGradient>
<clipPath id="clip0_688_352">
<rect width="350" height="70" rx="35" fill="white"/>
</clipPath>
</defs>
</svg>
