<svg width="350" height="48" viewBox="0 0 350 48" fill="none" xmlns="http://www.w3.org/2000/svg">
<g clip-path="url(#clip0_726_1536)">
<path d="M1205.5 -23.7988H-234.5V80.2012H1205.5V-23.7988Z" fill="url(#paint0_radial_726_1536)" fill-opacity="0.8"/>
<path d="M1205.5 -23.7988H-234.5V80.2012H1205.5V-23.7988Z" fill="url(#paint1_radial_726_1536)" fill-opacity="0.44"/>
<path d="M1205.5 -23.7988H-234.5V80.2012H1205.5V-23.7988Z" fill="url(#paint2_linear_726_1536)" fill-opacity="0.2"/>
<path d="M1205.5 -23.7988H-234.5V80.2012H1205.5V-23.7988Z" fill="url(#paint3_linear_726_1536)" fill-opacity="0.4"/>
<path d="M1205.5 -23.7988H-234.5V80.2012H1205.5V-23.7988Z" fill="url(#paint4_radial_726_1536)" fill-opacity="0.2"/>
<g filter="url(#filter0_f_726_1536)">
<ellipse cx="152.571" cy="56.4656" rx="152.571" ry="56.4656" transform="matrix(-0.992542 -0.121907 -0.121907 0.992542 691 -7.54395)" fill="url(#paint5_radial_726_1536)" fill-opacity="0.6"/>
</g>
<path d="M199.2 29V20.392H201.68V23.752H205.424V20.392H207.92V29H205.424V25.784H201.68V29H199.2ZM215.781 29V27.32L215.621 26.952V23.944C215.621 23.4107 215.456 22.9947 215.125 22.696C214.805 22.3973 214.309 22.248 213.637 22.248C213.179 22.248 212.725 22.3227 212.277 22.472C211.84 22.6107 211.467 22.8027 211.157 23.048L210.261 21.304C210.731 20.9733 211.296 20.7173 211.957 20.536C212.619 20.3547 213.291 20.264 213.973 20.264C215.285 20.264 216.304 20.5733 217.029 21.192C217.755 21.8107 218.117 22.776 218.117 24.088V29H215.781ZM213.157 29.128C212.485 29.128 211.909 29.016 211.429 28.792C210.949 28.5573 210.581 28.2427 210.325 27.848C210.069 27.4533 209.941 27.0107 209.941 26.52C209.941 26.008 210.064 25.56 210.309 25.176C210.565 24.792 210.965 24.4933 211.509 24.28C212.053 24.056 212.763 23.944 213.637 23.944H215.925V25.4H213.909C213.323 25.4 212.917 25.496 212.693 25.688C212.48 25.88 212.373 26.12 212.373 26.408C212.373 26.728 212.496 26.984 212.741 27.176C212.997 27.3573 213.344 27.448 213.781 27.448C214.197 27.448 214.571 27.352 214.901 27.16C215.232 26.9573 215.472 26.664 215.621 26.28L216.005 27.432C215.824 27.9867 215.493 28.408 215.013 28.696C214.533 28.984 213.915 29.128 213.157 29.128ZM220.606 29V20.392H223.086V25.512L227.278 20.392H229.566V29H227.086V23.88L222.91 29H220.606ZM224.926 19.464C223.987 19.464 223.283 19.2613 222.814 18.856C222.344 18.44 222.104 17.816 222.094 16.984H223.726C223.736 17.3467 223.838 17.6347 224.03 17.848C224.222 18.0613 224.515 18.168 224.91 18.168C225.294 18.168 225.587 18.0613 225.79 17.848C226.003 17.6347 226.11 17.3467 226.11 16.984H227.774C227.774 17.816 227.534 18.44 227.054 18.856C226.574 19.2613 225.864 19.464 224.926 19.464ZM234.125 29V21.864L234.685 22.44H231.213V20.392H239.517V22.44H236.045L236.605 21.864V29H234.125ZM241.167 29V20.392H243.647V25.512L247.839 20.392H250.127V29H247.647V23.88L243.471 29H241.167ZM257.698 29V20.392H266.258V29H263.762V21.88L264.322 22.44H259.618L260.178 21.88V29H257.698ZM273.003 29.128C272.086 29.128 271.27 28.936 270.555 28.552C269.851 28.168 269.291 27.6453 268.875 26.984C268.47 26.312 268.267 25.5493 268.267 24.696C268.267 23.832 268.47 23.0693 268.875 22.408C269.291 21.736 269.851 21.2133 270.555 20.84C271.27 20.456 272.086 20.264 273.003 20.264C273.91 20.264 274.721 20.456 275.435 20.84C276.15 21.2133 276.71 21.7307 277.115 22.392C277.521 23.0533 277.723 23.8213 277.723 24.696C277.723 25.5493 277.521 26.312 277.115 26.984C276.71 27.6453 276.15 28.168 275.435 28.552C274.721 28.936 273.91 29.128 273.003 29.128ZM273.003 27.08C273.419 27.08 273.793 26.984 274.123 26.792C274.454 26.6 274.715 26.328 274.907 25.976C275.099 25.6133 275.195 25.1867 275.195 24.696C275.195 24.1947 275.099 23.768 274.907 23.416C274.715 23.064 274.454 22.792 274.123 22.6C273.793 22.408 273.419 22.312 273.003 22.312C272.587 22.312 272.214 22.408 271.883 22.6C271.553 22.792 271.286 23.064 271.083 23.416C270.891 23.768 270.795 24.1947 270.795 24.696C270.795 25.1867 270.891 25.6133 271.083 25.976C271.286 26.328 271.553 26.6 271.883 26.792C272.214 26.984 272.587 27.08 273.003 27.08ZM279.76 29V20.392H288.32V29H285.824V21.88L286.384 22.44H281.68L282.24 21.88V29H279.76ZM292.201 32.232C291.753 32.232 291.31 32.1627 290.873 32.024C290.436 31.8853 290.078 31.6933 289.801 31.448L290.713 29.672C290.905 29.8427 291.124 29.976 291.369 30.072C291.625 30.168 291.876 30.216 292.121 30.216C292.473 30.216 292.75 30.1307 292.953 29.96C293.166 29.8 293.358 29.528 293.529 29.144L293.977 28.088L294.169 27.816L297.257 20.392H299.657L295.769 29.528C295.492 30.2213 295.172 30.7653 294.809 31.16C294.457 31.5547 294.062 31.832 293.625 31.992C293.198 32.152 292.724 32.232 292.201 32.232ZM293.673 29.336L289.833 20.392H292.409L295.385 27.592L293.673 29.336ZM303.068 29V21.864L303.628 22.44H300.156V20.392H308.46V22.44H304.988L305.548 21.864V29H303.068ZM316.207 29L313.327 24.92L315.359 23.72L319.151 29H316.207ZM310.111 29V20.392H312.607V29H310.111ZM311.871 25.736V23.736H314.879V25.736H311.871ZM315.599 24.984L313.263 24.728L316.287 20.392H318.943L315.599 24.984ZM321.38 32.232C320.932 32.232 320.489 32.1627 320.052 32.024C319.615 31.8853 319.257 31.6933 318.98 31.448L319.892 29.672C320.084 29.8427 320.303 29.976 320.548 30.072C320.804 30.168 321.055 30.216 321.3 30.216C321.652 30.216 321.929 30.1307 322.132 29.96C322.345 29.8 322.537 29.528 322.708 29.144L323.156 28.088L323.348 27.816L326.436 20.392H328.836L324.948 29.528C324.671 30.2213 324.351 30.7653 323.988 31.16C323.636 31.5547 323.241 31.832 322.804 31.992C322.377 32.152 321.903 32.232 321.38 32.232ZM322.852 29.336L319.012 20.392H321.588L324.564 27.592L322.852 29.336Z" fill="black" fill-opacity="0.9"/>
</g>
<rect x="-0.5" y="0.5" width="349" height="47" rx="23.5" transform="matrix(-1 0 0 1 349 0)" stroke="url(#paint6_linear_726_1536)"/>
<defs>
<filter id="filter0_f_726_1536" x="331.092" y="-79.165" width="403.184" height="218.132" filterUnits="userSpaceOnUse" color-interpolation-filters="sRGB">
<feFlood flood-opacity="0" result="BackgroundImageFix"/>
<feBlend mode="normal" in="SourceGraphic" in2="BackgroundImageFix" result="shape"/>
<feGaussianBlur stdDeviation="25" result="effect1_foregroundBlur_726_1536"/>
</filter>
<radialGradient id="paint0_radial_726_1536" cx="0" cy="0" r="1" gradientUnits="userSpaceOnUse" gradientTransform="translate(248.389 28.2012) rotate(-151.137) scale(786.163 322.242)">
<stop stop-color="#96F06C"/>
<stop offset="1" stop-color="#00A5C9"/>
</radialGradient>
<radialGradient id="paint1_radial_726_1536" cx="0" cy="0" r="1" gradientUnits="userSpaceOnUse" gradientTransform="translate(-42.6116 45.2016) rotate(44.0947) scale(313.287 4337.83)">
<stop stop-color="#51FAB3"/>
<stop offset="0.8629" stop-color="#00FF94" stop-opacity="0"/>
</radialGradient>
<linearGradient id="paint2_linear_726_1536" x1="129.889" y1="-23.7988" x2="101.389" y2="307.201" gradientUnits="userSpaceOnUse">
<stop stop-color="#0CD3FF"/>
<stop offset="1" stop-color="#1CD08F" stop-opacity="0"/>
</linearGradient>
<linearGradient id="paint3_linear_726_1536" x1="-608.111" y1="-23.7986" x2="-255.111" y2="93.7015" gradientUnits="userSpaceOnUse">
<stop stop-color="#00FFA3"/>
<stop offset="0.0001" stop-color="#00FFA3"/>
<stop offset="0.95625" stop-color="#00FEA3" stop-opacity="0"/>
</linearGradient>
<radialGradient id="paint4_radial_726_1536" cx="0" cy="0" r="1" gradientUnits="userSpaceOnUse" gradientTransform="translate(355.889 665.701) rotate(171.087) scale(300.124 4155.57)">
<stop offset="0.0207011" stop-color="#6CF0A1"/>
<stop offset="1" stop-opacity="0"/>
</radialGradient>
<radialGradient id="paint5_radial_726_1536" cx="0" cy="0" r="1" gradientUnits="userSpaceOnUse" gradientTransform="translate(152.571 56.4656) rotate(90) scale(56.4656 152.571)">
<stop stop-color="#3F93A6" stop-opacity="0.6"/>
<stop offset="1" stop-color="#186586" stop-opacity="0"/>
</radialGradient>
<linearGradient id="paint6_linear_726_1536" x1="175" y1="0" x2="175" y2="48" gradientUnits="userSpaceOnUse">
<stop stop-opacity="0.75"/>
<stop offset="0.9875" stop-opacity="0.6"/>
</linearGradient>
<clipPath id="clip0_726_1536">
<rect width="350" height="48" rx="24" transform="matrix(-1 0 0 1 350 0)" fill="white"/>
</clipPath>
</defs>
</svg>
