<svg width="93" height="12" viewBox="0 0 93 12" fill="none" xmlns="http://www.w3.org/2000/svg">
<path d="M0.666667 6C0.666667 8.94552 3.05448 11.3333 6 11.3333C8.94552 11.3333 11.3333 8.94552 11.3333 6C11.3333 3.05448 8.94552 0.666667 6 0.666667C3.05448 0.666667 0.666667 3.05448 0.666667 6ZM81.6667 6C81.6667 8.94552 84.0545 11.3333 87 11.3333C89.9455 11.3333 92.3333 8.94552 92.3333 6C92.3333 3.05448 89.9455 0.666667 87 0.666667C84.0545 0.666667 81.6667 3.05448 81.6667 6ZM6 7H87V5H6V7Z" fill="#080808"/>
</svg>
