<svg width="276" height="48" viewBox="0 0 276 48" fill="none" xmlns="http://www.w3.org/2000/svg">
<g clip-path="url(#clip0_744_604)">
<rect x="-490.889" y="-23.7988" width="1440" height="104" fill="url(#paint0_radial_744_604)" fill-opacity="0.8"/>
<rect x="-490.889" y="-23.7988" width="1440" height="104" fill="url(#paint1_radial_744_604)" fill-opacity="0.44"/>
<rect x="-490.889" y="-23.7988" width="1440" height="104" fill="url(#paint2_linear_744_604)" fill-opacity="0.2"/>
<rect x="-490.889" y="-23.7988" width="1440" height="104" fill="url(#paint3_linear_744_604)" fill-opacity="0.4"/>
<rect x="-490.889" y="-23.7988" width="1440" height="104" fill="url(#paint4_radial_744_604)" fill-opacity="0.2"/>
<g filter="url(#filter0_f_744_604)">
<ellipse cx="-182.684" cy="29.9012" rx="152.571" ry="56.4656" transform="rotate(-7.00215 -182.684 29.9012)" fill="url(#paint5_radial_744_604)" fill-opacity="0.6"/>
</g>
<path d="M23.2 29V20.392H31.76V29H29.264V21.88L29.824 22.44H25.12L25.68 21.88V29H23.2ZM38.6811 29.128C37.6998 29.128 36.8358 28.936 36.0891 28.552C35.3531 28.168 34.7825 27.6453 34.3771 26.984C33.9718 26.312 33.7691 25.5493 33.7691 24.696C33.7691 23.832 33.9665 23.0693 34.3611 22.408C34.7665 21.736 35.3158 21.2133 36.0091 20.84C36.7025 20.456 37.4865 20.264 38.3611 20.264C39.2038 20.264 39.9611 20.4453 40.6331 20.808C41.3158 21.16 41.8545 21.672 42.2491 22.344C42.6438 23.0053 42.8411 23.8 42.8411 24.728C42.8411 24.824 42.8358 24.936 42.8251 25.064C42.8145 25.1813 42.8038 25.2933 42.7931 25.4H35.8011V23.944H41.4811L40.5211 24.376C40.5211 23.928 40.4305 23.5387 40.2491 23.208C40.0678 22.8773 39.8171 22.6213 39.4971 22.44C39.1771 22.248 38.8038 22.152 38.3771 22.152C37.9505 22.152 37.5718 22.248 37.2411 22.44C36.9211 22.6213 36.6705 22.8827 36.4891 23.224C36.3078 23.5547 36.2171 23.9493 36.2171 24.408V24.792C36.2171 25.2613 36.3185 25.6773 36.5211 26.04C36.7345 26.392 37.0278 26.664 37.4011 26.856C37.7851 27.0373 38.2331 27.128 38.7451 27.128C39.2038 27.128 39.6038 27.0587 39.9451 26.92C40.2971 26.7813 40.6171 26.5733 40.9051 26.296L42.2331 27.736C41.8385 28.184 41.3425 28.5307 40.7451 28.776C40.1478 29.0107 39.4598 29.128 38.6811 29.128ZM50.1464 29.128C49.421 29.128 48.7864 28.968 48.2424 28.648C47.6984 28.328 47.2717 27.8427 46.9624 27.192C46.6637 26.5307 46.5144 25.6987 46.5144 24.696C46.5144 23.6827 46.6584 22.8507 46.9464 22.2C47.2344 21.5493 47.6504 21.064 48.1944 20.744C48.7384 20.424 49.389 20.264 50.1464 20.264C50.957 20.264 51.6824 20.4507 52.3224 20.824C52.973 21.1867 53.485 21.6987 53.8584 22.36C54.2424 23.0213 54.4344 23.8 54.4344 24.696C54.4344 25.6027 54.2424 26.3867 53.8584 27.048C53.485 27.7093 52.973 28.2213 52.3224 28.584C51.6824 28.9467 50.957 29.128 50.1464 29.128ZM45.0584 32.104V20.392H47.4424V22.152L47.3944 24.712L47.5544 27.256V32.104H45.0584ZM49.7144 27.08C50.1304 27.08 50.4984 26.984 50.8184 26.792C51.149 26.6 51.4104 26.328 51.6024 25.976C51.805 25.6133 51.9064 25.1867 51.9064 24.696C51.9064 24.1947 51.805 23.768 51.6024 23.416C51.4104 23.064 51.149 22.792 50.8184 22.6C50.4984 22.408 50.1304 22.312 49.7144 22.312C49.2984 22.312 48.925 22.408 48.5944 22.6C48.2637 22.792 48.0024 23.064 47.8104 23.416C47.6184 23.768 47.5224 24.1947 47.5224 24.696C47.5224 25.1867 47.6184 25.6133 47.8104 25.976C48.0024 26.328 48.2637 26.6 48.5944 26.792C48.925 26.984 49.2984 27.08 49.7144 27.08ZM60.7117 29.128C59.7304 29.128 58.8664 28.936 58.1197 28.552C57.3837 28.168 56.8131 27.6453 56.4077 26.984C56.0024 26.312 55.7997 25.5493 55.7997 24.696C55.7997 23.832 55.9971 23.0693 56.3917 22.408C56.7971 21.736 57.3464 21.2133 58.0397 20.84C58.7331 20.456 59.5171 20.264 60.3917 20.264C61.2344 20.264 61.9917 20.4453 62.6637 20.808C63.3464 21.16 63.8851 21.672 64.2797 22.344C64.6744 23.0053 64.8717 23.8 64.8717 24.728C64.8717 24.824 64.8664 24.936 64.8557 25.064C64.8451 25.1813 64.8344 25.2933 64.8237 25.4H57.8317V23.944H63.5117L62.5517 24.376C62.5517 23.928 62.4611 23.5387 62.2797 23.208C62.0984 22.8773 61.8477 22.6213 61.5277 22.44C61.2077 22.248 60.8344 22.152 60.4077 22.152C59.9811 22.152 59.6024 22.248 59.2717 22.44C58.9517 22.6213 58.7011 22.8827 58.5197 23.224C58.3384 23.5547 58.2477 23.9493 58.2477 24.408V24.792C58.2477 25.2613 58.3491 25.6773 58.5517 26.04C58.7651 26.392 59.0584 26.664 59.4317 26.856C59.8157 27.0373 60.2637 27.128 60.7757 27.128C61.2344 27.128 61.6344 27.0587 61.9757 26.92C62.3277 26.7813 62.6477 26.5733 62.9357 26.296L64.2637 27.736C63.8691 28.184 63.3731 28.5307 62.7757 28.776C62.1784 29.0107 61.4904 29.128 60.7117 29.128ZM67.105 29V20.392H69.585V25.512L73.777 20.392H76.065V29H73.585V23.88L69.409 29H67.105ZM71.425 19.464C70.4863 19.464 69.7823 19.2613 69.313 18.856C68.8437 18.44 68.6037 17.816 68.593 16.984H70.225C70.2357 17.3467 70.337 17.6347 70.529 17.848C70.721 18.0613 71.0143 18.168 71.409 18.168C71.793 18.168 72.0863 18.0613 72.289 17.848C72.5023 17.6347 72.609 17.3467 72.609 16.984H74.273C74.273 17.816 74.033 18.44 73.553 18.856C73.073 19.2613 72.3637 19.464 71.425 19.464ZM80.6244 29V21.864L81.1844 22.44H77.7124V20.392H86.0164V22.44H82.5444L83.1044 21.864V29H80.6244ZM87.6669 29V20.392H90.1469V25.512L94.3389 20.392H96.6269V29H94.1469V23.88L89.9709 29H87.6669ZM110.293 29L107.413 24.92L109.445 23.72L113.237 29H110.293ZM104.197 29V20.392H106.693V29H104.197ZM105.957 25.736V23.736H108.965V25.736H105.957ZM109.685 24.984L107.349 24.728L110.373 20.392H113.029L109.685 24.984ZM119.634 29V20.392H122.114V23.752H125.858V20.392H128.354V29H125.858V25.784H122.114V29H119.634ZM136.216 29V27.32L136.056 26.952V23.944C136.056 23.4107 135.89 22.9947 135.56 22.696C135.24 22.3973 134.744 22.248 134.072 22.248C133.613 22.248 133.16 22.3227 132.712 22.472C132.274 22.6107 131.901 22.8027 131.592 23.048L130.696 21.304C131.165 20.9733 131.73 20.7173 132.392 20.536C133.053 20.3547 133.725 20.264 134.408 20.264C135.72 20.264 136.738 20.5733 137.464 21.192C138.189 21.8107 138.552 22.776 138.552 24.088V29H136.216ZM133.592 29.128C132.92 29.128 132.344 29.016 131.864 28.792C131.384 28.5573 131.016 28.2427 130.76 27.848C130.504 27.4533 130.376 27.0107 130.376 26.52C130.376 26.008 130.498 25.56 130.744 25.176C131 24.792 131.4 24.4933 131.944 24.28C132.488 24.056 133.197 23.944 134.072 23.944H136.36V25.4H134.344C133.757 25.4 133.352 25.496 133.128 25.688C132.914 25.88 132.808 26.12 132.808 26.408C132.808 26.728 132.93 26.984 133.176 27.176C133.432 27.3573 133.778 27.448 134.216 27.448C134.632 27.448 135.005 27.352 135.336 27.16C135.666 26.9573 135.906 26.664 136.056 26.28L136.44 27.432C136.258 27.9867 135.928 28.408 135.448 28.696C134.968 28.984 134.349 29.128 133.592 29.128ZM141.04 29V20.392H149.6V29H147.104V21.88L147.664 22.44H142.96L143.52 21.88V29H141.04ZM157.385 29.128C156.66 29.128 156.025 28.968 155.481 28.648C154.937 28.328 154.51 27.8427 154.201 27.192C153.902 26.5307 153.753 25.6987 153.753 24.696C153.753 23.6827 153.897 22.8507 154.185 22.2C154.473 21.5493 154.889 21.064 155.433 20.744C155.977 20.424 156.628 20.264 157.385 20.264C158.196 20.264 158.921 20.4507 159.561 20.824C160.212 21.1867 160.724 21.6987 161.097 22.36C161.481 23.0213 161.673 23.8 161.673 24.696C161.673 25.6027 161.481 26.3867 161.097 27.048C160.724 27.7093 160.212 28.2213 159.561 28.584C158.921 28.9467 158.196 29.128 157.385 29.128ZM152.297 32.104V20.392H154.681V22.152L154.633 24.712L154.793 27.256V32.104H152.297ZM156.953 27.08C157.369 27.08 157.737 26.984 158.057 26.792C158.388 26.6 158.649 26.328 158.841 25.976C159.044 25.6133 159.145 25.1867 159.145 24.696C159.145 24.1947 159.044 23.768 158.841 23.416C158.649 23.064 158.388 22.792 158.057 22.6C157.737 22.408 157.369 22.312 156.953 22.312C156.537 22.312 156.164 22.408 155.833 22.6C155.502 22.792 155.241 23.064 155.049 23.416C154.857 23.768 154.761 24.1947 154.761 24.696C154.761 25.1867 154.857 25.6133 155.049 25.976C155.241 26.328 155.502 26.6 155.833 26.792C156.164 26.984 156.537 27.08 156.953 27.08ZM168.754 29V27.32L168.594 26.952V23.944C168.594 23.4107 168.429 22.9947 168.098 22.696C167.778 22.3973 167.282 22.248 166.61 22.248C166.151 22.248 165.698 22.3227 165.25 22.472C164.813 22.6107 164.439 22.8027 164.13 23.048L163.234 21.304C163.703 20.9733 164.269 20.7173 164.93 20.536C165.591 20.3547 166.263 20.264 166.946 20.264C168.258 20.264 169.277 20.5733 170.002 21.192C170.727 21.8107 171.09 22.776 171.09 24.088V29H168.754ZM166.13 29.128C165.458 29.128 164.882 29.016 164.402 28.792C163.922 28.5573 163.554 28.2427 163.298 27.848C163.042 27.4533 162.914 27.0107 162.914 26.52C162.914 26.008 163.037 25.56 163.282 25.176C163.538 24.792 163.938 24.4933 164.482 24.28C165.026 24.056 165.735 23.944 166.61 23.944H168.898V25.4H166.882C166.295 25.4 165.89 25.496 165.666 25.688C165.453 25.88 165.346 26.12 165.346 26.408C165.346 26.728 165.469 26.984 165.714 27.176C165.97 27.3573 166.317 27.448 166.754 27.448C167.17 27.448 167.543 27.352 167.874 27.16C168.205 26.9573 168.445 26.664 168.594 26.28L168.978 27.432C168.797 27.9867 168.466 28.408 167.986 28.696C167.506 28.984 166.887 29.128 166.13 29.128ZM173.578 29V20.392H177.978C179.055 20.392 179.898 20.5893 180.506 20.984C181.114 21.368 181.418 21.912 181.418 22.616C181.418 23.32 181.13 23.8747 180.554 24.28C179.989 24.6747 179.237 24.872 178.298 24.872L178.554 24.296C179.599 24.296 180.378 24.488 180.89 24.872C181.413 25.256 181.674 25.816 181.674 26.552C181.674 27.3093 181.386 27.9067 180.81 28.344C180.234 28.7813 179.354 29 178.17 29H173.578ZM175.866 27.304H177.962C178.421 27.304 178.762 27.2293 178.986 27.08C179.221 26.92 179.338 26.68 179.338 26.36C179.338 26.0293 179.231 25.7893 179.018 25.64C178.805 25.48 178.469 25.4 178.01 25.4H175.866V27.304ZM175.866 23.928H177.754C178.191 23.928 178.517 23.848 178.73 23.688C178.954 23.528 179.066 23.2987 179.066 23C179.066 22.6907 178.954 22.4613 178.73 22.312C178.517 22.1627 178.191 22.088 177.754 22.088H175.866V23.928ZM182.763 28.984L182.891 26.936C182.955 26.9467 183.019 26.9573 183.083 26.968C183.147 26.968 183.206 26.968 183.259 26.968C183.558 26.968 183.793 26.8827 183.963 26.712C184.134 26.5413 184.262 26.312 184.347 26.024C184.433 25.7253 184.491 25.3893 184.523 25.016C184.566 24.6427 184.598 24.2533 184.619 23.848L184.747 20.392H192.107V29H189.611V21.832L190.171 22.44H186.395L186.923 21.8L186.811 23.96C186.779 24.728 186.715 25.432 186.619 26.072C186.534 26.712 186.39 27.2667 186.187 27.736C185.985 28.1947 185.713 28.552 185.371 28.808C185.03 29.0533 184.593 29.176 184.059 29.176C183.867 29.176 183.665 29.16 183.451 29.128C183.238 29.096 183.009 29.048 182.763 28.984ZM199.036 29.128C198.054 29.128 197.19 28.936 196.444 28.552C195.708 28.168 195.137 27.6453 194.732 26.984C194.326 26.312 194.124 25.5493 194.124 24.696C194.124 23.832 194.321 23.0693 194.716 22.408C195.121 21.736 195.67 21.2133 196.364 20.84C197.057 20.456 197.841 20.264 198.716 20.264C199.558 20.264 200.316 20.4453 200.988 20.808C201.67 21.16 202.209 21.672 202.604 22.344C202.998 23.0053 203.196 23.8 203.196 24.728C203.196 24.824 203.19 24.936 203.18 25.064C203.169 25.1813 203.158 25.2933 203.148 25.4H196.156V23.944H201.836L200.876 24.376C200.876 23.928 200.785 23.5387 200.604 23.208C200.422 22.8773 200.172 22.6213 199.852 22.44C199.532 22.248 199.158 22.152 198.732 22.152C198.305 22.152 197.926 22.248 197.596 22.44C197.276 22.6213 197.025 22.8827 196.844 23.224C196.662 23.5547 196.572 23.9493 196.572 24.408V24.792C196.572 25.2613 196.673 25.6773 196.876 26.04C197.089 26.392 197.382 26.664 197.756 26.856C198.14 27.0373 198.588 27.128 199.1 27.128C199.558 27.128 199.958 27.0587 200.3 26.92C200.652 26.7813 200.972 26.5733 201.26 26.296L202.588 27.736C202.193 28.184 201.697 28.5307 201.1 28.776C200.502 29.0107 199.814 29.128 199.036 29.128ZM205.429 29V20.392H207.909V23.752H211.653V20.392H214.149V29H211.653V25.784H207.909V29H205.429ZM216.858 29V20.392H219.338V25.512L223.53 20.392H225.818V29H223.338V23.88L219.162 29H216.858ZM233.961 29V26.136L234.313 26.536H231.929C230.692 26.536 229.721 26.28 229.017 25.768C228.313 25.256 227.961 24.52 227.961 23.56C227.961 22.536 228.329 21.752 229.065 21.208C229.812 20.664 230.815 20.392 232.073 20.392H236.185V29H233.961ZM227.833 29L230.121 25.72H232.665L230.489 29H227.833ZM233.961 25.368V21.784L234.313 22.424H232.121C231.609 22.424 231.209 22.52 230.921 22.712C230.644 22.904 230.505 23.2133 230.505 23.64C230.505 24.4613 231.033 24.872 232.089 24.872H234.313L233.961 25.368ZM238.904 29V20.392H241.512L244.76 26.28H243.72L247.192 20.392H249.528L249.56 29H247.304V22.952L247.688 23.208L244.728 28.168H243.672L240.696 23.032L241.16 22.92V29H238.904Z" fill="black" fill-opacity="0.9"/>
</g>
<rect x="0.5" y="0.5" width="275" height="47" rx="23.5" stroke="url(#paint6_linear_744_604)"/>
<defs>
<filter id="filter0_f_744_604" x="-384.275" y="-79.165" width="403.184" height="218.132" filterUnits="userSpaceOnUse" color-interpolation-filters="sRGB">
<feFlood flood-opacity="0" result="BackgroundImageFix"/>
<feBlend mode="normal" in="SourceGraphic" in2="BackgroundImageFix" result="shape"/>
<feGaussianBlur stdDeviation="25" result="effect1_foregroundBlur_744_604"/>
</filter>
<radialGradient id="paint0_radial_744_604" cx="0" cy="0" r="1" gradientUnits="userSpaceOnUse" gradientTransform="translate(101.611 28.2012) rotate(-28.8635) scale(786.163 322.242)">
<stop stop-color="#96F06C"/>
<stop offset="1" stop-color="#00A5C9"/>
</radialGradient>
<radialGradient id="paint1_radial_744_604" cx="0" cy="0" r="1" gradientUnits="userSpaceOnUse" gradientTransform="translate(392.611 45.2013) rotate(135.905) scale(313.287 4337.83)">
<stop stop-color="#51FAB3"/>
<stop offset="0.8629" stop-color="#00FF94" stop-opacity="0"/>
</radialGradient>
<linearGradient id="paint2_linear_744_604" x1="220.111" y1="-23.7988" x2="248.611" y2="307.201" gradientUnits="userSpaceOnUse">
<stop stop-color="#0CD3FF"/>
<stop offset="1" stop-color="#1CD08F" stop-opacity="0"/>
</linearGradient>
<linearGradient id="paint3_linear_744_604" x1="958.111" y1="-23.799" x2="605.111" y2="93.7011" gradientUnits="userSpaceOnUse">
<stop stop-color="#00FFA3"/>
<stop offset="0.0001" stop-color="#00FFA3"/>
<stop offset="0.95625" stop-color="#00FEA3" stop-opacity="0"/>
</linearGradient>
<radialGradient id="paint4_radial_744_604" cx="0" cy="0" r="1" gradientUnits="userSpaceOnUse" gradientTransform="translate(-5.88863 665.701) rotate(8.91309) scale(300.124 4155.57)">
<stop offset="0.0207011" stop-color="#6CF0A1"/>
<stop offset="1" stop-opacity="0"/>
</radialGradient>
<radialGradient id="paint5_radial_744_604" cx="0" cy="0" r="1" gradientUnits="userSpaceOnUse" gradientTransform="translate(-182.684 29.9012) rotate(90) scale(56.4656 152.571)">
<stop stop-color="#3F93A6" stop-opacity="0.6"/>
<stop offset="1" stop-color="#186586" stop-opacity="0"/>
</radialGradient>
<linearGradient id="paint6_linear_744_604" x1="138" y1="0" x2="138" y2="48" gradientUnits="userSpaceOnUse">
<stop stop-opacity="0.75"/>
<stop offset="0.9875" stop-opacity="0.6"/>
</linearGradient>
<clipPath id="clip0_744_604">
<rect width="276" height="48" rx="24" fill="white"/>
</clipPath>
</defs>
</svg>
