<svg width="1440" height="132" viewBox="0 0 1440 132" fill="none" xmlns="http://www.w3.org/2000/svg">
<path d="M143.568 80V35.2H164.432C169.637 35.2 173.691 36.2027 176.592 38.208C179.493 40.2133 180.944 43.072 180.944 46.784C180.944 50.4533 179.579 53.312 176.848 55.36C174.117 57.3653 170.491 58.368 165.968 58.368L167.184 55.68C172.219 55.68 176.123 56.6827 178.896 58.688C181.669 60.6933 183.056 63.5947 183.056 67.392C183.056 71.3173 181.563 74.4107 178.576 76.672C175.632 78.8907 171.323 80 165.648 80H143.568ZM153.872 72.32H165.264C167.653 72.32 169.467 71.8507 170.704 70.912C171.941 69.9733 172.56 68.5227 172.56 66.56C172.56 64.6827 171.941 63.296 170.704 62.4C169.467 61.4613 167.653 60.992 165.264 60.992H153.872V72.32ZM153.872 53.76H163.536C165.797 53.76 167.504 53.312 168.656 52.416C169.808 51.4773 170.384 50.112 170.384 48.32C170.384 46.528 169.808 45.184 168.656 44.288C167.504 43.3493 165.797 42.88 163.536 42.88H153.872V53.76ZM207.896 80.512C204.226 80.512 200.962 79.744 198.103 78.208C195.287 76.672 193.047 74.5813 191.383 71.936C189.762 69.248 188.951 66.1973 188.951 62.784C188.951 59.328 189.762 56.2773 191.383 53.632C193.047 50.944 195.287 48.8533 198.103 47.36C200.962 45.824 204.226 45.056 207.896 45.056C211.522 45.056 214.765 45.824 217.624 47.36C220.482 48.8533 222.722 50.9227 224.344 53.568C225.965 56.2133 226.776 59.2853 226.776 62.784C226.776 66.1973 225.965 69.248 224.344 71.936C222.722 74.5813 220.482 76.672 217.624 78.208C214.765 79.744 211.522 80.512 207.896 80.512ZM207.896 72.32C209.56 72.32 211.053 71.936 212.375 71.168C213.698 70.4 214.744 69.312 215.511 67.904C216.279 66.4533 216.663 64.7467 216.663 62.784C216.663 60.7787 216.279 59.072 215.511 57.664C214.744 56.256 213.698 55.168 212.375 54.4C211.053 53.632 209.56 53.248 207.896 53.248C206.231 53.248 204.738 53.632 203.415 54.4C202.093 55.168 201.026 56.256 200.215 57.664C199.447 59.072 199.063 60.7787 199.063 62.784C199.063 64.7467 199.447 66.4533 200.215 67.904C201.026 69.312 202.093 70.4 203.415 71.168C204.738 71.936 206.231 72.32 207.896 72.32ZM245.945 80.64C243.3 80.64 240.655 80.3627 238.009 79.808C235.407 79.2533 232.996 78.4213 230.777 77.312L233.465 70.336C235.215 71.1893 237.113 71.8507 239.161 72.32C241.252 72.7467 243.364 72.96 245.497 72.96C247.033 72.96 248.356 72.8107 249.465 72.512C250.617 72.1707 251.492 71.7013 252.089 71.104C252.687 70.5067 252.985 69.7813 252.985 68.928C252.985 67.8187 252.516 66.9867 251.577 66.432C250.639 65.8347 249.273 65.536 247.481 65.536H240.441V59.328H246.649C247.801 59.328 248.783 59.2 249.593 58.944C250.404 58.688 251.001 58.3253 251.385 57.856C251.812 57.344 252.025 56.7467 252.025 56.064C252.025 55.3387 251.769 54.72 251.257 54.208C250.745 53.696 249.999 53.312 249.017 53.056C248.036 52.7573 246.799 52.608 245.305 52.608C243.599 52.608 241.828 52.8213 239.993 53.248C238.159 53.632 236.281 54.208 234.361 54.976L231.929 48.064C234.191 47.1253 236.431 46.3787 238.649 45.824C240.868 45.2693 243.065 44.9707 245.241 44.928C248.441 44.8427 251.321 45.184 253.881 45.952C256.441 46.72 258.447 47.8293 259.897 49.28C261.391 50.7307 262.138 52.5013 262.138 54.592C262.138 56.256 261.626 57.7493 260.601 59.072C259.62 60.3947 258.255 61.44 256.505 62.208C254.756 62.9333 252.793 63.296 250.617 63.296L250.873 61.312C254.671 61.312 257.657 62.08 259.833 63.616C262.009 65.1093 263.097 67.1573 263.097 69.76C263.097 71.9787 262.329 73.92 260.793 75.584C259.3 77.2053 257.252 78.464 254.649 79.36C252.089 80.2133 249.188 80.64 245.945 80.64ZM271.515 80V45.568H281.947L294.939 69.12H290.779L304.667 45.568H314.011L314.139 80H305.115V55.808L306.651 56.832L294.811 76.672H290.587L278.683 56.128L280.539 55.68V80H271.515ZM341.11 80.512C337.441 80.512 334.177 79.744 331.318 78.208C328.502 76.672 326.262 74.5813 324.598 71.936C322.977 69.248 322.166 66.1973 322.166 62.784C322.166 59.328 322.977 56.2773 324.598 53.632C326.262 50.944 328.502 48.8533 331.318 47.36C334.177 45.824 337.441 45.056 341.11 45.056C344.737 45.056 347.98 45.824 350.838 47.36C353.697 48.8533 355.937 50.9227 357.558 53.568C359.18 56.2133 359.99 59.2853 359.99 62.784C359.99 66.1973 359.18 69.248 357.558 71.936C355.937 74.5813 353.697 76.672 350.838 78.208C347.98 79.744 344.737 80.512 341.11 80.512ZM341.11 72.32C342.774 72.32 344.268 71.936 345.59 71.168C346.913 70.4 347.958 69.312 348.726 67.904C349.494 66.4533 349.878 64.7467 349.878 62.784C349.878 60.7787 349.494 59.072 348.726 57.664C347.958 56.256 346.913 55.168 345.59 54.4C344.268 53.632 342.774 53.248 341.11 53.248C339.446 53.248 337.953 53.632 336.63 54.4C335.308 55.168 334.241 56.256 333.43 57.664C332.662 59.072 332.278 60.7787 332.278 62.784C332.278 64.7467 332.662 66.4533 333.43 67.904C334.241 69.312 335.308 70.4 336.63 71.168C337.953 71.936 339.446 72.32 341.11 72.32ZM408.483 80L399.331 63.68L407.395 58.88L420.323 80H408.483ZM393.443 66.944V58.944H405.411V66.944H393.443ZM408.419 63.936L399.011 62.912L408.931 45.568H419.491L408.419 63.936ZM374.435 80H362.659L375.523 58.88L383.587 63.68L374.435 80ZM396.387 80H386.531V45.568H396.387V80ZM389.475 66.944H377.571V58.944H389.475V66.944ZM374.499 63.936L363.427 45.568H373.987L383.843 62.912L374.499 63.936ZM426.792 80V45.568H436.712V59.008H451.688V45.568H461.672V80H451.688V67.136H436.712V80H426.792ZM488.638 80.512C484.969 80.512 481.705 79.744 478.846 78.208C476.03 76.672 473.79 74.5813 472.126 71.936C470.505 69.248 469.694 66.1973 469.694 62.784C469.694 59.328 470.505 56.2773 472.126 53.632C473.79 50.944 476.03 48.8533 478.846 47.36C481.705 45.824 484.969 45.056 488.638 45.056C492.265 45.056 495.507 45.824 498.366 47.36C501.225 48.8533 503.465 50.9227 505.086 53.568C506.707 56.2133 507.518 59.2853 507.518 62.784C507.518 66.1973 506.707 69.248 505.086 71.936C503.465 74.5813 501.225 76.672 498.366 78.208C495.507 79.744 492.265 80.512 488.638 80.512ZM488.638 72.32C490.302 72.32 491.795 71.936 493.118 71.168C494.441 70.4 495.486 69.312 496.254 67.904C497.022 66.4533 497.406 64.7467 497.406 62.784C497.406 60.7787 497.022 59.072 496.254 57.664C495.486 56.256 494.441 55.168 493.118 54.4C491.795 53.632 490.302 53.248 488.638 53.248C486.974 53.248 485.481 53.632 484.158 54.4C482.835 55.168 481.769 56.256 480.958 57.664C480.19 59.072 479.806 60.7787 479.806 62.784C479.806 64.7467 480.19 66.4533 480.958 67.904C481.769 69.312 482.835 70.4 484.158 71.168C485.481 71.936 486.974 72.32 488.638 72.32ZM532.049 80.512C528.337 80.512 525.03 79.7653 522.129 78.272C519.228 76.736 516.945 74.624 515.281 71.936C513.66 69.248 512.849 66.1973 512.849 62.784C512.849 59.328 513.66 56.2773 515.281 53.632C516.945 50.944 519.228 48.8533 522.129 47.36C525.03 45.824 528.337 45.056 532.049 45.056C535.676 45.056 538.833 45.824 541.521 47.36C544.209 48.8533 546.193 51.008 547.473 53.824L539.729 57.984C538.833 56.3627 537.702 55.168 536.337 54.4C535.014 53.632 533.564 53.248 531.985 53.248C530.278 53.248 528.742 53.632 527.377 54.4C526.012 55.168 524.924 56.256 524.113 57.664C523.345 59.072 522.961 60.7787 522.961 62.784C522.961 64.7893 523.345 66.496 524.113 67.904C524.924 69.312 526.012 70.4 527.377 71.168C528.742 71.936 530.278 72.32 531.985 72.32C533.564 72.32 535.014 71.9573 536.337 71.232C537.702 70.464 538.833 69.248 539.729 67.584L547.473 71.808C546.193 74.5813 544.209 76.736 541.521 78.272C538.833 79.7653 535.676 80.512 532.049 80.512ZM562.117 80V51.456L564.357 53.76H550.469V45.568H583.685V53.76H569.797L572.037 51.456V80H562.117ZM590.287 80V45.568H600.207V66.048L616.975 45.568H626.127V80H616.207V59.52L599.503 80H590.287Z" fill="black"/>
<line x1="1" y1="0.5" x2="618" y2="0.5" stroke="black"/>
<line x1="98.5" y1="2.18557e-08" x2="98.5" y2="76" stroke="black"/>
<line x1="147" y1="124.5" x2="384" y2="124.5" stroke="black"/>
<line x1="384" y1="124.5" x2="853" y2="124.5" stroke="black"/>
<line x1="876" y1="100.5" x2="1440" y2="100.5" stroke="black"/>
<line x1="667.5" y1="50" x2="667.5" y2="125" stroke="black"/>
<line x1="58" y1="25.5" y2="25.5" stroke="black"/>
<line x1="708" y1="107.5" x2="766" y2="107.5" stroke="black"/>
<line y1="-0.5" x2="58" y2="-0.5" transform="matrix(1 0 0 -1 138 0)" stroke="black"/>
<path d="M57.5 25C59.1415 25 60.767 25.3233 62.2835 25.9515C63.8001 26.5797 65.1781 27.5004 66.3388 28.6612C67.4996 29.8219 68.4203 31.1999 69.0485 32.7165C69.6767 34.233 70 35.8585 70 37.5L69 37.5C69 35.9898 68.7025 34.4944 68.1246 33.0991C67.5467 31.7039 66.6996 30.4361 65.6317 29.3683C64.5639 28.3004 63.2961 27.4533 61.9009 26.8754C60.5056 26.2975 59.0102 26 57.5 26L57.5 25Z" fill="black"/>
<path d="M708.5 108C706.858 108 705.233 107.677 703.716 107.048C702.2 106.42 700.822 105.5 699.661 104.339C698.5 103.178 697.58 101.8 696.952 100.284C696.323 98.767 696 97.1415 696 95.5L697 95.5C697 97.0102 697.297 98.5056 697.875 99.9009C698.453 101.296 699.3 102.564 700.368 103.632C701.436 104.7 702.704 105.547 704.099 106.125C705.494 106.703 706.99 107 708.5 107L708.5 108Z" fill="black"/>
<path d="M852.5 125C854.142 125 855.767 124.677 857.284 124.048C858.8 123.42 860.178 122.5 861.339 121.339C862.5 120.178 863.42 118.8 864.048 117.284C864.677 115.767 865 114.142 865 112.5L864 112.5C864 114.01 863.703 115.506 863.125 116.901C862.547 118.296 861.7 119.564 860.632 120.632C859.564 121.7 858.296 122.547 856.901 123.125C855.506 123.703 854.01 124 852.5 124L852.5 125Z" fill="black"/>
<path d="M138.5 1.36096e-06C136.858 1.43271e-06 135.233 0.323324 133.716 0.951507C132.2 1.57969 130.822 2.50043 129.661 3.66117C128.5 4.8219 127.58 6.19989 126.952 7.71646C126.323 9.23303 126 10.8585 126 12.5L127 12.5C127 10.9898 127.297 9.49439 127.875 8.09914C128.453 6.7039 129.3 5.43615 130.368 4.36827C131.436 3.3004 132.704 2.45332 134.099 1.87539C135.494 1.29746 136.99 1 138.5 1L138.5 1.36096e-06Z" fill="black"/>
<path d="M81.5 50C79.8585 50 78.233 49.6767 76.7165 49.0485C75.1999 48.4203 73.8219 47.4996 72.6612 46.3388C71.5004 45.1781 70.5797 43.8001 69.9515 42.2835C69.3233 40.767 69 39.1415 69 37.5L70 37.5C70 39.0102 70.2975 40.5056 70.8754 41.9009C71.4533 43.2961 72.3004 44.5639 73.3683 45.6317C74.4361 46.6996 75.7039 47.5467 77.0991 48.1246C78.4944 48.7025 79.9898 49 81.5 49L81.5 50Z" fill="black"/>
<path d="M684.5 83C686.142 83 687.767 83.3233 689.284 83.9515C690.8 84.5797 692.178 85.5004 693.339 86.6612C694.5 87.8219 695.42 89.1999 696.048 90.7165C696.677 92.233 697 93.8585 697 95.5L696 95.5C696 93.9898 695.703 92.4944 695.125 91.0991C694.547 89.7039 693.7 88.4361 692.632 87.3683C691.564 86.3004 690.296 85.4533 688.901 84.8754C687.506 84.2975 686.01 84 684.5 84L684.5 83Z" fill="black"/>
<path d="M876.5 100C874.858 100 873.233 100.323 871.716 100.952C870.2 101.58 868.822 102.5 867.661 103.661C866.5 104.822 865.58 106.2 864.952 107.716C864.323 109.233 864 110.858 864 112.5L865 112.5C865 110.99 865.297 109.494 865.875 108.099C866.453 106.704 867.3 105.436 868.368 104.368C869.436 103.3 870.704 102.453 872.099 101.875C873.494 101.297 874.99 101 876.5 101L876.5 100Z" fill="black"/>
<path d="M765.5 107C767.142 107 768.767 107.323 770.284 107.952C771.8 108.58 773.178 109.5 774.339 110.661C775.5 111.822 776.42 113.2 777.048 114.716C777.677 116.233 778 117.858 778 119.5L777 119.5C777 117.99 776.703 116.494 776.125 115.099C775.547 113.704 774.7 112.436 773.632 111.368C772.564 110.3 771.296 109.453 769.901 108.875C768.506 108.297 767.01 108 765.5 108L765.5 107Z" fill="black"/>
<path d="M114.5 25C116.142 25 117.767 24.6767 119.284 24.0485C120.8 23.4203 122.178 22.4996 123.339 21.3388C124.5 20.1781 125.42 18.8001 126.048 17.2835C126.677 15.767 127 14.1415 127 12.5L126 12.5C126 14.0102 125.703 15.5056 125.125 16.9009C124.547 18.2961 123.7 19.5639 122.632 20.6317C121.564 21.6996 120.296 22.5467 118.901 23.1246C117.506 23.7025 116.01 24 114.5 24L114.5 25Z" fill="black"/>
<path d="M98 75C98 81.5661 99.2933 88.0679 101.806 94.1342C104.319 100.2 108.002 105.712 112.645 110.355C117.288 114.998 122.8 118.681 128.866 121.194C134.932 123.707 141.434 125 148 125L148 124C141.565 124 135.193 122.733 129.249 120.27C123.304 117.808 117.902 114.198 113.352 109.648C108.802 105.098 105.192 99.6965 102.73 93.7515C100.267 87.8065 99 81.4348 99 75L98 75Z" fill="black"/>
<path d="M668 50C668 43.4339 666.707 36.9321 664.194 30.8658C661.681 24.7995 657.998 19.2876 653.355 14.6447C648.712 10.0017 643.2 6.31876 637.134 3.80602C631.068 1.29329 624.566 -2.87013e-07 618 0L618 1C624.435 1 630.807 2.26742 636.751 4.7299C642.696 7.19238 648.098 10.8017 652.648 15.3518C657.198 19.9018 660.808 25.3036 663.27 31.2485C665.733 37.1935 667 43.5652 667 50H668Z" fill="black"/>
<path d="M98 75C98 81.5661 99.2933 88.0679 101.806 94.1342C104.319 100.2 108.002 105.712 112.645 110.355C117.288 114.998 122.8 118.681 128.866 121.194C134.932 123.707 141.434 125 148 125L148 124C141.565 124 135.193 122.733 129.249 120.27C123.304 117.808 117.902 114.198 113.352 109.648C108.802 105.098 105.192 99.6965 102.73 93.7515C100.267 87.8065 99 81.4348 99 75L98 75Z" fill="black"/>
<line x1="81" y1="49.5" x2="98" y2="49.5" stroke="black"/>
<line x1="685" y1="83.5" x2="668" y2="83.5" stroke="black"/>
<line y1="-0.5" x2="17" y2="-0.5" transform="matrix(-1 0 0 1 115 25)" stroke="black"/>
<line x1="777.5" y1="119" x2="777.5" y2="124" stroke="black"/>
</svg>
