<svg width="94" height="40" viewBox="0 0 94 40" fill="none" xmlns="http://www.w3.org/2000/svg">
<path d="M0 20C0 8.95431 8.95431 0 20 0H74C85.0457 0 94 8.95431 94 20C94 31.0457 85.0457 40 74 40H20C8.9543 40 0 31.0457 0 20Z" fill="white" fill-opacity="0.4"/>
<path fill-rule="evenodd" clip-rule="evenodd" d="M74 1H20C9.50659 1 1 9.50659 1 20C1 30.4934 9.50659 39 20 39H74C84.4934 39 93 30.4934 93 20C93 9.50659 84.4934 1 74 1ZM20 0C8.95431 0 0 8.95431 0 20C0 31.0457 8.9543 40 20 40H74C85.0457 40 94 31.0457 94 20C94 8.95431 85.0457 0 74 0H20Z" fill="black" fill-opacity="0.15"/>
</svg>
