<svg width="424" height="48" viewBox="0 0 424 48" fill="none" xmlns="http://www.w3.org/2000/svg">
<rect width="424" height="48" rx="24" fill="#141416"/>
<path d="M185.989 30V18.8H191.429C192.773 18.8 193.813 19.056 194.549 19.568C195.296 20.0693 195.669 20.784 195.669 21.712C195.669 22.6187 195.322 23.3333 194.629 23.856C193.936 24.368 193.008 24.624 191.845 24.624L192.165 23.872C193.424 23.872 194.405 24.1227 195.109 24.624C195.824 25.1147 196.181 25.84 196.181 26.8C196.181 27.7813 195.797 28.56 195.029 29.136C194.272 29.712 193.173 30 191.733 30H185.989ZM189.109 27.728H191.605C192.064 27.728 192.405 27.632 192.629 27.44C192.864 27.2373 192.981 26.944 192.981 26.56C192.981 26.176 192.864 25.8933 192.629 25.712C192.405 25.52 192.064 25.424 191.605 25.424H189.109V27.728ZM189.109 23.28H191.125C191.573 23.28 191.909 23.1893 192.133 23.008C192.357 22.816 192.469 22.5387 192.469 22.176C192.469 21.8133 192.357 21.5413 192.133 21.36C191.909 21.168 191.573 21.072 191.125 21.072H189.109V23.28ZM201.991 30.144C201.042 30.144 200.199 29.952 199.463 29.568C198.727 29.184 198.146 28.656 197.719 27.984C197.303 27.3013 197.095 26.5227 197.095 25.648C197.095 24.7733 197.303 24 197.719 23.328C198.146 22.656 198.727 22.1333 199.463 21.76C200.199 21.376 201.042 21.184 201.991 21.184C202.941 21.184 203.783 21.376 204.519 21.76C205.266 22.1333 205.847 22.656 206.263 23.328C206.679 24 206.887 24.7733 206.887 25.648C206.887 26.5227 206.679 27.3013 206.263 27.984C205.847 28.656 205.266 29.184 204.519 29.568C203.783 29.952 202.941 30.144 201.991 30.144ZM201.991 27.728C202.343 27.728 202.653 27.648 202.919 27.488C203.197 27.328 203.415 27.0933 203.575 26.784C203.735 26.464 203.815 26.0853 203.815 25.648C203.815 25.2107 203.735 24.8427 203.575 24.544C203.415 24.2347 203.197 24 202.919 23.84C202.653 23.68 202.343 23.6 201.991 23.6C201.65 23.6 201.341 23.68 201.063 23.84C200.797 24 200.578 24.2347 200.407 24.544C200.247 24.8427 200.167 25.2107 200.167 25.648C200.167 26.0853 200.247 26.464 200.407 26.784C200.578 27.0933 200.797 27.328 201.063 27.488C201.341 27.648 201.65 27.728 201.991 27.728ZM208.313 30V21.328H211.337V25.872L214.969 21.328H217.769V30H214.729V25.44L211.129 30H208.313ZM212.825 20.496C211.801 20.496 211.044 20.2827 210.553 19.856C210.073 19.4187 209.828 18.752 209.817 17.856H211.785C211.796 18.208 211.876 18.4853 212.025 18.688C212.185 18.88 212.446 18.976 212.809 18.976C213.172 18.976 213.438 18.88 213.609 18.688C213.78 18.4853 213.865 18.208 213.865 17.856H215.865C215.865 18.752 215.614 19.4187 215.113 19.856C214.622 20.2827 213.86 20.496 212.825 20.496ZM221.749 30V23.072L222.405 23.744H218.949V21.328H227.557V23.744H224.101L224.773 23.072V30H221.749ZM228.735 30V21.328H231.759V25.872L235.391 21.328H238.191V30H235.151V25.44L231.551 30H228.735Z" fill="#FCFCFD"/>
</svg>
