<svg width="350" height="70" viewBox="0 0 350 70" fill="none" xmlns="http://www.w3.org/2000/svg">
<g clip-path="url(#clip0_237_78)">
<rect x="-119" y="-118" width="555" height="211" fill="url(#paint0_radial_237_78)" fill-opacity="0.8"/>
<rect x="-119" y="-118" width="555" height="211" fill="url(#paint1_radial_237_78)" fill-opacity="0.44"/>
<rect x="-119" y="-118" width="555" height="211" fill="url(#paint2_linear_237_78)" fill-opacity="0.2"/>
<rect x="-119" y="-118" width="555" height="211" fill="url(#paint3_linear_237_78)" fill-opacity="0.4"/>
<rect x="-119" y="-118" width="555" height="211" fill="url(#paint4_radial_237_78)" fill-opacity="0.2"/>
<g filter="url(#filter0_f_237_78)">
<ellipse cx="-182.684" cy="29.9012" rx="152.571" ry="56.4656" transform="rotate(-7.00215 -182.684 29.9012)" fill="url(#paint5_radial_237_78)" fill-opacity="0.6"/>
</g>
<path d="M130.8 40V27.088H134.52V32.128H140.136V27.088H143.88V40H140.136V35.176H134.52V40H130.8ZM155.672 40V37.48L155.432 36.928V32.416C155.432 31.616 155.184 30.992 154.688 30.544C154.208 30.096 153.464 29.872 152.456 29.872C151.768 29.872 151.088 29.984 150.416 30.208C149.76 30.416 149.2 30.704 148.736 31.072L147.392 28.456C148.096 27.96 148.944 27.576 149.936 27.304C150.928 27.032 151.936 26.896 152.96 26.896C154.928 26.896 156.456 27.36 157.544 28.288C158.632 29.216 159.176 30.664 159.176 32.632V40H155.672ZM151.736 40.192C150.728 40.192 149.864 40.024 149.144 39.688C148.424 39.336 147.872 38.864 147.488 38.272C147.104 37.68 146.912 37.016 146.912 36.28C146.912 35.512 147.096 34.84 147.464 34.264C147.848 33.688 148.448 33.24 149.264 32.92C150.08 32.584 151.144 32.416 152.456 32.416H155.888V34.6H152.864C151.984 34.6 151.376 34.744 151.04 35.032C150.72 35.32 150.56 35.68 150.56 36.112C150.56 36.592 150.744 36.976 151.112 37.264C151.496 37.536 152.016 37.672 152.672 37.672C153.296 37.672 153.856 37.528 154.352 37.24C154.848 36.936 155.208 36.496 155.432 35.92L156.008 37.648C155.736 38.48 155.24 39.112 154.52 39.544C153.8 39.976 152.872 40.192 151.736 40.192ZM162.908 40V27.088H175.748V40H172.004V29.32L172.844 30.16H165.788L166.628 29.32V40H162.908ZM187.426 40.192C186.338 40.192 185.386 39.952 184.57 39.472C183.754 38.992 183.114 38.264 182.65 37.288C182.202 36.296 181.978 35.048 181.978 33.544C181.978 32.024 182.194 30.776 182.626 29.8C183.058 28.824 183.682 28.096 184.498 27.616C185.314 27.136 186.29 26.896 187.426 26.896C188.642 26.896 189.73 27.176 190.69 27.736C191.666 28.28 192.434 29.048 192.994 30.04C193.57 31.032 193.858 32.2 193.858 33.544C193.858 34.904 193.57 36.08 192.994 37.072C192.434 38.064 191.666 38.832 190.69 39.376C189.73 39.92 188.642 40.192 187.426 40.192ZM179.794 44.656V27.088H183.37V29.728L183.298 33.568L183.538 37.384V44.656H179.794ZM186.778 37.12C187.402 37.12 187.954 36.976 188.434 36.688C188.93 36.4 189.322 35.992 189.61 35.464C189.914 34.92 190.066 34.28 190.066 33.544C190.066 32.792 189.914 32.152 189.61 31.624C189.322 31.096 188.93 30.688 188.434 30.4C187.954 30.112 187.402 29.968 186.778 29.968C186.154 29.968 185.594 30.112 185.098 30.4C184.602 30.688 184.21 31.096 183.922 31.624C183.634 32.152 183.49 32.792 183.49 33.544C183.49 34.28 183.634 34.92 183.922 35.464C184.21 35.992 184.602 36.4 185.098 36.688C185.594 36.976 186.154 37.12 186.778 37.12ZM204.479 40V37.48L204.239 36.928V32.416C204.239 31.616 203.991 30.992 203.495 30.544C203.015 30.096 202.271 29.872 201.263 29.872C200.575 29.872 199.895 29.984 199.223 30.208C198.567 30.416 198.007 30.704 197.543 31.072L196.199 28.456C196.903 27.96 197.751 27.576 198.743 27.304C199.735 27.032 200.743 26.896 201.767 26.896C203.735 26.896 205.263 27.36 206.351 28.288C207.439 29.216 207.983 30.664 207.983 32.632V40H204.479ZM200.543 40.192C199.535 40.192 198.671 40.024 197.951 39.688C197.231 39.336 196.679 38.864 196.295 38.272C195.911 37.68 195.719 37.016 195.719 36.28C195.719 35.512 195.903 34.84 196.271 34.264C196.655 33.688 197.255 33.24 198.071 32.92C198.887 32.584 199.951 32.416 201.263 32.416H204.695V34.6H201.671C200.791 34.6 200.183 34.744 199.847 35.032C199.527 35.32 199.367 35.68 199.367 36.112C199.367 36.592 199.551 36.976 199.919 37.264C200.303 37.536 200.823 37.672 201.479 37.672C202.103 37.672 202.663 37.528 203.159 37.24C203.655 36.936 204.015 36.496 204.239 35.92L204.815 37.648C204.543 38.48 204.047 39.112 203.327 39.544C202.607 39.976 201.679 40.192 200.543 40.192ZM211.716 40V27.088H218.316C219.932 27.088 221.196 27.384 222.108 27.976C223.02 28.552 223.476 29.368 223.476 30.424C223.476 31.48 223.044 32.312 222.18 32.92C221.332 33.512 220.204 33.808 218.796 33.808L219.18 32.944C220.748 32.944 221.916 33.232 222.684 33.808C223.468 34.384 223.86 35.224 223.86 36.328C223.86 37.464 223.428 38.36 222.564 39.016C221.7 39.672 220.38 40 218.604 40H211.716ZM215.148 37.456H218.292C218.98 37.456 219.492 37.344 219.828 37.12C220.18 36.88 220.356 36.52 220.356 36.04C220.356 35.544 220.196 35.184 219.876 34.96C219.556 34.72 219.052 34.6 218.364 34.6H215.148V37.456ZM215.148 32.392H217.98C218.636 32.392 219.124 32.272 219.444 32.032C219.78 31.792 219.948 31.448 219.948 31C219.948 30.536 219.78 30.192 219.444 29.968C219.124 29.744 218.636 29.632 217.98 29.632H215.148V32.392ZM225.493 39.976L225.685 36.904C225.781 36.92 225.877 36.936 225.973 36.952C226.069 36.952 226.157 36.952 226.237 36.952C226.685 36.952 227.037 36.824 227.293 36.568C227.549 36.312 227.741 35.968 227.869 35.536C227.997 35.088 228.085 34.584 228.133 34.024C228.197 33.464 228.245 32.88 228.277 32.272L228.469 27.088H239.509V40H235.765V29.248L236.605 30.16H230.941L231.733 29.2L231.565 32.44C231.517 33.592 231.421 34.648 231.277 35.608C231.149 36.568 230.933 37.4 230.629 38.104C230.325 38.792 229.917 39.328 229.405 39.712C228.893 40.08 228.237 40.264 227.437 40.264C227.149 40.264 226.845 40.24 226.525 40.192C226.205 40.144 225.861 40.072 225.493 39.976ZM249.902 40.192C248.43 40.192 247.134 39.904 246.014 39.328C244.91 38.752 244.054 37.968 243.446 36.976C242.838 35.968 242.534 34.824 242.534 33.544C242.534 32.248 242.83 31.104 243.422 30.112C244.03 29.104 244.854 28.32 245.894 27.76C246.934 27.184 248.11 26.896 249.422 26.896C250.686 26.896 251.822 27.168 252.83 27.712C253.854 28.24 254.662 29.008 255.254 30.016C255.846 31.008 256.142 32.2 256.142 33.592C256.142 33.736 256.134 33.904 256.118 34.096C256.102 34.272 256.086 34.44 256.07 34.6H245.582V32.416H254.102L252.662 33.064C252.662 32.392 252.526 31.808 252.254 31.312C251.982 30.816 251.606 30.432 251.126 30.16C250.646 29.872 250.086 29.728 249.446 29.728C248.806 29.728 248.238 29.872 247.742 30.16C247.262 30.432 246.886 30.824 246.614 31.336C246.342 31.832 246.206 32.424 246.206 33.112V33.688C246.206 34.392 246.358 35.016 246.662 35.56C246.982 36.088 247.422 36.496 247.982 36.784C248.558 37.056 249.23 37.192 249.998 37.192C250.686 37.192 251.286 37.088 251.798 36.88C252.326 36.672 252.806 36.36 253.238 35.944L255.23 38.104C254.638 38.776 253.894 39.296 252.998 39.664C252.102 40.016 251.07 40.192 249.902 40.192ZM259.492 40V27.088H263.212V32.128H268.828V27.088H272.572V40H268.828V35.176H263.212V40H259.492ZM276.636 40V27.088H280.356V34.768L286.644 27.088H290.076V40H286.356V32.32L280.092 40H276.636ZM302.291 40V35.704L302.819 36.304H299.243C297.387 36.304 295.931 35.92 294.875 35.152C293.819 34.384 293.291 33.28 293.291 31.84C293.291 30.304 293.843 29.128 294.947 28.312C296.067 27.496 297.571 27.088 299.459 27.088H305.627V40H302.291ZM293.099 40L296.531 35.08H300.347L297.083 40H293.099ZM302.291 34.552V29.176L302.819 30.136H299.531C298.763 30.136 298.163 30.28 297.731 30.568C297.315 30.856 297.107 31.32 297.107 31.96C297.107 33.192 297.899 33.808 299.483 33.808H302.819L302.291 34.552Z" fill="black" fill-opacity="0.9"/>
<path d="M72.534 38.34C72.5773 40.0516 72.5537 41.7772 72.5131 43.1822C71.2759 42.5149 69.7698 41.6726 68.3091 40.7793C67.0608 40.0159 65.88 39.236 64.9401 38.5131C63.9338 37.7392 63.4284 37.197 63.2783 36.9371C63.1282 36.6772 62.9115 35.9684 62.7443 34.71C62.5882 33.5346 62.5033 32.1221 62.4663 30.6592C62.4231 28.9477 62.4467 27.2221 62.4873 25.8171C63.7244 26.4844 65.2306 27.3267 66.6912 28.22C67.9396 28.9834 69.1204 29.7633 70.0603 30.4862C71.0665 31.2601 71.572 31.8022 71.722 32.0621C71.8721 32.322 72.0889 33.0309 72.256 34.2893C72.4121 35.4647 72.4971 36.8772 72.534 38.34Z" stroke="black" stroke-opacity="0.85" stroke-width="4"/>
<circle cx="67.5" cy="34.5" r="20.625" stroke="black" stroke-opacity="0.85" stroke-width="4"/>
</g>
<rect x="0.5" y="0.5" width="349" height="69" rx="34.5" stroke="url(#paint6_linear_237_78)"/>
<defs>
<filter id="filter0_f_237_78" x="-384.276" y="-79.165" width="403.184" height="218.132" filterUnits="userSpaceOnUse" color-interpolation-filters="sRGB">
<feFlood flood-opacity="0" result="BackgroundImageFix"/>
<feBlend mode="normal" in="SourceGraphic" in2="BackgroundImageFix" result="shape"/>
<feGaussianBlur stdDeviation="25" result="effect1_foregroundBlur_237_78"/>
</filter>
<radialGradient id="paint0_radial_237_78" cx="0" cy="0" r="1" gradientUnits="userSpaceOnUse" gradientTransform="translate(109.359 -12.5) rotate(-70.9837) scale(814.392 243.243)">
<stop stop-color="#96F06C"/>
<stop offset="1" stop-color="#00A5C9"/>
</radialGradient>
<radialGradient id="paint1_radial_237_78" cx="0" cy="0" r="1" gradientUnits="userSpaceOnUse" gradientTransform="translate(221.516 21.9906) rotate(101.093) scale(450.71 2357.75)">
<stop stop-color="#51FAB3"/>
<stop offset="0.8629" stop-color="#00FF94" stop-opacity="0"/>
</radialGradient>
<linearGradient id="paint2_linear_237_78" x1="155.031" y1="-118" x2="409.408" y2="443.231" gradientUnits="userSpaceOnUse">
<stop stop-color="#0CD3FF"/>
<stop offset="1" stop-color="#1CD08F" stop-opacity="0"/>
</linearGradient>
<linearGradient id="paint3_linear_237_78" x1="439.469" y1="-118" x2="288.944" y2="-108.482" gradientUnits="userSpaceOnUse">
<stop stop-color="#00FFA3"/>
<stop offset="0.0001" stop-color="#00FFA3"/>
<stop offset="0.95625" stop-color="#00FEA3" stop-opacity="0"/>
</linearGradient>
<radialGradient id="paint4_radial_237_78" cx="0" cy="0" r="1" gradientUnits="userSpaceOnUse" gradientTransform="translate(67.9271 1280.89) rotate(39.5416) scale(148.187 6581.14)">
<stop offset="0.0207011" stop-color="#6CF0A1"/>
<stop offset="1" stop-opacity="0"/>
</radialGradient>
<radialGradient id="paint5_radial_237_78" cx="0" cy="0" r="1" gradientUnits="userSpaceOnUse" gradientTransform="translate(-182.684 29.9012) rotate(90) scale(56.4656 152.571)">
<stop stop-color="#3F93A6" stop-opacity="0.6"/>
<stop offset="1" stop-color="#186586" stop-opacity="0"/>
</radialGradient>
<linearGradient id="paint6_linear_237_78" x1="175" y1="0" x2="175" y2="70" gradientUnits="userSpaceOnUse">
<stop stop-opacity="0.75"/>
<stop offset="0.9875" stop-opacity="0.6"/>
</linearGradient>
<clipPath id="clip0_237_78">
<rect width="350" height="70" rx="35" fill="white"/>
</clipPath>
</defs>
</svg>
