<svg width="424" height="48" viewBox="0 0 424 48" fill="none" xmlns="http://www.w3.org/2000/svg">
<rect width="424" height="48" rx="24" fill="#141416"/>
<path d="M120.609 29.136L121.553 26.912C122.033 27.1573 122.534 27.344 123.057 27.472C123.579 27.6 124.086 27.6747 124.577 27.696C125.067 27.7173 125.51 27.6853 125.905 27.6C126.31 27.504 126.63 27.36 126.865 27.168C127.099 26.976 127.217 26.7253 127.217 26.416C127.217 26.0747 127.073 25.8293 126.785 25.68C126.507 25.52 126.139 25.44 125.681 25.44H122.817V23.12H125.425C125.851 23.12 126.182 23.0347 126.417 22.864C126.651 22.6933 126.769 22.464 126.769 22.176C126.769 21.8987 126.667 21.68 126.465 21.52C126.262 21.3493 125.99 21.232 125.649 21.168C125.307 21.0933 124.923 21.0667 124.497 21.088C124.07 21.1093 123.627 21.1893 123.169 21.328C122.71 21.456 122.267 21.632 121.841 21.856L120.913 19.488C121.67 19.1147 122.465 18.8587 123.297 18.72C124.129 18.5813 124.939 18.5493 125.729 18.624C126.518 18.6987 127.233 18.8747 127.873 19.152C128.513 19.4187 129.019 19.776 129.393 20.224C129.777 20.672 129.969 21.2 129.969 21.808C129.969 22.3413 129.825 22.816 129.537 23.232C129.249 23.648 128.859 23.9733 128.369 24.208C127.878 24.4427 127.313 24.56 126.673 24.56L126.753 23.888C127.489 23.888 128.129 24.016 128.673 24.272C129.227 24.528 129.654 24.88 129.953 25.328C130.262 25.7653 130.417 26.272 130.417 26.848C130.417 27.392 130.273 27.8773 129.985 28.304C129.707 28.72 129.318 29.072 128.817 29.36C128.315 29.648 127.739 29.8613 127.089 30C126.449 30.1493 125.761 30.2187 125.025 30.208C124.289 30.208 123.542 30.1173 122.785 29.936C122.038 29.7547 121.313 29.488 120.609 29.136ZM137.09 30V28.384L136.882 27.984V25.008C136.882 24.528 136.732 24.16 136.434 23.904C136.146 23.6373 135.682 23.504 135.042 23.504C134.626 23.504 134.204 23.5733 133.778 23.712C133.351 23.84 132.988 24.0213 132.69 24.256L131.666 22.192C132.156 21.872 132.743 21.6267 133.426 21.456C134.119 21.2747 134.807 21.184 135.49 21.184C136.898 21.184 137.986 21.5093 138.754 22.16C139.532 22.8 139.922 23.808 139.922 25.184V30H137.09ZM134.53 30.144C133.836 30.144 133.25 30.0267 132.77 29.792C132.29 29.5573 131.922 29.2373 131.666 28.832C131.42 28.4267 131.298 27.9733 131.298 27.472C131.298 26.9387 131.431 26.48 131.698 26.096C131.975 25.7013 132.396 25.4027 132.962 25.2C133.527 24.9867 134.258 24.88 135.154 24.88H137.202V26.464H135.57C135.079 26.464 134.732 26.544 134.53 26.704C134.338 26.864 134.242 27.0773 134.242 27.344C134.242 27.6107 134.343 27.824 134.546 27.984C134.748 28.144 135.026 28.224 135.378 28.224C135.708 28.224 136.007 28.144 136.274 27.984C136.551 27.8133 136.754 27.5573 136.882 27.216L137.298 28.336C137.138 28.9333 136.823 29.3867 136.354 29.696C135.895 29.9947 135.287 30.144 134.53 30.144ZM147.207 30.144C146.471 30.144 145.841 29.984 145.319 29.664C144.796 29.3333 144.396 28.8427 144.119 28.192C143.852 27.5307 143.719 26.688 143.719 25.664C143.719 24.6293 143.847 23.7867 144.103 23.136C144.359 22.4747 144.743 21.984 145.255 21.664C145.777 21.344 146.428 21.184 147.207 21.184C147.996 21.184 148.711 21.3707 149.351 21.744C150.001 22.1067 150.513 22.624 150.887 23.296C151.271 23.9573 151.463 24.7467 151.463 25.664C151.463 26.5813 151.271 27.376 150.887 28.048C150.513 28.72 150.001 29.2373 149.351 29.6C148.711 29.9627 147.996 30.144 147.207 30.144ZM141.751 33.104V21.328H144.647V22.8L144.631 25.664L144.791 28.544V33.104H141.751ZM146.567 27.728C146.908 27.728 147.212 27.648 147.479 27.488C147.756 27.328 147.975 27.0933 148.135 26.784C148.305 26.4747 148.391 26.1013 148.391 25.664C148.391 25.2267 148.305 24.8533 148.135 24.544C147.975 24.2347 147.756 24 147.479 23.84C147.212 23.68 146.908 23.6 146.567 23.6C146.225 23.6 145.916 23.68 145.639 23.84C145.372 24 145.153 24.2347 144.983 24.544C144.823 24.8533 144.743 25.2267 144.743 25.664C144.743 26.1013 144.823 26.4747 144.983 26.784C145.153 27.0933 145.372 27.328 145.639 27.488C145.916 27.648 146.225 27.728 146.567 27.728ZM157.386 30.144C156.362 30.144 155.466 29.952 154.698 29.568C153.941 29.1733 153.349 28.64 152.922 27.968C152.506 27.2853 152.298 26.512 152.298 25.648C152.298 24.784 152.501 24.016 152.906 23.344C153.322 22.6613 153.893 22.1333 154.618 21.76C155.344 21.376 156.16 21.184 157.066 21.184C157.92 21.184 158.698 21.36 159.402 21.712C160.106 22.0533 160.666 22.56 161.082 23.232C161.498 23.904 161.706 24.72 161.706 25.68C161.706 25.7867 161.701 25.9093 161.69 26.048C161.68 26.1867 161.669 26.3147 161.658 26.432H154.794V24.832H160.042L158.89 25.28C158.901 24.8853 158.826 24.544 158.666 24.256C158.517 23.968 158.304 23.744 158.026 23.584C157.76 23.424 157.445 23.344 157.082 23.344C156.72 23.344 156.4 23.424 156.122 23.584C155.856 23.744 155.648 23.9733 155.498 24.272C155.349 24.56 155.274 24.9013 155.274 25.296V25.76C155.274 26.1867 155.36 26.5547 155.53 26.864C155.712 27.1733 155.968 27.4133 156.298 27.584C156.629 27.744 157.024 27.824 157.482 27.824C157.909 27.824 158.272 27.7653 158.57 27.648C158.88 27.52 159.184 27.328 159.482 27.072L161.082 28.736C160.666 29.1947 160.154 29.5467 159.546 29.792C158.938 30.0267 158.218 30.144 157.386 30.144ZM163.313 30V21.328H170.577V23.744H165.681L166.337 23.088V30H163.313ZM171.766 30V21.328H174.79V25.872L178.422 21.328H181.222V30H178.182V25.44L174.582 30H171.766ZM187.618 30.144C186.658 30.144 185.8 29.952 185.042 29.568C184.296 29.184 183.709 28.656 183.282 27.984C182.856 27.3013 182.642 26.5227 182.642 25.648C182.642 24.7733 182.856 24 183.282 23.328C183.709 22.656 184.296 22.1333 185.042 21.76C185.8 21.376 186.658 21.184 187.618 21.184C188.6 21.184 189.448 21.392 190.162 21.808C190.877 22.224 191.384 22.8107 191.682 23.568L189.33 24.768C189.128 24.3627 188.877 24.0693 188.578 23.888C188.28 23.696 187.954 23.6 187.602 23.6C187.25 23.6 186.93 23.68 186.642 23.84C186.354 24 186.125 24.2347 185.954 24.544C185.794 24.8427 185.714 25.2107 185.714 25.648C185.714 26.096 185.794 26.4747 185.954 26.784C186.125 27.0933 186.354 27.328 186.642 27.488C186.93 27.648 187.25 27.728 187.602 27.728C187.954 27.728 188.28 27.6373 188.578 27.456C188.877 27.264 189.128 26.9653 189.33 26.56L191.682 27.76C191.384 28.5173 190.877 29.104 190.162 29.52C189.448 29.936 188.6 30.144 187.618 30.144ZM194.921 30V23.072L195.577 23.744H192.121V21.328H200.729V23.744H197.273L197.945 23.072V30H194.921ZM207.363 30.144C206.627 30.144 205.997 29.984 205.475 29.664C204.952 29.3333 204.552 28.8427 204.275 28.192C204.008 27.5307 203.875 26.688 203.875 25.664C203.875 24.6293 204.003 23.7867 204.259 23.136C204.515 22.4747 204.899 21.984 205.411 21.664C205.933 21.344 206.584 21.184 207.363 21.184C208.152 21.184 208.867 21.3707 209.507 21.744C210.157 22.1067 210.669 22.624 211.043 23.296C211.427 23.9573 211.619 24.7467 211.619 25.664C211.619 26.5813 211.427 27.376 211.043 28.048C210.669 28.72 210.157 29.2373 209.507 29.6C208.867 29.9627 208.152 30.144 207.363 30.144ZM201.907 33.104V21.328H204.803V22.8L204.787 25.664L204.947 28.544V33.104H201.907ZM206.723 27.728C207.064 27.728 207.368 27.648 207.635 27.488C207.912 27.328 208.131 27.0933 208.291 26.784C208.461 26.4747 208.547 26.1013 208.547 25.664C208.547 25.2267 208.461 24.8533 208.291 24.544C208.131 24.2347 207.912 24 207.635 23.84C207.368 23.68 207.064 23.6 206.723 23.6C206.381 23.6 206.072 23.68 205.795 23.84C205.528 24 205.309 24.2347 205.139 24.544C204.979 24.8533 204.899 25.2267 204.899 25.664C204.899 26.1013 204.979 26.4747 205.139 26.784C205.309 27.0933 205.528 27.328 205.795 27.488C206.072 27.648 206.381 27.728 206.723 27.728ZM213.079 30V21.328H216.103V25.872L219.735 21.328H222.535V30H219.495V25.44L215.895 30H213.079ZM230.035 30.144C229.299 30.144 228.669 29.984 228.147 29.664C227.624 29.3333 227.224 28.8427 226.947 28.192C226.68 27.5307 226.547 26.688 226.547 25.664C226.547 24.6293 226.675 23.7867 226.931 23.136C227.187 22.4747 227.571 21.984 228.083 21.664C228.605 21.344 229.256 21.184 230.035 21.184C230.824 21.184 231.539 21.3707 232.179 21.744C232.829 22.1067 233.341 22.624 233.715 23.296C234.099 23.9573 234.291 24.7467 234.291 25.664C234.291 26.5813 234.099 27.376 233.715 28.048C233.341 28.72 232.829 29.2373 232.179 29.6C231.539 29.9627 230.824 30.144 230.035 30.144ZM224.579 33.104V21.328H227.475V22.8L227.459 25.664L227.619 28.544V33.104H224.579ZM229.395 27.728C229.736 27.728 230.04 27.648 230.307 27.488C230.584 27.328 230.803 27.0933 230.963 26.784C231.133 26.4747 231.219 26.1013 231.219 25.664C231.219 25.2267 231.133 24.8533 230.963 24.544C230.803 24.2347 230.584 24 230.307 23.84C230.04 23.68 229.736 23.6 229.395 23.6C229.053 23.6 228.744 23.68 228.467 23.84C228.2 24 227.981 24.2347 227.811 24.544C227.651 24.8533 227.571 25.2267 227.571 25.664C227.571 26.1013 227.651 26.4747 227.811 26.784C227.981 27.0933 228.2 27.328 228.467 27.488C228.744 27.648 229.053 27.728 229.395 27.728ZM240.023 30.144C239.073 30.144 238.231 29.952 237.495 29.568C236.759 29.184 236.177 28.656 235.751 27.984C235.335 27.3013 235.127 26.5227 235.127 25.648C235.127 24.7733 235.335 24 235.751 23.328C236.177 22.656 236.759 22.1333 237.495 21.76C238.231 21.376 239.073 21.184 240.023 21.184C240.972 21.184 241.815 21.376 242.551 21.76C243.297 22.1333 243.879 22.656 244.295 23.328C244.711 24 244.919 24.7733 244.919 25.648C244.919 26.5227 244.711 27.3013 244.295 27.984C243.879 28.656 243.297 29.184 242.551 29.568C241.815 29.952 240.972 30.144 240.023 30.144ZM240.023 27.728C240.375 27.728 240.684 27.648 240.951 27.488C241.228 27.328 241.447 27.0933 241.607 26.784C241.767 26.464 241.847 26.0853 241.847 25.648C241.847 25.2107 241.767 24.8427 241.607 24.544C241.447 24.2347 241.228 24 240.951 23.84C240.684 23.68 240.375 23.6 240.023 23.6C239.681 23.6 239.372 23.68 239.095 23.84C238.828 24 238.609 24.2347 238.439 24.544C238.279 24.8427 238.199 25.2107 238.199 25.648C238.199 26.0853 238.279 26.464 238.439 26.784C238.609 27.0933 238.828 27.328 239.095 27.488C239.372 27.648 239.681 27.728 240.023 27.728ZM246.344 30V21.328H251C252.12 21.328 252.995 21.5253 253.624 21.92C254.254 22.304 254.568 22.8587 254.568 23.584C254.568 24.2773 254.275 24.832 253.688 25.248C253.112 25.6533 252.334 25.856 251.352 25.856L251.624 25.216C252.68 25.216 253.475 25.4133 254.008 25.808C254.552 26.192 254.824 26.7573 254.824 27.504C254.824 28.272 254.526 28.88 253.928 29.328C253.342 29.776 252.44 30 251.224 30H246.344ZM249.064 28.032H250.952C251.326 28.032 251.603 27.968 251.784 27.84C251.966 27.7013 252.056 27.4987 252.056 27.232C252.056 26.9547 251.966 26.752 251.784 26.624C251.614 26.496 251.347 26.432 250.984 26.432H249.064V28.032ZM249.064 24.816H250.728C251.091 24.816 251.358 24.752 251.528 24.624C251.699 24.4853 251.784 24.288 251.784 24.032C251.784 23.776 251.699 23.5893 251.528 23.472C251.358 23.344 251.091 23.28 250.728 23.28H249.064V24.816ZM261.496 30V28.384L261.288 27.984V25.008C261.288 24.528 261.139 24.16 260.84 23.904C260.552 23.6373 260.088 23.504 259.448 23.504C259.032 23.504 258.611 23.5733 258.184 23.712C257.757 23.84 257.395 24.0213 257.096 24.256L256.072 22.192C256.563 21.872 257.149 21.6267 257.832 21.456C258.525 21.2747 259.213 21.184 259.896 21.184C261.304 21.184 262.392 21.5093 263.16 22.16C263.939 22.8 264.328 23.808 264.328 25.184V30H261.496ZM258.936 30.144C258.243 30.144 257.656 30.0267 257.176 29.792C256.696 29.5573 256.328 29.2373 256.072 28.832C255.827 28.4267 255.704 27.9733 255.704 27.472C255.704 26.9387 255.837 26.48 256.104 26.096C256.381 25.7013 256.803 25.4027 257.368 25.2C257.933 24.9867 258.664 24.88 259.56 24.88H261.608V26.464H259.976C259.485 26.464 259.139 26.544 258.936 26.704C258.744 26.864 258.648 27.0773 258.648 27.344C258.648 27.6107 258.749 27.824 258.952 27.984C259.155 28.144 259.432 28.224 259.784 28.224C260.115 28.224 260.413 28.144 260.68 27.984C260.957 27.8133 261.16 27.5573 261.288 27.216L261.704 28.336C261.544 28.9333 261.229 29.3867 260.76 29.696C260.301 29.9947 259.693 30.144 258.936 30.144ZM268.093 30V23.072L268.749 23.744H265.293V21.328H273.901V23.744H270.445L271.117 23.072V30H268.093ZM280.167 24.016C281.319 24.0267 282.199 24.2827 282.807 24.784C283.415 25.2853 283.719 26 283.719 26.928C283.719 27.888 283.367 28.6453 282.663 29.2C281.969 29.744 281.009 30.0107 279.783 30H275.079V21.328H278.103V24.016H280.167ZM279.479 27.92C279.841 27.92 280.124 27.8347 280.327 27.664C280.529 27.4933 280.631 27.232 280.631 26.88C280.631 26.5173 280.529 26.2613 280.327 26.112C280.135 25.9627 279.852 25.8827 279.479 25.872H278.103V27.904L279.479 27.92ZM289.368 30.144C288.408 30.144 287.55 29.952 286.792 29.568C286.046 29.184 285.459 28.656 285.032 27.984C284.606 27.3013 284.392 26.5227 284.392 25.648C284.392 24.7733 284.606 24 285.032 23.328C285.459 22.656 286.046 22.1333 286.792 21.76C287.55 21.376 288.408 21.184 289.368 21.184C290.35 21.184 291.198 21.392 291.912 21.808C292.627 22.224 293.134 22.8107 293.432 23.568L291.08 24.768C290.878 24.3627 290.627 24.0693 290.328 23.888C290.03 23.696 289.704 23.6 289.352 23.6C289 23.6 288.68 23.68 288.392 23.84C288.104 24 287.875 24.2347 287.704 24.544C287.544 24.8427 287.464 25.2107 287.464 25.648C287.464 26.096 287.544 26.4747 287.704 26.784C287.875 27.0933 288.104 27.328 288.392 27.488C288.68 27.648 289 27.728 289.352 27.728C289.704 27.728 290.03 27.6373 290.328 27.456C290.627 27.264 290.878 26.9653 291.08 26.56L293.432 27.76C293.134 28.5173 292.627 29.104 291.912 29.52C291.198 29.936 290.35 30.144 289.368 30.144ZM299.972 30V27.184L300.372 27.648H298.164C296.874 27.648 295.855 27.3867 295.108 26.864C294.362 26.3307 293.988 25.5733 293.988 24.592C293.988 23.5467 294.378 22.7413 295.156 22.176C295.935 21.6107 296.986 21.328 298.308 21.328H302.676V30H299.972ZM293.844 30L296.132 26.704H299.204L297.06 30H293.844ZM299.972 26.272V22.976L300.372 23.728H298.372C297.967 23.728 297.652 23.808 297.428 23.968C297.204 24.1173 297.092 24.3627 297.092 24.704C297.092 25.3653 297.514 25.696 298.356 25.696H300.372L299.972 26.272Z" fill="#FCFCFD"/>
</svg>
