<svg width="32" height="33" viewBox="0 0 32 33" fill="none" xmlns="http://www.w3.org/2000/svg">
<path d="M25.3333 5.83334H24V3.16667H21.3333V5.83334H10.6667V3.16667H8V5.83334H6.66667C5.18667 5.83334 4.01333 7.03334 4.01333 8.50001L4 27.1667C4 28.6333 5.18667 29.8333 6.66667 29.8333H25.3333C26.8 29.8333 28 28.6333 28 27.1667V8.50001C28 7.03334 26.8 5.83334 25.3333 5.83334ZM25.3333 27.1667H6.66667V13.8333H25.3333V27.1667ZM25.3333 11.1667H6.66667V8.50001H25.3333V11.1667ZM12 19.1667H9.33333V16.5H12V19.1667ZM17.3333 19.1667H14.6667V16.5H17.3333V19.1667ZM22.6667 19.1667H20V16.5H22.6667V19.1667ZM12 24.5H9.33333V21.8333H12V24.5ZM17.3333 24.5H14.6667V21.8333H17.3333V24.5ZM22.6667 24.5H20V21.8333H22.6667V24.5Z" fill="#080808"/>
</svg>
